<?xml version="1.0" standalone="no"?>
<!DOCTYPE svg PUBLIC "-//W3C//DTD SVG 1.1//EN" "http://www.w3.org/Graphics/SVG/1.1/DTD/svg11.dtd" >
<svg>
<metadata>
Created by FontForge 20090914 at Wed Jun 10 00:07:20 2020
 By www-data
Copyright 2020 The Spartan Project Authors (https://github.com/bghryct/Spartan-MB)
</metadata>
<defs>
<font id="Spartan-SemiBold" horiz-adv-x="1447" >
  <font-face 
    font-family="Spartan SemiBold"
    font-weight="600"
    font-stretch="normal"
    units-per-em="2000"
    panose-1="0 0 0 0 0 0 0 0 0 0"
    ascent="1600"
    descent="-400"
    x-height="1024"
    cap-height="1650"
    bbox="-551 -592 3089 2334"
    underline-thickness="100"
    underline-position="-100"
    unicode-range="U+000D-U+FB02"
  />
<missing-glyph horiz-adv-x="684" 
 />
    <glyph glyph-name="fi" unicode="fi" horiz-adv-x="1197" 
d="M226 0l-0.00195312 835.001h-124v189h124v295c0 90.667 13.833 168.167 41.5 232.5s67.334 113.5 119.001 147.5s112.834 51 183.501 51c54.667 0 106.334 -7.16699 155.001 -21.5s92 -32.833 130 -55.5s69 -47.334 93 -74.001l-95 -167
c-22.667 26.667 -54 50.167 -94 70.5s-79.667 30.5 -119 30.5c-58.667 0 -100.834 -17 -126.501 -51s-38.5 -89.333 -38.5 -166v-292h577v-1024h-249v835h-328v-835h-249z" />
    <glyph glyph-name="fl" unicode="fl" horiz-adv-x="1287" 
d="M227 0l0.00292969 835h-125v189h125v295c0 90.667 13.667 168.167 41 232.5s66.666 113.5 117.999 147.5s112.333 51 183 51c43.333 0 81 -4.66699 113 -14s57 -19 75 -29l-43 -202c-12.667 6.66699 -27.834 12.5 -45.501 17.5s-36.834 7.5 -57.501 7.5
c-50 0 -85.167 -16.5 -105.5 -49.5s-30.5 -87.833 -30.5 -164.5v-292h249v-189h-249v-835h-248zM825.003 0v1720h248v-1720h-248z" />
    <glyph glyph-name="f_f" unicode="ff" horiz-adv-x="1468" 
d="M232 0l0.000976562 835h-124v189h124v295c0 90.667 13.833 168.167 41.5 232.5s67.167 113.5 118.5 147.5s112.333 51 183 51c52.667 0 98.667 -7.5 138 -22.5s70.666 -30.5 93.999 -46.5l-88 -176c-11.333 6.66699 -25.833 12.5 -43.5 17.5s-37.167 7.5 -58.5 7.5
c-50 0 -85.167 -16.5 -105.5 -49.5s-30.5 -87.833 -30.5 -164.5v-292h346v295c0 90.667 13.833 168.167 41.5 232.5s67 113.5 118 147.5s112.167 51 183.5 51c57.333 0 106.166 -8.33301 146.499 -25s71.833 -33.667 94.5 -51l-87 -175c-12 8 -27.5 15.167 -46.5 21.5
s-41.167 9.5 -66.5 9.5c-49.333 0 -84.166 -16.5 -104.499 -49.5s-30.5 -87.833 -30.5 -164.5v-292h249v-189h-249v-835h-249v835h-346v-835h-249z" />
    <glyph glyph-name="f_f_i" unicode="ffi" horiz-adv-x="1837" 
d="M248 0v835.001h-125v189h125v295c0 90.667 13.833 168.167 41.5 232.5s67 113.5 118 147.5s112.167 51 183.5 51c52.667 0 98.667 -7.5 138 -22.5s70.666 -30.5 93.999 -46.5l-89 -176c-11.333 6.66699 -25.666 12.5 -42.999 17.5s-37 7.5 -59 7.5
c-49.333 0 -84.166 -16.5 -104.499 -49.5s-30.5 -87.833 -30.5 -164.5v-292h347v295c0 90.667 13.833 168.167 41.5 232.5s67.167 113.5 118.5 147.5s112.666 51 183.999 51c54.667 0 106.334 -7.16699 155.001 -21.5s92 -32.833 130 -55.5s69 -47.334 93 -74.001l-95 -167
c-23.333 26.667 -55 50.167 -95 70.5s-79.333 30.5 -118 30.5c-58.667 0 -100.834 -17 -126.501 -51s-38.5 -89.333 -38.5 -166v-292h576v-1024h-249v835h-327v-835h-249v835h-347v-835h-249z" />
    <glyph glyph-name="f_f_l" unicode="ffl" horiz-adv-x="1883" 
d="M227 0l-0.000976562 835h-125v189h125v295c0 90.667 13.833 168.167 41.5 232.5s67 113.5 118 147.5s112.167 51 183.5 51c52.667 0 98.667 -7.5 138 -22.5s70.666 -30.5 93.999 -46.5l-88 -176c-12 6.66699 -26.667 12.5 -44 17.5s-37 7.5 -59 7.5
c-49.333 0 -84.166 -16.5 -104.499 -49.5s-30.5 -87.833 -30.5 -164.5v-292h346v295c0 90.667 13.833 168.167 41.5 232.5s67 113.5 118 147.5s112.167 51 183.5 51c43.333 0 80.833 -4.66699 112.5 -14s56.834 -19 75.501 -29l-43 -202
c-12.667 6.66699 -27.834 12.5 -45.501 17.5s-37.167 7.5 -58.5 7.5c-49.333 0 -84.166 -16.5 -104.499 -49.5s-30.5 -87.833 -30.5 -164.5v-292h248v-189h-248v-835h-249v835h-346v-835h-249zM1420 0v1720h249v-1720h-249z" />
    <glyph glyph-name=".notdef" horiz-adv-x="684" 
 />
    <glyph glyph-name="NULL" horiz-adv-x="0" 
 />
    <glyph glyph-name="NULL" horiz-adv-x="0" 
 />
    <glyph glyph-name="CR" unicode="&#xd;" horiz-adv-x="530" 
 />
    <glyph glyph-name="space" unicode=" " horiz-adv-x="530" 
 />
    <glyph glyph-name="exclam" unicode="!" horiz-adv-x="762" 
d="M288 467l-31 1253h247l-31 -1253h-185zM380 -32c-30 0 -57.667 7.5 -83 22.5s-45.333 35 -60 60s-22 52.5 -22 82.5c0 30.667 7.33301 58.334 22 83.001s34.667 44.5 60 59.5s53 22.5 83 22.5s57.5 -7.5 82.5 -22.5s44.833 -34.833 59.5 -59.5s22 -52.334 22 -83.001
c0 -30 -7.33301 -57.5 -22 -82.5s-34.5 -45 -59.5 -60s-52.5 -22.5 -82.5 -22.5z" />
    <glyph glyph-name="quotedbl" unicode="&#x22;" horiz-adv-x="999" 
d="M591 1099l-46 570h245l-45 -570h-154zM254 1099l-45 570h244l-45 -570h-154z" />
    <glyph glyph-name="numbersign" unicode="#" horiz-adv-x="1519" 
d="M305 0l54 429h-192v170h213l47 351h-260v170h280l55 430h170l-56 -430h372l55 430h170l-55 -430h194v-170h-214l-48 -351h262v-170h-283l-53 -429h-169l54 429h-373l-53 -429h-170zM549 599h372l47 351h-372z" />
    <glyph glyph-name="dollar" unicode="$" horiz-adv-x="1455" 
d="M680 -276l0.00292969 245.995c-54.667 1.33301 -109.334 9.33301 -164.001 24s-107 34.334 -157 59.001s-94.833 52.667 -134.5 84s-71.167 64.666 -94.5 99.999l137 211c36.667 -47.333 80.334 -88.666 131.001 -123.999s104.667 -62.833 162 -82.5
s113.666 -29.5 168.999 -29.5c54.667 0 102.834 9.66699 144.501 29s74.334 47 98.001 83s35.5 78 35.5 126c0 45.333 -10.167 84.333 -30.5 117s-48.5 61.5 -84.5 86.5s-78.167 48.667 -126.5 71l-157.5 70.5c-66.667 29.333 -126.334 62.333 -179.001 99
s-94.334 80.667 -125.001 132s-46 112.333 -46 183c0 74.667 17.333 144.834 52 210.501s83.5 121.167 146.5 166.5s137.5 74 223.5 86v254h156v-250c74.667 -7.33301 147.5 -27.833 218.5 -61.5s127.5 -74.167 169.5 -121.5l-115 -201c-38.667 44 -89.167 80 -151.5 108
s-125.833 42 -190.5 42c-50 0 -94.167 -9.66699 -132.5 -29s-68.333 -45.666 -90 -78.999s-32.5 -70.666 -32.5 -111.999c0 -46.667 13.333 -85 40 -115s60.834 -55.167 102.501 -75.5s85.5 -39.5 131.5 -57.5c79.333 -31.333 150.166 -63.5 212.499 -96.5
s115.166 -69.167 158.499 -108.5s76.333 -84.166 99 -134.499s34 -108.833 34 -175.5c0 -87.333 -18.667 -165.166 -56 -233.499s-89.833 -123.833 -157.5 -166.5s-147.834 -69.334 -240.501 -80.001v-255h-156z" />
    <glyph glyph-name="percent" unicode="%" horiz-adv-x="2100" 
d="M557 892c-80.667 0 -153.334 16.667 -218.001 50s-115.834 79.666 -153.501 138.999s-56.5 127.666 -56.5 204.999s18.833 145.666 56.5 204.999s88.834 105.666 153.501 138.999s137.334 50 218.001 50c80 0 152.333 -16.667 217 -50s115.834 -79.666 153.501 -138.999
s56.5 -127.666 56.5 -204.999s-18.833 -145.666 -56.5 -204.999s-88.834 -105.666 -153.501 -138.999s-137 -50 -217 -50zM483 0l960 1650h174l-960 -1650h-174zM557 1047c44.667 0 85 10.335 121 31.002s64.667 48.834 86 84.501s32 76.834 32 123.501s-10.667 88 -32 124
s-50 64.167 -86 84.5s-76.333 30.5 -121 30.5c-45.333 0 -86 -10.333 -122 -31s-64.5 -48.834 -85.5 -84.501s-31.5 -76.834 -31.5 -123.501s10.5 -87.834 31.5 -123.501s49.5 -63.834 85.5 -84.501s76.667 -31 122 -31zM1543 -30.998
c-80.667 0 -153.334 16.667 -218.001 50s-115.834 79.666 -153.501 138.999s-56.5 127.666 -56.5 204.999s18.833 145.666 56.5 204.999s88.834 105.666 153.501 138.999s137.334 50 218.001 50s153.334 -16.667 218.001 -50s115.834 -79.666 153.501 -138.999
s56.5 -127.666 56.5 -204.999s-18.833 -145.666 -56.5 -204.999s-88.834 -105.666 -153.501 -138.999s-137.334 -50 -218.001 -50zM1543 124.002c44.667 0 85 10.333 121 31s64.667 49 86 85s32 77.333 32 124s-10.667 87.834 -32 123.501s-50 63.667 -86 84
s-76.333 30.5 -121 30.5s-85 -10.167 -121 -30.5s-64.667 -48.333 -86 -84s-32 -76.834 -32 -123.501s10.667 -88 32 -124s50 -64.333 86 -85s76.333 -31 121 -31z" />
    <glyph glyph-name="ampersand" unicode="&#x26;" horiz-adv-x="1819" 
d="M659 -32c-100 0 -189.169 18.1689 -267.502 54.502s-140 88 -185 155s-67.5 146.167 -67.5 237.5c0 108 33.167 202.333 99.5 283s165.833 149.667 298.5 207c-48 54 -86.333 102.167 -115 144.5s-49.167 82.666 -61.5 120.999s-18.5 77.5 -18.5 117.5
c0 82 20.167 152.333 60.5 211s94.666 103.667 162.999 135s144.5 47 228.5 47c72.667 0 136.834 -10.833 192.501 -32.5s102.334 -51.334 140.001 -89.001s66.167 -80 85.5 -127s29 -95.5 29 -145.5c0 -86 -28.667 -162.167 -86 -228.5s-140.666 -127.833 -249.999 -184.5
l336 -360c16.667 14 35.167 31.667 55.5 53l62 66.5l58 66l42.5 50.5l163 -151l-110 -134.5c-39.333 -46.333 -75 -85.5 -107 -117.5l325 -347h-329l-189 204c-79.333 -75.333 -165.5 -133.5 -258.5 -174.5s-191.167 -61.5 -294.5 -61.5zM692.998 216.002
c60 0 119.834 14.168 179.501 42.501s116.167 69.166 169.5 122.499l-369 383c-76.667 -32.667 -136.334 -76.334 -179.001 -131.001s-64 -115 -64 -181c0 -50 11.833 -92.667 35.5 -128s55.5 -62.166 95.5 -80.499s84 -27.5 132 -27.5zM769.999 1019
c52 27.333 96.168 54.3311 132.501 80.998s63.666 55.334 81.999 86.001s27.5 65.334 27.5 104.001c0 40 -9.16699 75.333 -27.5 106s-43 54.5 -74 71.5s-65.833 25.5 -104.5 25.5c-39.333 0 -74 -8.5 -104 -25.5s-53.667 -40.5 -71 -70.5s-26 -64 -26 -102
c0 -29.333 5.5 -57.666 16.5 -84.999s28.5 -56.333 52.5 -87s56 -65.334 96 -104.001z" />
    <glyph glyph-name="quotesingle" unicode="'" horiz-adv-x="662" 
d="M254 1099l-45 570h244l-45 -570h-154z" />
    <glyph glyph-name="parenleft" unicode="(" horiz-adv-x="742" 
d="M494 -520c-39.333 51.333 -79.999 115.001 -121.999 191.001s-81.167 162.5 -117.5 259.5s-65.5 202.833 -87.5 317.5s-33 236.667 -33 366s11.167 251.666 33.5 366.999s51.5 221.666 87.5 318.999s75 184 117 260s82.667 139.333 122 190l161 -69
c-42 -61.333 -85.333 -143.666 -130 -246.999s-82.167 -224 -112.5 -362s-45.5 -290.667 -45.5 -458c0 -160 14.5 -308.167 43.5 -444.5s65.667 -257 110 -362s89.166 -191.167 134.499 -258.5z" />
    <glyph glyph-name="parenright" unicode=")" horiz-adv-x="742" 
d="M248 -520l-160.998 69c60.667 90 112.5 192.167 155.5 306.5s75.667 235.833 98 364.5s33.5 260 33.5 394c0 130.667 -10.833 260 -32.5 388s-53.834 249.833 -96.501 365.5s-95.334 220.167 -158.001 313.5l161 69c115.333 -154 203.833 -329.333 265.5 -526
s92.5 -399.667 92.5 -609c0 -203.333 -29.833 -403.5 -89.5 -600.5s-149.167 -375.167 -268.5 -534.5z" />
    <glyph glyph-name="asterisk" unicode="*" horiz-adv-x="966" 
d="M358 1157l-92 64l117 173l-199 70l36 111l200 -62v207h124v-207l200 62l36 -111l-200 -70l119 -173l-93 -64l-125 164z" />
    <glyph glyph-name="plus" unicode="+" horiz-adv-x="1374" 
d="M579 316v405h-405v216h405v405h215v-405h406v-216h-406v-405h-215z" />
    <glyph glyph-name="comma" unicode="," horiz-adv-x="745" 
d="M300 -308l-70.001 57.002c15.333 15.333 30.833 36.166 46.5 62.499s29.5 54.5 41.5 84.5s19.333 58.333 22 85c-38.667 8.66699 -69.5 27 -92.5 55s-34.5 61.333 -34.5 100c0 48 15.5 87 46.5 117s71.167 45 120.5 45c50.667 0 91 -16 121 -48s45 -76.333 45 -133
c0 -69.333 -22.167 -142.333 -66.5 -219s-104.166 -145.334 -179.499 -206.001z" />
    <glyph glyph-name="hyphen" unicode="-" horiz-adv-x="1030" 
d="M193 472v215h644v-215h-644z" />
    <glyph glyph-name="period" unicode="." horiz-adv-x="797" 
d="M398 -32c-30.667 0 -58.5 7.5 -83.5 22.5s-45 35 -60 60s-22.5 52.5 -22.5 82.5c0 30.667 7.5 58.334 22.5 83.001s35 44.5 60 59.5s52.833 22.5 83.5 22.5s58.334 -7.5 83.001 -22.5s44.334 -34.833 59.001 -59.5s22 -52.334 22 -83.001c0 -30 -7.33301 -57.5 -22 -82.5
s-34.334 -45 -59.001 -60s-52.334 -22.5 -83.001 -22.5z" />
    <glyph glyph-name="slash" unicode="/" horiz-adv-x="1024" 
d="M-5 -240l824 1960h210l-824 -1960h-210z" />
    <glyph glyph-name="zero" unicode="0" horiz-adv-x="1618" 
d="M809 -32c-134.667 0 -252.834 35.833 -354.501 107.5s-180.667 171.834 -237 300.501s-84.5 278 -84.5 448c0 170.667 28.167 320.167 84.5 448.5s135.333 228.333 237 300s219.834 107.5 354.501 107.5c135.333 0 253.666 -35.833 354.999 -107.5
s180.166 -171.667 236.499 -300s84.5 -277.833 84.5 -448.5c0 -170 -28.167 -319.333 -84.5 -448s-135.166 -228.834 -236.499 -300.501s-219.666 -107.5 -354.999 -107.5zM809 200c81.333 0 151.833 25.333 211.5 76s106 122.834 139 216.501s49.5 204.167 49.5 331.5
c0 128 -16.5 238.667 -49.5 332s-79.333 165.333 -139 216s-130.167 76 -211.5 76c-80.667 0 -151 -25.333 -211 -76s-106.5 -122.667 -139.5 -216s-49.5 -204 -49.5 -332c0 -127.333 16.5 -237.833 49.5 -331.5s79.5 -165.834 139.5 -216.501s130.333 -76 211 -76z" />
    <glyph glyph-name="one" unicode="1" horiz-adv-x="786" 
d="M293 0v1393h-213v257h475v-1650h-262z" />
    <glyph glyph-name="two" unicode="2" horiz-adv-x="1451" 
d="M87 0l-0.000976562 130.998l361.5 289c102.333 85.333 188.833 162 259.5 230s127.5 129.667 170.5 185s74.167 106.5 93.5 153.5s29 92.167 29 135.5c0 58.667 -14 112.334 -42 161.001s-65.833 87.334 -113.5 116.001s-101.5 43 -161.5 43c-58 0 -111 -14.333 -159 -43
s-89.167 -70 -123.5 -124s-59.166 -118.333 -74.499 -193l-224 98c16 74.667 41.667 142.667 77 204s79 114 131 158s110.667 77.833 176 101.5s136 35.5 212 35.5c112 0 212.167 -23.833 300.5 -71.5s157.833 -113 208.5 -196s76 -177.167 76 -282.5
c0 -53.333 -7.5 -105.666 -22.5 -156.999s-39.333 -104 -73 -158s-78 -110.333 -133 -169s-122 -121.834 -201 -189.501s-171.833 -141.5 -278.5 -221.5h738v-236h-1227z" />
    <glyph glyph-name="three" unicode="3" horiz-adv-x="1344" 
d="M643 -32c-98 0 -187.169 17.334 -267.502 52.001s-147 83.167 -200 145.5s-88.5 135.5 -106.5 219.5l246 109c2.66699 -58.667 18 -110.167 46 -154.5s66.333 -79 115 -104s104.667 -37.5 168 -37.5c89.333 0 160.833 24.833 214.5 74.5s80.5 115.167 80.5 196.5
c0 57.333 -13.167 109 -39.5 155s-61.5 82.333 -105.5 109s-93 40 -147 40c-27.333 0 -50.333 -3.33301 -69 -10v179h68c50.667 0 96.5 12.5 137.5 37.5s73.5 58.167 97.5 99.5s36 86 36 134c0 47.333 -11.833 90.166 -35.5 128.499s-55.667 68.666 -96 90.999
s-84.833 33.5 -133.5 33.5c-49.333 0 -95 -11.5 -137 -34.5s-76.333 -54.333 -103 -94s-42.334 -84.5 -47.001 -134.5l-211 92c14.667 76 45.5 143 92.5 201s106 103.167 177 135.5s148.5 48.5 232.5 48.5c96 0 181.833 -20.333 257.5 -61s135.334 -95.667 179.001 -165
s65.5 -148 65.5 -236c0 -50.667 -8.16699 -98.167 -24.5 -142.5s-39.666 -84.166 -69.999 -119.499s-66.166 -64.333 -107.499 -87c49.333 -22 92.5 -52.167 129.5 -90.5s66 -83.333 87 -135s31.5 -109.167 31.5 -172.5c0 -96 -23.333 -182 -70 -258
s-112 -135.833 -196 -179.5s-182.333 -65.5 -295 -65.5z" />
    <glyph glyph-name="four" unicode="4" horiz-adv-x="1394" 
d="M853 0v308h-824v89l811 1253h260v-1112h192v-230h-192v-308h-247zM381 538h472v758z" />
    <glyph glyph-name="five" unicode="5" horiz-adv-x="1400" 
d="M669 -31c-88 0 -171 13.9961 -249 41.9961s-145.833 68.667 -203.5 122s-100.5 118 -128.5 194l208 101c24 -73.333 69.333 -131.666 136 -174.999s144.334 -65 233.001 -65c70.667 0 131.834 13.833 183.501 41.5s91.667 66.334 120 116.001s42.5 107.5 42.5 173.5
c0 78 -19.333 145.167 -58 201.5s-92.334 99.666 -161.001 129.999s-148.334 45.5 -239.001 45.5c-69.333 0 -135 -11.333 -197 -34s-119 -55.667 -171 -99l138 887h842v-230h-619l-62 -402c142.667 49.333 280 53.333 412 12c75.333 -16.667 141 -47.667 197 -93
s99.667 -102.166 131 -170.499s47 -145.833 47 -232.5c0 -119.333 -27 -221.166 -81 -305.499s-126.5 -148.666 -217.5 -192.999s-192.167 -66.5 -303.5 -66.5z" />
    <glyph glyph-name="six" unicode="6" horiz-adv-x="1423" 
d="M726 -32c-94 0 -179.168 15.1689 -255.501 45.502s-141.666 71.833 -195.999 124.5s-96.166 113.667 -125.499 183s-44 143.333 -44 222c0 87.333 20 179.666 60 276.999s94.333 187.333 163 270l466 560h317l-494 -587c26 13.333 53.667 23.333 83 30
s60.666 10 93.999 10c74 0 143 -13.833 207 -41.5s120 -66.834 168 -117.501s85.5 -110.5 112.5 -179.5s40.5 -144.833 40.5 -227.5c0 -112 -25.167 -210.833 -75.5 -296.5s-120.333 -152.5 -210 -200.5s-193.167 -72 -310.5 -72zM713.999 188.002
c66.667 0 126.166 14.6689 178.499 44.002s93.333 69.833 123 121.5s44.5 110.167 44.5 175.5c0 67.333 -15 127.166 -45 179.499s-70.667 93.666 -122 123.999s-108.666 45.5 -171.999 45.5c-64 0 -122.333 -15.5 -175 -46.5s-94.5 -73.167 -125.5 -126.5
s-46.5 -113 -46.5 -179c0 -62.667 14.167 -119.667 42.5 -171s68 -92 119 -122s110.5 -45 178.5 -45z" />
    <glyph glyph-name="seven" unicode="7" horiz-adv-x="1298" 
d="M74 0l795 1420h-762v230h1149v-79l-872 -1571h-310z" />
    <glyph glyph-name="eight" unicode="8" horiz-adv-x="1399" 
d="M699 -32c-106.667 0 -203.167 20.832 -289.5 62.499s-154.5 98.834 -204.5 171.501s-75 155.334 -75 248.001c0 97.333 27.333 184.833 82 262.5s127 134.5 217 170.5c-72.667 36.667 -129.667 88.334 -171 155.001s-62 138.667 -62 216c0 81.333 22.667 154 68 218
s105.833 114.667 181.5 152s160.167 56 253.5 56c62.667 0 124 -9.83301 184 -29.5s114 -48 162 -85s86.333 -81.5 115 -133.5s43 -111 43 -177c0 -80 -21.167 -153 -63.5 -219s-99.166 -117 -170.499 -153c91.333 -36.667 164.166 -93.834 218.499 -171.501
s81.5 -165.167 81.5 -262.5c0 -92 -25 -174.333 -75 -247s-118 -129.834 -204 -171.501s-183 -62.5 -291 -62.5zM699 195.999c56.667 0 106.334 12.167 149.001 36.5s76 57.833 100 100.5s36 90.334 36 143.001c0 55.333 -12.333 104.166 -37 146.499
s-58.334 75.666 -101.001 99.999s-91.667 36.5 -147 36.5c-53.333 0 -101.5 -12 -144.5 -36s-77 -57.167 -102 -99.5s-37.5 -91.166 -37.5 -146.499c0 -53.333 12 -101.333 36 -144s57.5 -76.167 100.5 -100.5s92.167 -36.5 147.5 -36.5zM699 980.999
c48.667 0 91.832 10.833 129.499 32.5s67.334 51.167 89.001 88.5s32.5 79.666 32.5 126.999c0 48 -11 90.833 -33 128.5s-51.833 67.5 -89.5 89.5s-80.5 33 -128.5 33c-47.333 0 -89.833 -11 -127.5 -33s-67.5 -51.833 -89.5 -89.5s-33 -80.5 -33 -128.5
c0 -47.333 10.833 -89.666 32.5 -126.999s51.5 -66.833 89.5 -88.5s80.667 -32.5 128 -32.5z" />
    <glyph glyph-name="nine" unicode="9" horiz-adv-x="1423" 
d="M309 0l502 595.001c-48.667 -32 -106.334 -48 -173.001 -48c-72 0 -140.167 13.833 -204.5 41.5s-121.666 67 -171.999 118s-90 111.167 -119 180.5s-43.5 145.666 -43.5 228.999c0 106 24 201.667 72 287s116.667 153 206 203s195 75 317 75
c124 0 232.5 -25.667 325.5 -77s165.667 -120.666 218 -207.999s78.5 -185 78.5 -293c0 -58 -4.83301 -111 -14.5 -159s-24.167 -93 -43.5 -135s-43 -83.333 -71 -124s-59.667 -82.334 -95 -125.001l-465 -560h-318zM706 775.001c47.333 0 91.3311 8.83105 131.998 26.498
s76.334 42.5 107.001 74.5s54.834 68.833 72.501 110.5s26.5 86.5 26.5 134.5c0 65.333 -14.5 123.5 -43.5 174.5s-68.833 91 -119.5 120s-109 43.5 -175 43.5s-124.833 -14.667 -176.5 -44s-92.5 -69.5 -122.5 -120.5s-45 -108.833 -45 -173.5
c0 -65.333 15.167 -124.166 45.5 -176.499s71.333 -93.666 123 -123.999s110.167 -45.5 175.5 -45.5z" />
    <glyph glyph-name="colon" unicode=":" horiz-adv-x="765" 
d="M379 812c-30 0 -57.5 7.33301 -82.5 22s-44.833 34.5 -59.5 59.5s-22 52.5 -22 82.5c0 30.667 7.33301 58.5 22 83.5s34.5 44.833 59.5 59.5s52.5 22 82.5 22c30.667 0 58.5 -7.33301 83.5 -22s44.833 -34.5 59.5 -59.5s22 -52.833 22 -83.5
c0 -30 -7.33301 -57.5 -22 -82.5s-34.5 -44.833 -59.5 -59.5s-52.833 -22 -83.5 -22zM379 -32c-30 0 -57.5 7.5 -82.5 22.5s-44.833 35 -59.5 60s-22 52.5 -22 82.5c0 30.667 7.33301 58.5 22 83.5s34.5 44.833 59.5 59.5s52.5 22 82.5 22c30.667 0 58.5 -7.33301 83.5 -22
s44.833 -34.5 59.5 -59.5s22 -52.833 22 -83.5c0 -30 -7.33301 -57.5 -22 -82.5s-34.5 -45 -59.5 -60s-52.833 -22.5 -83.5 -22.5z" />
    <glyph glyph-name="semicolon" unicode=";" horiz-adv-x="748" 
d="M379 812c-30 0 -57.5 7.33301 -82.5 22s-44.833 34.5 -59.5 59.5s-22 52.5 -22 82.5c0 30.667 7.33301 58.5 22 83.5s34.5 44.833 59.5 59.5s52.5 22 82.5 22c30.667 0 58.5 -7.33301 83.5 -22s44.833 -34.5 59.5 -59.5s22 -52.833 22 -83.5
c0 -30 -7.33301 -57.5 -22 -82.5s-34.5 -44.833 -59.5 -59.5s-52.833 -22 -83.5 -22zM300 -308l-70.001 57.002c15.333 15.333 30.833 36.166 46.5 62.499s29.5 54.5 41.5 84.5s19.333 58.333 22 85c-38.667 8.66699 -69.5 27 -92.5 55s-34.5 61.333 -34.5 100
c0 48 15.5 87 46.5 117s71.167 45 120.5 45c50.667 0 91 -16 121 -48s45 -76.333 45 -133c0 -69.333 -22.167 -142.333 -66.5 -219s-104.166 -145.334 -179.499 -206.001z" />
    <glyph glyph-name="less" unicode="&#x3c;" horiz-adv-x="1453" 
d="M1244 270l-1093 480v164l1093 480v-202l-828 -360l828 -360v-202z" />
    <glyph glyph-name="equal" unicode="=" horiz-adv-x="1605" 
d="M289 943v215h1027v-215h-1027zM289 502v215h1027v-215h-1027z" />
    <glyph glyph-name="greater" unicode="&#x3e;" horiz-adv-x="1453" 
d="M209 270v202l828 360l-828 360v202l1093 -480v-164z" />
    <glyph glyph-name="question" unicode="?" horiz-adv-x="1259" 
d="M587 -32c-30 0 -57.5 7.5 -82.5 22.5s-44.833 35 -59.5 60s-22 52.5 -22 82.5c0 30.667 7.33301 58.5 22 83.5s34.5 44.833 59.5 59.5s52.5 22 82.5 22c30.667 0 58.5 -7.33301 83.5 -22s44.833 -34.5 59.5 -59.5s22 -52.833 22 -83.5c0 -30 -7.33301 -57.5 -22 -82.5
s-34.5 -45 -59.5 -60s-52.833 -22.5 -83.5 -22.5zM473 479l0.00390625 436.998c14 -2.66699 30 -5.16699 48 -7.5s37 -3.5 57 -3.5c66 0 123.333 10.833 172 32.5s86.5 53.5 113.5 95.5s40.5 92.667 40.5 152c0 56.667 -12.333 105.334 -37 146.001s-59.667 72 -105 94
s-98.666 33 -159.999 33c-86.667 0 -157.334 -23.167 -212.001 -69.5s-86.334 -110.833 -95.001 -193.5l-208 41c11.333 93.333 41.166 173.166 89.499 239.499s109.666 117 183.999 152s155.833 52.5 244.5 52.5c104 0 196.167 -22.333 276.5 -67
s143.333 -104.5 189 -179.5s68.5 -158.167 68.5 -249.5c0 -83.333 -19 -160.166 -57 -230.499s-89.833 -128.166 -155.5 -173.499s-139.834 -73 -222.501 -83v-218h-231z" />
    <glyph glyph-name="at" unicode="@" horiz-adv-x="2046" 
d="M1045 -447c-122 0 -236.161 21.3369 -342.494 64.0039s-199.333 102.334 -279 179.001s-142 167 -187 271s-67.5 217.667 -67.5 341c0 124.667 22.667 239.167 68 343.5s108.333 194.833 189 271.5s174 136.167 280 178.5s219.667 63.5 341 63.5
c112.667 0 219.667 -18.5 321 -55.5s191.166 -90.167 269.499 -159.5s140 -153.5 185 -252.5s67.5 -210.5 67.5 -334.5c0 -68.667 -8.5 -129.5 -25.5 -182.5s-40.667 -97.5 -71 -133.5s-65.666 -63.333 -105.999 -82s-83.5 -28 -129.5 -28c-52 0 -98.667 10 -140 30
s-75.333 45.667 -102 77c-32 -54.667 -75.833 -99.5 -131.5 -134.5s-121.167 -52.5 -196.5 -52.5c-78 0 -148 19 -210 57s-111.167 90.167 -147.5 156.5s-54.5 141.5 -54.5 225.5s18 159.167 54 225.5s85.333 118.666 148 156.999s134 57.5 214 57.5
c67.333 0 128.5 -14.833 183.5 -44.5s98.833 -69.5 131.5 -119.5v139h162v-480c0 -24.667 3.66699 -47.834 11 -69.501s19.666 -39.167 36.999 -52.5s40.666 -20 69.999 -20c26.667 0 50.5 9.33301 71.5 28s37.5 47.167 49.5 85.5s18 86.833 18 145.5
c0 108.667 -19.667 202.667 -59 282s-91.5 145.166 -156.5 197.499s-137.167 91.166 -216.5 116.499s-159.333 38 -240 38c-101.333 0 -193.333 -18 -276 -54s-153.834 -85 -213.501 -147s-105.5 -133.5 -137.5 -214.5s-48 -166.167 -48 -255.5
c0 -92 16.667 -177.667 50 -257s80 -148.833 140 -208.5s130.667 -106.334 212 -140.001s170 -50.5 266 -50.5c105.333 0 196.166 19.333 272.499 58s135.166 82.667 176.499 132l167 -109c-36 -50 -83.333 -96.5 -142 -139.5s-127.834 -77.667 -207.501 -104
s-169.167 -39.5 -268.5 -39.5zM1032.01 113.004c54 0 101.666 12.168 142.999 36.501s73.833 58 97.5 101s35.5 92.167 35.5 147.5c0 56 -12 105.667 -36 149s-56.667 77.166 -98 101.499s-88 36.5 -140 36.5s-98.667 -12.333 -140 -37s-74.166 -58.667 -98.499 -102
s-36.5 -93.333 -36.5 -150c0 -55.333 11.833 -104.333 35.5 -147s56.167 -76 97.5 -100s88 -36 140 -36z" />
    <glyph glyph-name="A" unicode="A" horiz-adv-x="1662" 
d="M52 0l657 1650h243l658 -1650h-282l-162 430h-670l-163 -430h-281zM585 660h492l-247 638z" />
    <glyph glyph-name="B" unicode="B" horiz-adv-x="1314" 
d="M160 0v1650h429c159.333 0 283.833 -35.167 373.5 -105.5s134.5 -173.833 134.5 -310.5c0 -174.667 -74 -296.667 -222 -366c118.667 -18 209.667 -62.5 273 -133.5s95 -164.167 95 -279.5c0 -94.667 -21.333 -176 -64 -244s-103.5 -120.167 -182.5 -156.5
s-172.833 -54.5 -281.5 -54.5h-555zM422 955h109c101.333 0 179 21.333 233 64s81 103.667 81 183c0 80 -26.667 140.667 -80 182s-131.333 62 -234 62h-109v-491zM422 206h208c111.333 0 195.833 22 253.5 66s86.5 107.667 86.5 191c0 84.667 -29.5 150 -88.5 196
s-142.833 69 -251.5 69h-208v-522z" />
    <glyph glyph-name="C" unicode="C" horiz-adv-x="1558" 
d="M976 -32c-124.667 0 -240.999 21.833 -348.999 65.5s-202.833 104.5 -284.5 182.5s-145.5 168.833 -191.5 272.5s-69 215.5 -69 335.5c0 119.333 23.167 231 69.5 335s110.166 195 191.499 273s175.833 138.833 283.5 182.5s223.5 65.5 347.5 65.5
c102 0 198.667 -14.667 290 -44s170.333 -68.333 237 -117l-115 -222c-50 40 -109.333 71 -178 93s-141 33 -217 33c-90 0 -173 -15.333 -249 -46s-142.167 -73.167 -198.5 -127.5s-99.833 -117.833 -130.5 -190.5s-46 -151 -46 -235s15.333 -162.333 46 -235
s74.167 -136.167 130.5 -190.5s122.5 -96.833 198.5 -127.5s159 -46 249 -46c76 0 148.333 11 217 33s128 53 178 93l115 -222c-64.667 -47.333 -142.5 -86 -233.5 -116s-188.167 -45 -291.5 -45z" />
    <glyph glyph-name="D" unicode="D" horiz-adv-x="1621" 
d="M241 0l-0.000976562 1650h424c117.333 0 226.333 -21 327 -63s188.834 -100.5 264.501 -175.5s134.667 -162.667 177 -263s63.5 -208.5 63.5 -324.5s-21 -224 -63 -324s-100.833 -187.5 -176.5 -262.5s-164 -133.333 -265 -175s-210.167 -62.5 -327.5 -62.5h-424z
M502.999 235h134c82.667 0 159.167 14.667 229.5 44s131.666 70.666 183.999 123.999s93 115.833 122 187.5s43.5 149.834 43.5 234.501c0 84 -14.5 162 -43.5 234s-69.667 134.5 -122 187.5s-113.666 94.333 -183.999 124s-146.833 44.5 -229.5 44.5h-134v-1180z" />
    <glyph glyph-name="E" unicode="E" horiz-adv-x="1300" 
d="M241 0v1650h887v-230h-625v-478h601v-230h-601v-482h625v-230h-887z" />
    <glyph glyph-name="F" unicode="F" horiz-adv-x="1250" 
d="M241 0v1650h893v-230h-702l71 62v-630l-71 90h658v-230h-658l71 90v-802h-262z" />
    <glyph glyph-name="G" unicode="G" horiz-adv-x="1818" 
d="M939 -32c-114 0 -219.997 21.832 -317.997 65.499s-183.833 104.334 -257.5 182.001s-131 168.5 -172 272.5s-61.5 216 -61.5 336c0 114 19 222.5 57 325.5s93 194.167 165 273.5s159.167 142 261.5 188s217.5 69 345.5 69c77.333 0 153 -9 227 -27
s143.833 -43.667 209.5 -77s124.834 -73.666 177.501 -120.999l-126 -202c-60 60 -133.333 107.167 -220 141.5s-175.334 51.5 -266.001 51.5c-87.333 0 -165 -15.667 -233 -47s-125.5 -75.166 -172.5 -131.499s-82.667 -121.333 -107 -195s-36.5 -152.834 -36.5 -237.501
c0 -91.333 13.667 -175.166 41 -251.499s65.5 -142.666 114.5 -198.999s106.167 -99.666 171.5 -129.999s135.666 -45.5 210.999 -45.5c61.333 0 120.666 10 177.999 30s108.666 48.667 153.999 86s81.333 81.666 108 132.999s40 108 40 170v36h-496v205h763v-213
c0 -106.667 -21.333 -202.334 -64 -287.001s-100.167 -156.834 -172.5 -216.501s-153.5 -105.334 -243.5 -137.001s-182.667 -47.5 -278 -47.5z" />
    <glyph glyph-name="H" unicode="H" horiz-adv-x="1725" 
d="M241 0v1650h262v-708h719v708h261v-1650h-261v712h-719v-712h-262z" />
    <glyph glyph-name="I" unicode="I" horiz-adv-x="744" 
d="M241 0v1650h262v-1650h-262z" />
    <glyph glyph-name="J" unicode="J" horiz-adv-x="1180" 
d="M464 -32c-150.667 0 -280.667 51.667 -390 155l91 217c84 -81.333 171 -122 261 -122c84.667 0 150.667 27.833 198 83.5s71 133.167 71 232.5v1116h262v-1186c0 -156.667 -43.667 -278.5 -131 -365.5s-208 -130.5 -362 -130.5z" />
    <glyph glyph-name="K" unicode="K" horiz-adv-x="1596" 
d="M241 0v1650h262v-713l654 713h322l-739 -802l833 -848h-363l-707 716v-716h-262z" />
    <glyph glyph-name="L" unicode="L" horiz-adv-x="1198" 
d="M241 0v1650h262v-1420h630v-230h-892z" />
    <glyph glyph-name="M" unicode="M" horiz-adv-x="2090" 
d="M158 0l182 1650h278l427 -1125l427 1125h278l182 -1650h-261l-132 1176l-410 -1114h-167l-411 1114l-131 -1176h-262z" />
    <glyph glyph-name="N" unicode="N" horiz-adv-x="1780" 
d="M241 0v1650h262l774 -1211v1211h262v-1650h-262l-774 1210v-1210h-262z" />
    <glyph glyph-name="O" unicode="O" horiz-adv-x="1919" 
d="M959 -32c-115.333 0 -223.333 22 -324 66s-189 105.167 -265 183.5s-135.5 169.333 -178.5 273s-64.5 214.834 -64.5 333.501c0 119.333 21.5 230.666 64.5 333.999s102.5 194.166 178.5 272.499s164.333 139.5 265 183.5s208.667 66 324 66s223.333 -22 324 -66
s189 -105.167 265 -183.5s135.5 -169.166 178.5 -272.499s64.5 -214.666 64.5 -333.999c0 -118.667 -21.5 -229.834 -64.5 -333.501s-102.5 -194.667 -178.5 -273s-164.333 -139.5 -265 -183.5s-208.667 -66 -324 -66zM959 220c78.667 0 151.5 15.167 218.5 45.5
s125.333 72.666 175 126.999s88.167 118.166 115.5 191.499s41 153.333 41 240s-13.667 166.667 -41 240s-65.833 137.166 -115.5 191.499s-108 96.666 -175 126.999s-139.833 45.5 -218.5 45.5c-78 0 -150.5 -15.167 -217.5 -45.5s-125.333 -72.666 -175 -126.999
s-88.167 -118.166 -115.5 -191.499s-41 -153.333 -41 -240s13.667 -166.667 41 -240s65.833 -137.166 115.5 -191.499s108 -96.666 175 -126.999s139.5 -45.5 217.5 -45.5z" />
    <glyph glyph-name="P" unicode="P" horiz-adv-x="1399" 
d="M241 0v1650h514c107.333 0 201.833 -18.667 283.5 -56s145.5 -92 191.5 -164s69 -161 69 -267c0 -104.667 -23 -194.834 -69 -270.501s-109.833 -134 -191.5 -175s-176.167 -61.5 -283.5 -61.5h-252v-656h-262zM503 868.001l175 0.000976562
c66 0 125.167 10.667 177.5 32s93.833 53.166 124.5 95.499s46 95.833 46 160.5s-15.333 118 -46 160s-72.167 73.167 -124.5 93.5s-111.5 30.5 -177.5 30.5h-175v-572z" />
    <glyph glyph-name="Q" unicode="Q" horiz-adv-x="1939" 
d="M1726 -54c-52.667 20.667 -105.832 44.834 -159.499 72.501s-107.5 58.5 -161.5 92.5c-137.333 -95.333 -292.666 -143 -465.999 -143c-116.667 0 -225.334 21.667 -326.001 65s-188.834 103.833 -264.501 181.5s-134.5 168.167 -176.5 271.5s-63 215 -63 335
c0 119.333 21.333 231 64 335s102 195.167 178 273.5s164.333 139.666 265 183.999s209 66.5 325 66.5c115.333 0 223.333 -22 324 -66s189 -105.167 265 -183.5s135.5 -169.333 178.5 -273s64.5 -215.167 64.5 -334.5c0 -100 -16.833 -195.833 -50.5 -287.5
s-81.5 -173.167 -143.5 -244.5c45.333 -23.333 90 -44.333 134 -63s87 -34.667 129 -48zM938.002 220c44.667 0 87.332 5.83496 127.999 17.502s78 28.5 112 50.5c-46.667 38 -91.5 78 -134.5 120s-82.833 85.333 -119.5 130l113 138c91.333 -95.333 192 -180 302 -254
c48.667 52 86 112.667 112 182s39 142.333 39 219c0 87.333 -13.667 167.666 -41 240.999s-65.666 137.166 -114.999 191.499s-107.5 96.666 -174.5 126.999s-139.833 45.5 -218.5 45.5c-79.333 0 -152.5 -15.167 -219.5 -45.5s-125.167 -72.666 -174.5 -126.999
s-87.833 -118.5 -115.5 -192.5s-41.5 -154.667 -41.5 -242s13.5 -167.666 40.5 -240.999s65.167 -136.833 114.5 -190.5s107.333 -95.334 174 -125.001s139.667 -44.5 219 -44.5z" />
    <glyph glyph-name="R" unicode="R" horiz-adv-x="1469" 
d="M241 0l-0.000976562 1650h514c110.667 0 206.834 -19.333 288.501 -58s144.667 -94.334 189 -167.001s66.5 -160 66.5 -262c0 -84.667 -15.833 -160.5 -47.5 -227.5s-77 -122.5 -136 -166.5s-129.833 -74.667 -212.5 -92l543 -677h-332l-494 648h-117v-648h-262z
M502.999 868.001h175c72.667 0 135 11.5 187 34.5s91.833 56 119.5 99s41.5 94.5 41.5 154.5c0 89.333 -30.5 159 -91.5 209s-146.5 75 -256.5 75h-175v-572z" />
    <glyph glyph-name="S" unicode="S" horiz-adv-x="1365" 
d="M664 -32c-79.333 0 -151.331 9.99414 -215.998 29.9941s-121.5 44.833 -170.5 74.5s-90.167 59.5 -123.5 89.5s-58.666 54.667 -75.999 74l138 212c18.667 -19.333 42.167 -42.333 70.5 -69s61.5 -52.834 99.5 -78.501s80.667 -47 128 -64s99.666 -25.5 156.999 -25.5
c54 0 102.333 9 145 27s76.667 44.833 102 80.5s38 79.834 38 132.501c0 46 -9.5 85.333 -28.5 118s-46.167 61.167 -81.5 85.5s-77.333 47.666 -126 69.999s-103 45.5 -163 69.5c-42.667 18 -84.834 39 -126.501 63s-79.334 52.667 -113.001 86s-60.5 71.833 -80.5 115.5
s-30 94.167 -30 151.5c0 62 12.167 121.167 36.5 177.5s58.833 106.5 103.5 150.5s97.834 78.667 159.501 104s130.5 38 206.5 38c62 0 122.333 -9 181 -27s112.167 -41.333 160.5 -70s87.833 -59.334 118.5 -92.001l-114 -199c-25.333 26 -55.5 50.5 -90.5 73.5
s-73.833 41.5 -116.5 55.5s-87.334 21 -134.001 21c-54.667 0 -101 -10.667 -139 -32s-67.167 -49.166 -87.5 -83.499s-30.5 -71.5 -30.5 -111.5c0 -34.667 7.16699 -64.167 21.5 -88.5s34.166 -45.166 59.499 -62.499s54.5 -33.166 87.5 -47.499s67.833 -28.5 104.5 -42.5
c72.667 -29.333 139.834 -59.166 201.501 -89.499s115.167 -64.666 160.5 -102.999s80.5 -83.666 105.5 -135.999s37.5 -115.166 37.5 -188.499c0 -102.667 -24.5 -190.667 -73.5 -264s-116.667 -129.166 -203 -167.499s-185.833 -57.5 -298.5 -57.5z" />
    <glyph glyph-name="T" unicode="T" horiz-adv-x="1289" 
d="M514 0v1417h-449v233h1160v-233h-450v-1417h-261z" />
    <glyph glyph-name="U" unicode="U" horiz-adv-x="1644" 
d="M822 -32c-200.667 0 -352 52 -454 156s-153 258.333 -153 463v1063h261v-992c0 -150 27.833 -259.667 83.5 -329s143.167 -104 262.5 -104s206.833 34.667 262.5 104s83.5 179 83.5 329v992h262v-1063c0 -204.667 -51 -359 -153 -463s-253.667 -156 -455 -156z" />
    <glyph glyph-name="V" unicode="V" horiz-adv-x="1689" 
d="M742 0l-692 1650h295l499 -1256l499 1256h295l-692 -1650h-204z" />
    <glyph glyph-name="W" unicode="W" horiz-adv-x="2417" 
d="M552 0l-482 1650h292l348 -1295l399 1295h198l400 -1295l348 1295h291l-481 -1650h-292l-364 1143l-365 -1143h-292z" />
    <glyph glyph-name="X" unicode="X" horiz-adv-x="1663" 
d="M42 0l628 890l-528 760h314l375 -542l375 542h314l-527 -760l627 -890h-325l-464 662l-464 -662h-325z" />
    <glyph glyph-name="Y" unicode="Y" horiz-adv-x="1503" 
d="M621 0v728l-588 922h316l402 -653l403 653h316l-588 -922v-728h-261z" />
    <glyph glyph-name="Z" unicode="Z" horiz-adv-x="1559" 
d="M66 0l949 1418h-834v232h1297l-949 -1418h896v-232h-1359z" />
    <glyph glyph-name="bracketleft" unicode="[" horiz-adv-x="828" 
d="M232 -520v2240h529v-171h-313v-1898h313v-171h-529z" />
    <glyph glyph-name="backslash" unicode="\" horiz-adv-x="1024" 
d="M819 0l-824 1720h210l824 -1720h-210z" />
    <glyph glyph-name="bracketright" unicode="]" horiz-adv-x="828" 
d="M66 -520v171h313v1898h-313v171h530v-2240h-530z" />
    <glyph glyph-name="asciicircum" unicode="^" horiz-adv-x="1212" 
d="M128 1210l414 471h128l414 -471h-224l-254 296l-254 -296h-224z" />
    <glyph glyph-name="underscore" unicode="_" horiz-adv-x="1412" 
d="M193 -201v124h1026v-124h-1026z" />
    <glyph glyph-name="grave" unicode="`" horiz-adv-x="474" 
d="M308 1126l-308 378l173 129l246 -420z" />
    <glyph glyph-name="a" unicode="a" 
d="M624 -32c-94.667 0 -180.5 23.499 -257.5 70.499s-138 111.5 -183 193.5s-67.5 175.667 -67.5 281c0 104 21.833 196.833 65.5 278.5s103.834 146.167 180.501 193.5s164 71 262 71c80 0 153.667 -16.667 221 -50s120.666 -79.666 159.999 -138.999v157h249v-1024h-249
v164c-45.333 -62 -100.833 -110.167 -166.5 -144.5s-137.167 -51.5 -214.5 -51.5zM695 180.999c62 0 116.667 14.166 164 42.499s84.666 67.5 111.999 117.5s41 107 41 171c0 64.667 -13.667 121.834 -41 171.501s-64.666 88.667 -111.999 117s-102 42.5 -164 42.5
c-61.333 0 -116 -14.167 -164 -42.5s-85.667 -67.5 -113 -117.5s-41 -107 -41 -171s13.667 -121 41 -171s65 -89.167 113 -117.5s102.667 -42.5 164 -42.5z" />
    <glyph glyph-name="b" unicode="b" horiz-adv-x="1448" 
d="M825 -32c-78 0 -150.167 17.335 -216.5 52.002s-121.833 82.667 -166.5 144v-164h-249v1720h249v-853c41.333 59.333 94.833 105.666 160.5 138.999s138.167 50 217.5 50c98 0 185.667 -23.667 263 -71s138.166 -111.833 182.499 -193.5s66.5 -174.834 66.5 -279.501
c0 -105.333 -22.667 -199 -68 -281s-106.166 -146.333 -182.499 -193s-161.833 -70 -256.5 -70zM754 181.002c62 0 116.83 14.167 164.497 42.5s85 67.333 112 117s40.5 106.5 40.5 170.5s-13.833 121.167 -41.5 171.5s-65.167 89.666 -112.5 117.999
s-101.666 42.5 -162.999 42.5s-116.166 -14.167 -164.499 -42.5s-86.166 -67.666 -113.499 -117.999s-41 -107.5 -41 -171.5s13.5 -120.833 40.5 -170.5s64.667 -88.667 113 -117s103.5 -42.5 165.5 -42.5z" />
    <glyph glyph-name="c" unicode="c" horiz-adv-x="1092" 
d="M671 -32c-77.333 0 -150.168 13.833 -218.501 41.5s-128.5 66.167 -180.5 115.5s-92.833 107 -122.5 173s-44.5 137.333 -44.5 214c0 74 14.167 143.833 42.5 209.5s68 123.5 119 173.5s111 89.333 180 118s143.5 43 223.5 43c66.667 0 130.5 -9.66699 191.5 -29
s111.5 -44.666 151.5 -75.999l-89 -168c-58.667 44.667 -131 67 -217 67c-70.667 0 -131.667 -15.5 -183 -46.5s-90.666 -72.333 -117.999 -124s-41 -107.5 -41 -167.5c0 -63.333 14.333 -120.5 43 -171.5s69 -91.5 121 -121.5s112 -45 180 -45c42 0 81.5 6 118.5 18
s68.833 28.333 95.5 49l90 -168c-40.667 -30.667 -91 -55.834 -151 -75.501s-123.667 -29.5 -191 -29.5z" />
    <glyph glyph-name="d" unicode="d" 
d="M622 -32c-93.333 0 -178.5 23.3311 -255.5 69.998s-138 111 -183 193s-67.5 175.667 -67.5 281c0 104.667 22.167 197.834 66.5 279.501s105 146.167 182 193.5s164.833 71 263.5 71c78.667 0 151 -16.667 217 -50s119.333 -79.666 160 -138.999v854h249v-1721h-249v164
c-44.667 -61.333 -100.167 -109.333 -166.5 -144s-138.5 -52 -216.5 -52zM694 180.998c62 0 116.833 14.167 164.5 42.5s85.167 67.333 112.5 117s41 106.5 41 170.5s-13.667 121.167 -41 171.5s-64.833 89.666 -112.5 117.999s-102.5 42.5 -164.5 42.5
c-60.667 0 -115 -14.167 -163 -42.5s-85.667 -67.666 -113 -117.999s-41 -107.833 -41 -172.5c0 -63.333 13.5 -119.833 40.5 -169.5s64.5 -88.667 112.5 -117s102.667 -42.5 164 -42.5z" />
    <glyph glyph-name="e" unicode="e" horiz-adv-x="1308" 
d="M681 -32c-109.333 0 -207.167 23.6689 -293.5 71.002s-154.666 112 -204.999 194s-75.5 174.333 -75.5 277c0 76 14.333 147 43 213s68.334 124 119.001 174s109.667 89 177 117s140 42 218 42c106.667 0 200.167 -22 280.5 -66s143 -105.333 188 -184
s67.5 -170.334 67.5 -275.001c0 -8.66699 -0.333008 -15.834 -1 -21.501s-2 -15.167 -4 -28.5h-834c0 -62 14 -116.5 42 -163.5s67.167 -83.667 117.5 -110s108.166 -39.5 173.499 -39.5c62 0 117.167 12.5 165.5 37.5s92.166 63.167 131.499 114.5l181 -93
c-48.667 -81.333 -116.167 -144.833 -202.5 -190.5s-182.5 -68.5 -288.5 -68.5zM371.999 637.002h581.002c-8.66699 46.667 -26.334 87 -53.001 121s-60.334 60.5 -101.001 79.5s-86 28.5 -136 28.5c-52.667 0 -99.667 -9.33301 -141 -28s-75 -45 -101 -79
s-42.333 -74.667 -49 -122z" />
    <glyph glyph-name="f" unicode="f" horiz-adv-x="786" 
d="M229 0v835.001h-124v189h124v295c0 89.333 13.667 166.166 41 230.499s66.5 113.833 117.5 148.5s112.833 52 185.5 52c45.333 0 89 -6.66699 131 -20s78.333 -32 109 -56l-87 -175c-31.333 20.667 -68 31 -110 31c-35.333 0 -63 -8.83301 -83 -26.5
s-34.167 -42.5 -42.5 -74.5s-12.5 -69.667 -12.5 -113v-292h249v-189h-249v-835h-249z" />
    <glyph glyph-name="g" unicode="g" 
d="M671 -550c-134.667 0 -248.165 25.3291 -340.498 75.9961s-159.833 124.667 -202.5 222l204 98c29.333 -55.333 74.666 -99.5 135.999 -132.5s129 -49.5 203 -49.5c65.333 0 123 13 173 39s89.333 62.833 118 110.5s43 103.834 43 168.501v182
c-44 -61.333 -99.167 -109.333 -165.5 -144s-138.833 -52 -217.5 -52c-93.333 0 -178.333 23.333 -255 70s-137.667 111 -183 193s-68 175.667 -68 281c0 104.667 22.167 197.834 66.5 279.501s105 146.167 182 193.5s164.833 71 263.5 71
c78.667 0 151.167 -16.667 217.5 -50s119.5 -79.666 159.5 -138.999v157h249v-1052c0 -105.333 -21.833 -197.166 -65.5 -275.499s-108.834 -139 -195.501 -182s-194 -64.5 -322 -64.5zM693.002 180.996c62.667 0 118.001 14.167 166.001 42.5s85.667 67.333 113 117
s41 106.5 41 170.5s-13.833 121.167 -41.5 171.5s-65.334 89.666 -113.001 117.999s-102.167 42.5 -163.5 42.5s-116 -14.167 -164 -42.5s-85.667 -67.666 -113 -117.999s-41 -107.5 -41 -171.5s13.5 -120.833 40.5 -170.5s64.333 -88.667 112 -117
s102.167 -42.5 163.5 -42.5z" />
    <glyph glyph-name="h" unicode="h" horiz-adv-x="1353" 
d="M193 0l-0.000976562 1721h249v-820c35.333 45.333 82.5 82.5 141.5 111.5s126.5 43.5 202.5 43.5c78.667 0 147.5 -16.833 206.5 -50.5s104.833 -81.167 137.5 -142.5s49 -134 49 -218v-645h-249v593c0 85.333 -21.167 151.166 -63.5 197.499s-100.833 69.5 -175.5 69.5
c-51.333 0 -95.666 -10.5 -132.999 -31.5s-66 -49 -86 -84s-30 -73.833 -30 -116.5v-628h-249z" />
    <glyph glyph-name="i" unicode="i" horiz-adv-x="635" 
d="M192 0v1024h249v-1024h-249zM317 1234c-27.333 0 -52.5 6.83301 -75.5 20.5s-41.333 32 -55 55s-20.5 48.5 -20.5 76.5c0 27.333 6.83301 52.333 20.5 75s32 40.834 55 54.501s48.167 20.5 75.5 20.5c28 0 53.167 -6.83301 75.5 -20.5s40.333 -31.834 54 -54.501
s20.5 -47.667 20.5 -75c0 -28 -6.83301 -53.5 -20.5 -76.5s-31.667 -41.333 -54 -55s-47.5 -20.5 -75.5 -20.5z" />
    <glyph glyph-name="j" unicode="j" horiz-adv-x="636" 
d="M117 -550c-41.333 0 -83.333 5 -126 15s-77.334 24 -104.001 42l76 201c30.667 -23.333 65.334 -35 104.001 -35c84.667 0 127 58.333 127 175v1176h249v-1216c0 -112.667 -28.5 -200.5 -85.5 -263.5s-137.167 -94.5 -240.5 -94.5zM318 1235
c-27.333 0 -52.501 6.83203 -75.501 20.499s-41.333 32 -55 55s-20.5 48.5 -20.5 76.5c0 27.333 6.83301 52.5 20.5 75.5s32 41.167 55 54.5s48.167 20 75.5 20c28 0 53.333 -6.66699 76 -20s40.834 -31.5 54.501 -54.5s20.5 -48.167 20.5 -75.5
s-6.83301 -52.666 -20.5 -75.999s-32 -41.833 -55 -55.5s-48.167 -20.5 -75.5 -20.5z" />
    <glyph glyph-name="k" unicode="k" horiz-adv-x="1226" 
d="M193 0v1720h249v-1087l390 391h323l-489 -495l512 -529h-320l-416 434v-434h-249z" />
    <glyph glyph-name="l" unicode="l" horiz-adv-x="635" 
d="M193 0v1720h249v-1720h-249z" />
    <glyph glyph-name="m" unicode="m" horiz-adv-x="2030" 
d="M193 0l0.00292969 1024h249v-123c47.333 52.667 97.166 91.667 149.499 117s109.833 38 172.5 38c80.667 0 152.5 -18.333 215.5 -55s107.5 -86 133.5 -148c46 65.333 98.333 115.5 157 150.5s126.667 52.5 204 52.5c73.333 0 138.5 -15.167 195.5 -45.5
s102 -73.666 135 -129.999s49.5 -124.166 49.5 -203.499v-677h-249v609c0 76 -19.833 136.167 -59.5 180.5s-92.834 66.5 -159.501 66.5c-45.333 0 -86 -9.66699 -122 -29s-64.333 -45 -85 -77s-31 -66.333 -31 -103v-647h-249v619c0 72 -19.333 129.5 -58 172.5
s-91.334 64.5 -158.001 64.5c-46 0 -87.167 -9.66699 -123.5 -29s-65 -44.833 -86 -76.5s-31.5 -65.834 -31.5 -102.501v-648h-249z" />
    <glyph glyph-name="n" unicode="n" horiz-adv-x="1353" 
d="M193 0l-0.000976562 1024h249v-123c35.333 45.333 82.5 82.5 141.5 111.5s126.5 43.5 202.5 43.5c78.667 0 147.5 -16.833 206.5 -50.5s104.833 -81.167 137.5 -142.5s49 -134 49 -218v-645h-249v593c0 85.333 -21.167 151.166 -63.5 197.499s-100.833 69.5 -175.5 69.5
c-51.333 0 -95.666 -10.5 -132.999 -31.5s-66 -49 -86 -84s-30 -73.833 -30 -116.5v-628h-249z" />
    <glyph glyph-name="o" unicode="o" horiz-adv-x="1392" 
d="M696 -32c-110.667 0 -210.5 23 -299.5 69s-159.5 110 -211.5 192s-78 176.333 -78 283c0 107.333 26 201.833 78 283.5s122.333 145.5 211 191.5s188.667 69 300 69c110.667 0 210.5 -23 299.5 -69s159.333 -109.833 211 -191.5s77.5 -176.167 77.5 -283.5
c0 -106.667 -25.833 -201 -77.5 -283s-122 -146 -211 -192s-188.833 -69 -299.5 -69zM696 182c62.667 0 118.834 14.167 168.501 42.5s88.834 67.333 117.501 117s43 106.5 43 170.5c0 64.667 -14.333 121.834 -43 171.501s-67.834 88.5 -117.501 116.5
s-105.834 42 -168.501 42c-62 0 -118 -14 -168 -42s-89.333 -66.833 -118 -116.5s-43 -106.834 -43 -171.501c0 -64 14.333 -120.833 43 -170.5s68 -88.667 118 -117s106 -42.5 168 -42.5z" />
    <glyph glyph-name="p" unicode="p" horiz-adv-x="1448" 
d="M193 -520v1544h249v-156c41.333 59.333 95 105.5 161 138.5s138 49.5 216 49.5c98.667 0 186.5 -23.667 263.5 -71s137.833 -111.833 182.5 -193.5s67 -174.834 67 -279.501c0 -103.333 -22.167 -196 -66.5 -278s-104.666 -146.833 -180.999 -194.5
s-162.833 -71.5 -259.5 -71.5c-77.333 0 -149.333 17.167 -216 51.5s-122.334 82.5 -167.001 144.5v-684h-249zM754 181.001c61.333 0 115.834 14.168 163.501 42.501s85.167 67.333 112.5 117s41 106.5 41 170.5s-13.833 121.167 -41.5 171.5
s-65.167 89.666 -112.5 117.999s-101.666 42.5 -162.999 42.5s-116 -14.167 -164 -42.5s-85.833 -67.5 -113.5 -117.5s-41.5 -107 -41.5 -171s13.667 -121 41 -171s65.166 -89.167 113.499 -117.5s103.166 -42.5 164.499 -42.5z" />
    <glyph glyph-name="q" unicode="q" 
d="M1005 -520v684.001c-45.333 -62 -101 -110.167 -167 -144.5s-137.667 -51.5 -215 -51.5c-96.667 0 -183.167 23.667 -259.5 71s-136.666 112.166 -180.999 194.499s-66.5 175.166 -66.5 278.499c0 104.667 22.167 197.834 66.5 279.501s105.166 146.167 182.499 193.5
s165.333 71 264 71c78 0 149.667 -16.5 215 -49.5s119 -79.5 161 -139.5v157h249v-1544h-249zM694 181.001c62 0 116.833 14.168 164.5 42.501s85.167 67.333 112.5 117s41 106.5 41 170.5c0 64.667 -13.667 122 -41 172s-64.833 89.167 -112.5 117.5
s-102.167 42.5 -163.5 42.5s-116 -14.167 -164 -42.5s-85.667 -67.5 -113 -117.5s-41 -107 -41 -171c0 -64.667 13.5 -121.834 40.5 -171.501s64.5 -88.667 112.5 -117s102.667 -42.5 164 -42.5z" />
    <glyph glyph-name="r" unicode="r" horiz-adv-x="964" 
d="M193 0v1024h249v-149c36 58.667 81 103.5 135 134.5s113.333 46.5 178 46.5c34 0 68.833 -4.5 104.5 -13.5s66.167 -20.833 91.5 -35.5l-103 -211c-22 13.333 -47.5 24 -76.5 32s-55.833 12 -80.5 12c-42.667 0 -83 -11 -121 -33s-68.833 -50.333 -92.5 -85
s-35.5 -72 -35.5 -112v-610h-249z" />
    <glyph glyph-name="s" unicode="s" horiz-adv-x="1012" 
d="M475 -32c-86 0 -162.499 16.165 -229.499 48.498s-121.5 78.833 -163.5 139.5l110 162c39.333 -52 83.166 -92.333 131.499 -121s98.5 -43 150.5 -43c32 0 60.333 5.83301 85 17.5s44.334 28.667 59.001 51s22 48.833 22 79.5c0 32 -8.33301 57 -25 75
s-41.667 34.333 -75 49s-75.333 32 -126 52c-42.667 18 -83.334 38 -122.001 60s-70.5 49.833 -95.5 83.5s-37.5 76.5 -37.5 128.5c0 59.333 16.5 112 49.5 158s78.333 82 136 108s123.5 39 197.5 39c53.333 0 107 -9.5 161 -28.5s108 -46.5 162 -82.5l-90 -157
c-78 64.667 -155 97 -231 97c-44.667 0 -80.5 -10.667 -107.5 -32s-40.5 -48.666 -40.5 -81.999c0 -27.333 11.667 -50.666 35 -69.999s52.333 -36.333 87 -51l104 -42c54.667 -20 102.667 -41.333 144 -64s73.666 -52 96.999 -88s35 -84 35 -144
c0 -72 -17.167 -133.667 -51.5 -185s-83.166 -90.5 -146.499 -117.5s-138.333 -40.5 -225 -40.5z" />
    <glyph glyph-name="t" unicode="t" horiz-adv-x="820" 
d="M511 -32c-92.667 0 -164.834 30.001 -216.501 90.001s-77.5 144.333 -77.5 253v524h-125v189h125v383h249v-383h236v-189h-236v-507c0 -44.667 9 -78.834 27 -102.501s43.667 -35.5 77 -35.5c34.667 0 66.334 10.667 95.001 32l63 -199
c-30 -17.333 -64.333 -30.833 -103 -40.5s-76.667 -14.5 -114 -14.5z" />
    <glyph glyph-name="u" unicode="u" horiz-adv-x="1328" 
d="M664 -32c-176 0 -302.333 36.167 -379 108.5s-115 191.833 -115 358.5v589h249v-533c0 -115.333 18.5 -197.333 55.5 -246s100.167 -73 189.5 -73s152.5 24.333 189.5 73s55.5 130.667 55.5 246v533h249v-589c0 -166.667 -38.333 -286.167 -115 -358.5
s-203 -108.5 -379 -108.5z" />
    <glyph glyph-name="v" unicode="v" horiz-adv-x="1242" 
d="M538 0l-524 1024h294l313 -689l313 689h294l-524 -1024h-166z" />
    <glyph glyph-name="w" unicode="w" horiz-adv-x="1967" 
d="M538 0l-524 1024h285l314 -687l286 687h169l285 -687l314 687h285l-523 -1024h-167l-279 666l-279 -666h-166z" />
    <glyph glyph-name="x" unicode="x" horiz-adv-x="1211" 
d="M17 0l435 532l-375 492h288l241 -318l240 318h288l-375 -492l435 -532h-297l-291 364l-292 -364h-297z" />
    <glyph glyph-name="y" unicode="y" horiz-adv-x="1251" 
d="M196 -520l302 611l-486 933h284l347 -690l307 690h284l-754 -1544h-284z" />
    <glyph glyph-name="z" unicode="z" horiz-adv-x="1191" 
d="M56 0l634 831h-553v193h980l-635 -831h605v-193h-1031z" />
    <glyph glyph-name="braceleft" unicode="{" horiz-adv-x="783" 
d="M550 -520c-64 0 -116.667 10.8262 -158 32.4932s-73.666 50.334 -96.999 86.001s-39.666 74.834 -48.999 117.501s-14 84.667 -14 126v575c0 40.667 -10.167 69.834 -30.5 87.501s-48.166 26.5 -83.499 26.5v138c35.333 0 63.166 8.83301 83.499 26.5
s30.5 46.834 30.5 87.501v575c0 41.333 4.66699 83.333 14 126s25.666 81.834 48.999 117.501s55.666 64.334 96.999 86.001s94 32.5 158 32.5h135v-185h-63c-54 0 -96.5 -17.667 -127.5 -53s-46.5 -83 -46.5 -143v-574c0 -44 -8.16699 -79.167 -24.5 -105.5
s-37.5 -46.166 -63.5 -59.499c26 -13.333 47.167 -33.333 63.5 -60s24.5 -61.667 24.5 -105v-574c0 -60 15.5 -107.667 46.5 -143s73.5 -53 127.5 -53h63v-185h-135z" />
    <glyph glyph-name="bar" unicode="|" horiz-adv-x="795" 
d="M289 0v1720h217v-1720h-217z" />
    <glyph glyph-name="braceright" unicode="}" horiz-adv-x="783" 
d="M98 -520v185.007h63c54.667 0 97.334 17.667 128.001 53s46 83 46 143v574c0 43.333 8.33301 78.333 25 105s38 46.667 64 60c-26 13.333 -47.333 33.166 -64 59.499s-25 61.5 -25 105.5v574c0 60 -15.333 107.667 -46 143s-73.334 53 -128.001 53h-63v185h135
c64 0 116.667 -10.833 158 -32.5s73.666 -50.334 96.999 -86.001s39.666 -74.834 48.999 -117.501s14 -84.667 14 -126v-575c0 -40.667 10.167 -69.834 30.5 -87.501s48.5 -26.5 84.5 -26.5v-138c-36 0 -64.167 -8.83301 -84.5 -26.5s-30.5 -46.834 -30.5 -87.501v-575
c0 -41.333 -4.66699 -83.333 -14 -126s-25.666 -81.834 -48.999 -117.501s-55.666 -64.334 -96.999 -86.001s-94 -32.5 -158 -32.5h-135z" />
    <glyph glyph-name="asciitilde" unicode="~" horiz-adv-x="1491" 
d="M951 646c-42.667 0 -82.499 8.49805 -119.499 25.498s-72.333 36.333 -106 58s-66.5 41 -98.5 58s-64.667 25.5 -98 25.5c-42.667 0 -80.667 -14.667 -114 -44s-60 -66.666 -80 -111.999l-132 118c21.333 42.667 49.5 81.834 84.5 117.501s74.167 64.5 117.5 86.5
s87.666 33 132.999 33c42.667 0 82.334 -8.5 119.001 -25.5s71.834 -36.5 105.501 -58.5s66.5 -41.333 98.5 -58s64.667 -25 98 -25c38.667 0 75.167 13.667 109.5 41s62.166 65 83.499 113l134 -116c-22.667 -43.333 -51.834 -83 -87.501 -119s-74.667 -64.667 -117 -86
s-85.833 -32 -130.5 -32z" />
    <glyph glyph-name="uni00A0" unicode="&#xa0;" horiz-adv-x="530" 
 />
    <glyph glyph-name="exclamdown" unicode="&#xa1;" horiz-adv-x="764" 
d="M258 -522l32 1253h185l30 -1253h-247zM380 900c-30 0 -57.333 7.5 -82 22.5s-44.5 34.833 -59.5 59.5s-22.5 52.334 -22.5 83.001s7.5 58.334 22.5 83.001s34.833 44.5 59.5 59.5s52 22.5 82 22.5c31.333 0 59.333 -7.5 84 -22.5s44.5 -34.833 59.5 -59.5
s22.5 -52.334 22.5 -83.001s-7.5 -58.334 -22.5 -83.001s-34.833 -44.5 -59.5 -59.5s-52.667 -22.5 -84 -22.5z" />
    <glyph glyph-name="cent" unicode="&#xa2;" horiz-adv-x="1259" 
d="M646 -258l-0.000976562 236.004c-91.333 13.333 -172.833 45.166 -244.5 95.499s-128 113.666 -169 189.999s-61.5 159.166 -61.5 248.499c0 83.333 17.667 160.833 53 232.5s84.5 132.834 147.5 183.501s136.167 86 219.5 106v238h155v-217
c67.333 -1.33301 129 -11 185 -29s105 -43.333 147 -76l-82 -168c-29.333 24 -64.166 42.333 -104.499 55s-82.5 19 -126.5 19c-66.667 0 -125.167 -14.333 -175.5 -43s-89.5 -68.834 -117.5 -120.501s-42 -111.167 -42 -178.5c0 -68 14.167 -128 42.5 -180
s68 -92.667 119 -122s109.167 -44 174.5 -44c43.333 0 85.5 6.66699 126.5 20s75.5 31 103.5 53l82 -168c-36 -27.333 -78 -49.833 -126 -67.5s-98.333 -28.834 -151 -33.501v-230h-155z" />
    <glyph glyph-name="sterling" unicode="&#xa3;" horiz-adv-x="1640" 
d="M1131 -30c-52.667 0 -102.498 7.16406 -149.498 21.4971s-92.333 30.666 -136 48.999s-86 34.666 -127 48.999s-81.5 21.5 -121.5 21.5c-28.667 0 -54.834 -4.33301 -78.501 -13s-42.667 -21.167 -57 -37.5s-22.833 -36.5 -25.5 -60.5h-217
c0.666992 54.667 13.5 104.334 38.5 149.001s59.333 80.667 103 108s93.167 42 148.5 44c9.33301 20 17.333 44.333 24 73s10 57.334 10 86.001c0 29.333 -3.66699 55.333 -11 78s-16.666 43.667 -27.999 63h-308v142h242c-34.667 56 -64.667 116.333 -90 181
s-38 137.667 -38 219c0 109.333 23.333 204.333 70 285s111.167 143 193.5 187s177.833 66 286.5 66c94.667 0 179.5 -16.5 254.5 -49.5s137.667 -79.167 188 -138.5s85.166 -129 104.499 -209l-214 -102c-12 51.333 -31.667 98.333 -59 141
s-63.666 76.834 -108.999 102.501s-101.333 38.5 -168 38.5c-62.667 0 -116.334 -12.5 -161.001 -37.5s-79 -60.667 -103 -107s-36 -102.166 -36 -167.499c0 -46.667 5.66699 -92.5 17 -137.5s26.666 -89.667 45.999 -134s40.333 -90.166 63 -137.499h427v-142h-386
c10.667 -21.333 18.834 -43.333 24.501 -66s8.5 -48 8.5 -76c0 -27.333 -3.16699 -56 -9.5 -86s-17.166 -60.667 -32.499 -92c31.333 -2.66699 63 -9.66699 95 -21s64.167 -23.5 96.5 -36.5s64.666 -24.5 96.999 -34.5s64.5 -15 96.5 -15c42.667 0 78.167 8.5 106.5 25.5
s50.5 40 66.5 69s26.333 61.833 31 98.5l196 -96c-10 -58.667 -31.5 -110.667 -64.5 -156s-75.333 -80.833 -127 -106.5s-110.834 -38.5 -177.501 -38.5z" />
    <glyph glyph-name="currency" unicode="&#xa4;" horiz-adv-x="1231" 
d="M196 120l-89 89.001l138 138c-28.667 39.333 -51.334 82.666 -68.001 129.999s-25 98 -25 152s8.33301 105 25 153s39.334 91 68.001 129l-138 138l89 89l137 -138c39.333 30.667 82.833 54.167 130.5 70.5s98.5 24.5 152.5 24.5s105 -8.16699 153 -24.5
s91.333 -39.833 130 -70.5l137 138l88 -89l-138 -137c29.333 -38.667 52.333 -82 69 -130s25 -99 25 -153s-8.33301 -104.833 -25 -152.5s-39.667 -91.167 -69 -130.5l138 -137l-88 -89l-137 137c-38.667 -29.333 -82 -52.333 -130 -69s-99 -25 -153 -25
s-104.833 8.33301 -152.5 25s-91.167 40 -130.5 70zM616 370.001c49.333 0 93.666 11.333 132.999 34s70.5 53.5 93.5 92.5s34.5 83.167 34.5 132.5c0 50 -11.5 94.5 -34.5 133.5s-54.167 69.667 -93.5 92s-83.666 33.5 -132.999 33.5s-93.666 -11.167 -132.999 -33.5
s-70.5 -53 -93.5 -92s-34.5 -83.5 -34.5 -133.5c0 -49.333 11.5 -93.5 34.5 -132.5s54.167 -69.833 93.5 -92.5s83.666 -34 132.999 -34z" />
    <glyph glyph-name="yen" unicode="&#xa5;" horiz-adv-x="1700" 
d="M719 0v270h-410v188h410v180h-410v188h345l-522 824h316l401 -653l404 653h315l-522 -824h344v-188h-409v-180h409v-188h-409v-270h-262z" />
    <glyph glyph-name="brokenbar" unicode="&#xa6;" horiz-adv-x="795" 
d="M289 1056v664h217v-664h-217zM289 0v664h217v-664h-217z" />
    <glyph glyph-name="section" unicode="&#xa7;" horiz-adv-x="1457" 
d="M716 -550c-82.667 0 -155.335 11.165 -218.002 33.498s-116.5 52 -161.5 89s-81.167 77.333 -108.5 121s-46.333 86.834 -57 129.501l225 53c14.667 -40.667 37 -77.167 67 -109.5s66.333 -58 109 -77s90 -28.5 142 -28.5c50.667 0 94.167 9 130.5 27s64.333 43 84 75
s29.5 68.333 29.5 109c0 47.333 -15.667 87.333 -47 120s-74.166 62.167 -128.499 88.5s-115.5 53.833 -183.5 82.5c-46 21.333 -92.5 45.333 -139.5 72s-89.667 57.334 -128 92.001s-68.833 74.167 -91.5 118.5s-33 94.833 -31 151.5c3.33301 70 26.333 133.333 69 190
s102.667 100.667 180 132c-64 40.667 -112.333 88.834 -145 144.501s-49 119.5 -49 191.5c0 79.333 18.667 151.166 56 215.499s91.5 115.333 162.5 153s156.5 56.5 256.5 56.5c70.667 0 132.167 -9 184.5 -27s97 -42.333 134 -73s67.167 -64.834 90.5 -102.501
s40.666 -76.167 51.999 -115.5l-226 -51c-11.333 42 -36.666 78.833 -75.999 110.5s-89.333 47.5 -150 47.5c-42 0 -79 -8.66699 -111 -26s-56.833 -40.666 -74.5 -69.999s-26.5 -62.333 -26.5 -99c0 -36 10.167 -67.833 30.5 -95.5s47 -52.167 80 -73.5
s68.667 -40.5 107 -57.5l109.5 -48.5c49.333 -22 99.333 -46.667 150 -74s97.167 -58.833 139.5 -94.5s76 -76.167 101 -121.5s36.5 -96.666 34.5 -153.999c-2 -70 -24.5 -133.333 -67.5 -190s-102.5 -101 -178.5 -133c62 -42.667 109.5 -92.5 142.5 -149.5
s49.5 -122.833 49.5 -197.5c0 -92.667 -23.167 -171.334 -69.5 -236.001s-108.666 -114 -186.999 -148s-165.5 -51 -261.5 -51zM874.999 327.998c26.667 9.33301 52.5 22.668 77.5 40.001s45.833 38.5 62.5 63.5s25 52.5 25 82.5c0 31.333 -9.66699 60.333 -29 87
s-51.166 53.5 -95.499 80.5s-104.166 56.167 -179.499 87.5c-18.667 6.66699 -35.667 13.5 -51 20.5l-60 28.5c-26.667 -8 -53 -20.333 -79 -37s-47.333 -37.334 -64 -62.001s-25 -53 -25 -85c0 -31.333 8 -59 24 -83s40.167 -46 72.5 -66s72.166 -41 119.499 -63l84 -38
l61.5 -28.5c18.333 -8.33301 37.166 -17.5 56.499 -27.5z" />
    <glyph glyph-name="dieresis" unicode="&#xa8;" horiz-adv-x="744" 
d="M608 1262c-37.333 0 -69.333 13.333 -96 40s-40 58.667 -40 96c0 38 13.333 70.167 40 96.5s58.667 39.5 96 39.5c38 0 70.167 -13.167 96.5 -39.5s39.5 -58.5 39.5 -96.5c0 -37.333 -13.167 -69.333 -39.5 -96s-58.5 -40 -96.5 -40zM136 1262
c-37.333 0 -69.333 13.333 -96 40s-40 58.667 -40 96c-0 38 13.333 70.167 40 96.5s58.667 39.5 96 39.5c38 0 70.167 -13.167 96.5 -39.5s39.5 -58.5 39.5 -96.5c0 -37.333 -13.167 -69.333 -39.5 -96s-58.5 -40 -96.5 -40z" />
    <glyph glyph-name="copyright" unicode="&#xa9;" horiz-adv-x="2032" 
d="M1016 -31c-118 0 -228.165 22.0029 -330.498 66.0029s-192.166 105 -269.499 183s-137.833 168.667 -181.5 272s-65.5 214.666 -65.5 333.999c0 118 21.833 228.667 65.5 332s104.167 194.333 181.5 273s167.166 140.167 269.499 184.5s212.166 66.5 329.499 66.5
s227.333 -22 330 -66s192.834 -105.333 270.501 -184s138.5 -169.834 182.5 -273.501s66 -214.834 66 -333.501s-21.833 -229.667 -65.5 -333s-104.334 -194 -182.001 -272s-167.834 -139 -270.501 -183s-212.667 -66 -330 -66zM1016 135.003
c94.667 0 183.167 17.667 265.5 53s154.5 84.5 216.5 147.5s110.5 136 145.5 219s52.5 172.5 52.5 268.5s-17.5 185.833 -52.5 269.5s-83.833 157 -146.5 220s-135.167 112.333 -217.5 148s-170.5 53.5 -264.5 53.5s-181.833 -17.833 -263.5 -53.5
s-153.667 -85.167 -216 -148.5s-111 -136.833 -146 -220.5s-52.5 -173.167 -52.5 -268.5c0 -96 17.5 -185.667 52.5 -269s83.333 -156.333 145 -219s133.667 -111.667 216 -147s170.833 -53 265.5 -53zM1048 369.003c-86.667 0 -165.833 20.333 -237.5 61
s-128.667 95.5 -171 164.5s-63.5 145.833 -63.5 230.5s21 161.667 63 231s99 124.833 171 166.5s153 62.5 243 62.5c53.333 0 105.333 -7.5 156 -22.5s93.667 -36.167 129 -63.5l-67 -131c-52.667 38 -115.667 57 -189 57c-56.667 0 -107.667 -13.167 -153 -39.5
s-81 -61.833 -107 -106.5s-39 -95.667 -39 -153c0 -56 12.833 -106.333 38.5 -151s61.167 -80 106.5 -106s97.333 -39 156 -39c34.667 0 69 4.83301 103 14.5s61.667 23.167 83 40.5l68 -132c-95.333 -56 -192 -84 -290 -84z" />
    <glyph glyph-name="ordfeminine" unicode="&#xaa;" horiz-adv-x="1071" 
d="M468 1008c-58 0 -110.667 14.499 -158 43.499s-84.833 69 -112.5 120s-41.5 108.5 -41.5 172.5c0 63.333 13.5 120.333 40.5 171s64.5 90.834 112.5 120.501s103 44.5 165 44.5c47.333 0 91.333 -10.333 132 -31s73.334 -49 98.001 -85v96h154v-632h-154v102
c-24.667 -36 -57.334 -65.333 -98.001 -88s-86.667 -34 -138 -34zM512 1139c38.667 0 72.5 9.00098 101.5 27.001s52 42.333 69 73s25.5 65.667 25.5 105c0 60.667 -18.5 110 -55.5 148s-83.5 57 -139.5 57c-37.333 0 -70.833 -8.66699 -100.5 -26s-53 -41.333 -70 -72
s-25.5 -66.334 -25.5 -107.001c0 -39.333 8.33301 -74.5 25 -105.5s39.667 -55.333 69 -73s63 -26.5 101 -26.5z" />
    <glyph glyph-name="guillemotleft" unicode="&#xab;" horiz-adv-x="1152" 
d="M631 57l-390 500l390 500l136 -107l-307 -393l307 -393zM754 57l-390 500l390 500l136 -107l-307 -393l307 -393z" />
    <glyph glyph-name="logicalnot" unicode="&#xac;" horiz-adv-x="1374" 
d="M984 316v405h-810v216h1026v-621h-216z" />
    <glyph glyph-name="uni00AD" unicode="&#xad;" horiz-adv-x="1030" 
d="M193 472v215h644v-215h-644z" />
    <glyph glyph-name="registered" unicode="&#xae;" horiz-adv-x="1313" 
d="M656 777c-83.333 0 -159.336 20.501 -228.003 61.501s-123.5 95.833 -164.5 164.5s-61.5 144.667 -61.5 228c0 82.667 20.333 158.5 61 227.5s95.334 124.333 164.001 166s145 62.5 229 62.5c83.333 0 159.333 -20.5 228 -61.5s123.5 -96 164.5 -165
s61.5 -145.5 61.5 -229.5c0 -84.667 -20.667 -161.334 -62 -230.001s-96.166 -123.167 -164.499 -163.5s-144.166 -60.5 -227.499 -60.5zM655.997 872.001c65.333 0 125.17 15.8301 179.503 47.4971s98 74.834 131 129.501s49.5 115.334 49.5 182.001
s-16.333 127.167 -49 181.5s-76.334 97.833 -131.001 130.5s-114.667 49 -180 49c-66.667 0 -127 -16.5 -181 -49.5s-97 -76.833 -129 -131.5s-48 -114.667 -48 -180c0 -66 16.167 -126.167 48.5 -180.5s75.666 -97.666 129.999 -129.999s114.166 -48.5 179.499 -48.5z
M519.001 987.998v489h135c46.667 0 84.834 -12 114.501 -36s44.5 -59.667 44.5 -107c0 -38.667 -10.833 -70.5 -32.5 -95.5s-49.834 -40.833 -84.501 -47.5l162 -203h-99l-150 197h-11v-197h-79zM598.001 1248l33 0.000976562c27.333 0 50.833 7 70.5 21
s29.5 35.333 29.5 64c0 29.333 -10.167 50.166 -30.5 62.499s-43.5 18.5 -69.5 18.5h-33v-166z" />
    <glyph glyph-name="macron" unicode="&#xaf;" horiz-adv-x="816" 
d="M0 1303v171h816v-171h-816z" />
    <glyph glyph-name="degree" unicode="&#xb0;" horiz-adv-x="942" 
d="M471 1338c-64 0 -117.001 19.501 -159.001 58.501s-63 87.833 -63 146.5c0 61.333 21.5 111.166 64.5 149.499s95.5 57.5 157.5 57.5c62.667 0 115.334 -19 158.001 -57s64 -87.667 64 -149c0 -60.667 -21 -110.167 -63 -148.5s-95 -57.5 -159 -57.5zM471.999 1430
c32 0 58.333 10.667 79 32s31 48.333 31 81c0 34.667 -10.833 62.5 -32.5 83.5s-47.834 31.5 -78.501 31.5c-31.333 0 -57.5 -10.667 -78.5 -32s-31.5 -49 -31.5 -83c0 -32.667 10.333 -59.667 31 -81s47.334 -32 80.001 -32z" />
    <glyph glyph-name="plusminus" unicode="&#xb1;" horiz-adv-x="1448" 
d="M617 380v374h-406v214h406v373h214v-373h406v-214h-406v-374h-214zM211 0v216h1026v-216h-1026z" />
    <glyph glyph-name="uni00B2" unicode="&#xb2;" horiz-adv-x="660" 
d="M70 1026l-0.00292969 65.9951c80.667 58 146.334 109.833 197.001 155.5s88 86.834 112 123.501s36 70.334 36 101.001c0 31.333 -9.83301 56.833 -29.5 76.5s-44.5 29.5 -74.5 29.5c-32 0 -59.667 -12 -83 -36s-40.666 -57.333 -51.999 -100l-103 48
c16.667 59.333 45.834 106 87.501 140s92.167 51 151.5 51c67.333 0 123 -20.167 167 -60.5s66 -92.166 66 -155.499c0 -34.667 -8.16699 -68.667 -24.5 -102s-43.5 -68.666 -81.5 -105.999s-88.667 -78.666 -152 -123.999h270v-107h-487z" />
    <glyph glyph-name="uni00B3" unicode="&#xb3;" horiz-adv-x="623" 
d="M300 1026c-63.333 0 -114.832 14.334 -154.499 43.001s-66.834 66.667 -81.501 114l111 52c2 -30.667 13.5 -55.834 34.5 -75.501s48.833 -29.5 83.5 -29.5c33.333 0 58.833 8.5 76.5 25.5s26.5 38.833 26.5 65.5c0 32 -11.333 58.167 -34 78.5s-49.667 30.5 -81 30.5
c-9.33301 0 -18 -1.33301 -26 -4v79h28c26.667 0 50.334 9.33301 71.001 28s31 41 31 67c0 23.333 -8.83301 43 -26.5 59s-38.834 24 -63.501 24c-26 0 -49 -8.5 -69 -25.5s-31.667 -38.833 -35 -65.5l-95 44c12.667 44 36.167 79 70.5 105s80.166 39 137.499 39
c58.667 0 106.834 -14.333 144.501 -43s56.5 -67.667 56.5 -117c0 -28 -7 -55 -21 -81s-33.333 -47.667 -58 -65c31.333 -14.667 55.666 -36.167 72.999 -64.5s26 -60.5 26 -96.5c0 -60 -21.167 -106.167 -63.5 -138.5s-96.166 -48.5 -161.499 -48.5z" />
    <glyph glyph-name="acute" unicode="&#xb4;" horiz-adv-x="474" 
d="M110 1126l-110 87l245 420l174 -129z" />
    <glyph glyph-name="uni00B5" unicode="&#xb5;" horiz-adv-x="1544" 
d="M253 -320c0 68 2.33398 130.5 7.00098 187.5s10.334 113.333 17.001 169s12.5 115 17.5 178s7.5 134.167 7.5 213.5v597h249v-596c0 -84.667 20.667 -150 62 -196s99.666 -69 174.999 -69c46.667 0 88.834 10.667 126.501 32s67.834 50 90.501 86s34 75.333 34 118v625
h249v-1025h-249v123c-31.333 -46 -75.333 -83.333 -132 -112s-115.334 -43 -176.001 -43c-40.667 0 -76.334 6.5 -107.001 19.5s-55.334 32.167 -74.001 57.5v-365h-297z" />
    <glyph glyph-name="paragraph" unicode="&#xb6;" horiz-adv-x="1547" 
d="M857 0v656h-193c-107.333 0 -199.666 23.167 -276.999 69.5s-136.833 108 -178.5 185s-62.5 161.167 -62.5 252.5c0 92.667 20.833 175.667 62.5 249s101.167 131.333 178.5 174s169.666 64 276.999 64h594v-1650h-153v1499h-96v-1499h-152z" />
    <glyph glyph-name="periodcentered" unicode="&#xb7;" horiz-adv-x="797" 
d="M398 374c-30.667 0 -58.5 7.5 -83.5 22.5s-45 34.833 -60 59.5s-22.5 52.334 -22.5 83.001s7.5 58.5 22.5 83.5s35 44.833 60 59.5s52.833 22 83.5 22s58.334 -7.33301 83.001 -22s44.334 -34.5 59.001 -59.5s22 -52.833 22 -83.5s-7.33301 -58.334 -22 -83.001
s-34.334 -44.5 -59.001 -59.5s-52.334 -22.5 -83.001 -22.5z" />
    <glyph glyph-name="cedilla" unicode="&#xb8;" horiz-adv-x="538" 
d="M279 -542c-56 0 -107.501 12.833 -154.501 38.5s-88.5 62.5 -124.5 110.5l101 74c44 -64 102 -96 174 -96c36.667 0 66.334 9.33301 89.001 28s34 42.667 34 72c0 30 -12 54.167 -36 72.5s-55.667 27.5 -95 27.5c-20 0 -40.833 -2.5 -62.5 -7.5
s-38.5 -11.167 -50.5 -18.5l-14 11l80 248h112l-48 -150c22.667 2 43.667 1.5 63 -1.5s37.333 -8.16699 54 -15.5c41.333 -9.33301 74.5 -29 99.5 -59s37.5 -67 37.5 -111c0 -64.667 -24.167 -118 -72.5 -160s-110.5 -63 -186.5 -63z" />
    <glyph glyph-name="uni00B9" unicode="&#xb9;" horiz-adv-x="430" 
d="M172 1026v508h-92v116h209v-624h-117z" />
    <glyph glyph-name="ordmasculine" unicode="&#xba;" horiz-adv-x="978" 
d="M489 1006c-68 0 -129.167 14.335 -183.5 43.002s-97.333 68.167 -129 118.5s-47.5 108.5 -47.5 174.5c0 67.333 15.667 126.166 47 176.499s74.333 89.833 129 118.5s116 43 184 43c67.333 0 128 -14.333 182 -43s97 -68.167 129 -118.5s48 -108.833 48 -175.5
c0 -66 -16 -124.333 -48 -175s-75 -90.334 -129 -119.001s-114.667 -43 -182 -43zM488 1137c38 0 72 8.66797 102 26.001s53.667 41.666 71 72.999s26 67 26 107s-8.66699 75.5 -26 106.5s-40.833 55.333 -70.5 73s-63.5 26.5 -101.5 26.5
c-38.667 0 -73 -8.83301 -103 -26.5s-53.667 -42 -71 -73s-26 -66.5 -26 -106.5c0 -40.667 8.66699 -76.5 26 -107.5s41 -55.167 71 -72.5s64 -26 102 -26z" />
    <glyph glyph-name="guillemotright" unicode="&#xbb;" horiz-adv-x="1143" 
d="M253 57l-137 107l308 393l-308 393l137 107l390 -500zM655 57l-135 107l307 393l-307 393l135 107l390 -500z" />
    <glyph glyph-name="onequarter" unicode="&#xbc;" horiz-adv-x="2318" 
d="M317 600v851h-123v199h326v-1050h-203zM335 0l1053 1650h178l-1053 -1650h-178zM1723 0v192h-585v64l574 794h202v-679h136v-179h-136v-192h-191zM1414 371h309v435z" />
    <glyph glyph-name="onehalf" unicode="&#xbd;" horiz-adv-x="2466" 
d="M317 600v851h-123v199h326v-1050h-203zM335 0l1053 1650h178l-1053 -1650h-178zM1274 0v104c120.667 79.333 222.5 149.833 305.5 211.5s150.167 116.667 201.5 165s88.5 91.833 111.5 130.5s34.5 74.334 34.5 107.001s-9.66699 62.667 -29 90s-45.333 49.333 -78 66
s-70 25 -112 25c-40 0 -76.5 -8.16699 -109.5 -24.5s-61.667 -40.333 -86 -72s-42.5 -70.5 -54.5 -116.5l-173 80c16 64.667 44.333 120.5 85 167.5s90.834 83.167 150.501 108.5s126.167 38 199.5 38c82.667 0 156.167 -15.5 220.5 -46.5s114.833 -73.167 151.499 -126.5
c36.667 -53.333 55 -114 55 -182c0 -42.667 -8.66699 -84.834 -26 -126.501s-45.333 -84 -84 -127s-89.667 -88.333 -153 -136s-141 -99.167 -233 -154.5h518v-181h-895z" />
    <glyph glyph-name="threequarters" unicode="&#xbe;" horiz-adv-x="2776" 
d="M651 579c-98 0 -183.333 23.834 -256 71.501s-119.667 112.167 -141 193.5l189 89c4 -52 24.667 -94.5 62 -127.5s86 -49.5 146 -49.5c56 0 100.5 14.667 133.5 44s49.5 67.333 49.5 114c0 34 -8.33301 64.333 -25 91s-38.667 47.667 -66 63s-57 23 -89 23
c-19.333 0 -36 -2.66699 -50 -8v136h49c30.667 0 58.334 7.16699 83.001 21.5s44.5 33.333 59.5 57s22.5 48.834 22.5 75.501s-7.33301 50.667 -22 72s-34.334 38.333 -59.001 51s-52.334 19 -83.001 19s-59.167 -6.5 -85.5 -19.5s-48.166 -30.833 -65.499 -53.5
s-28 -48.667 -32 -78l-162 74c12 48.667 34.5 91.167 67.5 127.5s73.833 64.5 122.5 84.5s101.667 30 159 30c68 0 128 -13.5 180 -40.5s92.667 -63.5 122 -109.5s44 -97 44 -153c0 -43.333 -10.5 -83.333 -31.5 -120s-51.167 -67.334 -90.5 -92.001
c48.667 -25.333 87 -59.5 115 -102.5s42 -92.833 42 -149.5c0 -62 -16 -118.333 -48 -169s-77.167 -90.834 -135.5 -120.501s-126.5 -44.5 -204.5 -44.5zM793 0.000976562l1053 1650h178l-1053 -1650h-178zM2182 0.000976562v192h-585v64l574 794h202v-679h136v-179h-136
v-192h-191zM1873 371.001h309v435z" />
    <glyph glyph-name="questiondown" unicode="&#xbf;" horiz-adv-x="1258" 
d="M653 -550c-103.333 0 -195.332 22.3359 -275.999 67.0029s-143.834 104.667 -189.501 180s-68.5 158.333 -68.5 249c0 84 19 161 57 231s90 127.833 156 173.5s140.333 73.167 223 82.5v218h230v-437c-13.333 3.33301 -29 6 -47 8s-37.333 3 -58 3
c-65.333 0 -122.5 -10.833 -171.5 -32.5s-87 -53.334 -114 -95.001s-40.5 -92.5 -40.5 -152.5c0 -56.667 12.5 -105.334 37.5 -146.001s60.167 -72 105.5 -94s98.333 -33 159 -33c87.333 0 158.333 23.333 213 70s86 111 94 193l209 -41
c-11.333 -92.667 -41.333 -172.334 -90 -239.001s-110.167 -117.5 -184.5 -152.5s-155.833 -52.5 -244.5 -52.5zM671.001 832.003c-30 0 -57.667 7.5 -83 22.5s-45.166 34.833 -59.499 59.5s-21.5 52.334 -21.5 83.001s7.16699 58.334 21.5 83.001s34.166 44.5 59.499 59.5
s53 22.5 83 22.5c30.667 0 58.5 -7.5 83.5 -22.5s44.833 -34.833 59.5 -59.5s22 -52.334 22 -83.001s-7.33301 -58.334 -22 -83.001s-34.5 -44.5 -59.5 -59.5s-52.833 -22.5 -83.5 -22.5z" />
    <glyph glyph-name="Agrave" unicode="&#xc0;" horiz-adv-x="1662" 
d="M52 0l657 1650h243l658 -1650h-282l-162 430h-670l-163 -430h-281zM585 660h492l-247 638zM916 1751l-308 378l173 129l246 -420z" />
    <glyph glyph-name="Aacute" unicode="&#xc1;" horiz-adv-x="1662" 
d="M52 0l657 1650h243l658 -1650h-282l-162 430h-670l-163 -430h-281zM585 660h492l-247 638zM795 1751l-110 87l245 420l174 -129z" />
    <glyph glyph-name="Acircumflex" unicode="&#xc2;" horiz-adv-x="1662" 
d="M52 0l657 1650h243l658 -1650h-282l-162 430h-670l-163 -430h-281zM585 660h492l-247 638zM524 1877l-97 132l403 296l404 -296l-98 -132l-306 224z" />
    <glyph glyph-name="Atilde" unicode="&#xc3;" horiz-adv-x="1662" 
d="M52 0l657 1650h243l658 -1650h-282l-162 430h-670l-163 -430h-281zM585 660h492l-247 638zM1034 1832c-38.667 0 -74.834 8.16699 -108.501 24.5s-66.5 35.166 -98.5 56.499s-64.333 40.166 -97 56.499s-67.334 24.5 -104.001 24.5c-48.667 0 -88.5 -15.667 -119.5 -47
s-54.833 -66 -71.5 -104l-127 112c33.333 64 77.5 118 132.5 162s115.833 66 182.5 66c42.667 0 83 -8.16699 121 -24.5s74.333 -35.166 109 -56.499s67.834 -40.333 99.501 -57s62.167 -25 91.5 -25c37.333 0 72.833 14.667 106.5 44s59.167 65.333 76.5 108l127 -112
c-23.333 -45.333 -53 -85.166 -89 -119.499s-74.167 -61 -114.5 -80s-79.166 -28.5 -116.499 -28.5z" />
    <glyph glyph-name="Adieresis" unicode="&#xc4;" horiz-adv-x="1662" 
d="M52 0l657 1650h243l658 -1650h-282l-162 430h-670l-163 -430h-281zM585 660h492l-247 638zM1066 1887c-37.333 0 -69.333 13.333 -96 40s-40 58.667 -40 96c0 38 13.333 70.167 40 96.5s58.667 39.5 96 39.5c38 0 70.167 -13.167 96.5 -39.5s39.5 -58.5 39.5 -96.5
c0 -37.333 -13.167 -69.333 -39.5 -96s-58.5 -40 -96.5 -40zM594 1887c-37.333 0 -69.333 13.333 -96 40s-40 58.667 -40 96c0 38 13.333 70.167 40 96.5s58.667 39.5 96 39.5c38 0 70.167 -13.167 96.5 -39.5s39.5 -58.5 39.5 -96.5c0 -37.333 -13.167 -69.333 -39.5 -96
s-58.5 -40 -96.5 -40z" />
    <glyph glyph-name="Aring" unicode="&#xc5;" horiz-adv-x="1662" 
d="M52 0l657 1650h243l658 -1650h-282l-162 430h-670l-163 -430h-281zM585 660h492l-247 638zM831 1846c-51.333 0 -98 10.333 -140 31s-75.333 49.5 -100 86.5s-37 79.167 -37 126.5v0c0 47.333 12.333 89.5 37 126.5s58 65.833 100 86.5s88.667 31 140 31
s97.833 -10.333 139.5 -31s74.834 -49.5 99.501 -86.5s37 -79.167 37 -126.5s-12.333 -89.5 -37 -126.5s-57.834 -65.833 -99.501 -86.5s-88.167 -31 -139.5 -31zM831 1968c35.333 0 65.666 11.668 90.999 35.001s38 52.333 38 86.999c0 34.667 -12.667 63.667 -38 87
s-55.666 35 -90.999 35s-65.833 -11.667 -91.5 -35s-38.5 -52.333 -38.5 -87v0c0 -34.667 12.833 -63.667 38.5 -87s56.167 -35 91.5 -35z" />
    <glyph glyph-name="AE" unicode="&#xc6;" horiz-adv-x="2266" 
d="M52 0l657 1650h872l89 -230h-623l187 -478h595l88 -230h-590l190 -482h610l88 -230h-887l-162 430h-670l-163 -430h-281zM585 660h492l-247 637z" />
    <glyph glyph-name="Ccedilla" unicode="&#xc7;" horiz-adv-x="1558" 
d="M976 -32c-124.667 0 -240.999 21.833 -348.999 65.5s-202.833 104.5 -284.5 182.5s-145.5 168.833 -191.5 272.5s-69 215.5 -69 335.5c0 119.333 23.167 231 69.5 335s110.166 195 191.499 273s175.833 138.833 283.5 182.5s223.5 65.5 347.5 65.5
c102 0 198.667 -14.667 290 -44s170.333 -68.333 237 -117l-115 -222c-50 40 -109.333 71 -178 93s-141 33 -217 33c-90 0 -173 -15.333 -249 -46s-142.167 -73.167 -198.5 -127.5s-99.833 -117.833 -130.5 -190.5s-46 -151 -46 -235s15.333 -162.333 46 -235
s74.167 -136.167 130.5 -190.5s122.5 -96.833 198.5 -127.5s159 -46 249 -46c76 0 148.333 11 217 33s128 53 178 93l115 -222c-64.667 -47.333 -142.5 -86 -233.5 -116s-188.167 -45 -291.5 -45zM922.001 -592c-56 0 -107.501 12.833 -154.501 38.5
s-88.5 62.5 -124.5 110.5l101 74c44 -64 102 -96 174 -96c36.667 0 66.334 9.33301 89.001 28s34 42.667 34 72c0 30 -12 54.167 -36 72.5s-55.667 27.5 -95 27.5c-20 0 -40.833 -2.5 -62.5 -7.5s-38.5 -11.167 -50.5 -18.5l-14 11l80 248h112l-48 -150
c22.667 2 43.667 1.5 63 -1.5s37.333 -8.16699 54 -15.5c41.333 -9.33301 74.5 -29 99.5 -59s37.5 -67 37.5 -111c0 -64.667 -24.167 -118 -72.5 -160s-110.5 -63 -186.5 -63z" />
    <glyph glyph-name="Egrave" unicode="&#xc8;" horiz-adv-x="1300" 
d="M241 0v1650h887v-230h-625v-478h601v-230h-601v-482h625v-230h-887zM772 1751l-308 378l173 129l246 -420z" />
    <glyph glyph-name="Eacute" unicode="&#xc9;" horiz-adv-x="1300" 
d="M241 0v1650h887v-230h-625v-478h601v-230h-601v-482h625v-230h-887zM651 1751l-110 87l245 420l174 -129z" />
    <glyph glyph-name="Ecircumflex" unicode="&#xca;" horiz-adv-x="1300" 
d="M241 0v1650h887v-230h-625v-478h601v-230h-601v-482h625v-230h-887zM380 1877l-97 132l403 296l404 -296l-98 -132l-306 224z" />
    <glyph glyph-name="Edieresis" unicode="&#xcb;" horiz-adv-x="1300" 
d="M241 0v1650h887v-230h-625v-478h601v-230h-601v-482h625v-230h-887zM923 1887c-37.333 0 -69.333 13.333 -96 40s-40 58.667 -40 96c0 38 13.333 70.167 40 96.5s58.667 39.5 96 39.5c38 0 70.167 -13.167 96.5 -39.5s39.5 -58.5 39.5 -96.5
c0 -37.333 -13.167 -69.333 -39.5 -96s-58.5 -40 -96.5 -40zM451 1887c-37.333 0 -69.333 13.333 -96 40s-40 58.667 -40 96c0 38 13.333 70.167 40 96.5s58.667 39.5 96 39.5c38 0 70.167 -13.167 96.5 -39.5s39.5 -58.5 39.5 -96.5c0 -37.333 -13.167 -69.333 -39.5 -96
s-58.5 -40 -96.5 -40z" />
    <glyph glyph-name="Igrave" unicode="&#xcc;" horiz-adv-x="744" 
d="M241 0v1650h262v-1650h-262zM457 1751l-308 378l173 129l246 -420z" />
    <glyph glyph-name="Iacute" unicode="&#xcd;" horiz-adv-x="744" 
d="M241 0v1650h262v-1650h-262zM336 1751l-110 87l245 420l174 -129z" />
    <glyph glyph-name="Icircumflex" unicode="&#xce;" horiz-adv-x="744" 
d="M241 0v1650h262v-1650h-262zM65 1877l-97 132l403 296l404 -296l-98 -132l-306 224z" />
    <glyph glyph-name="Idieresis" unicode="&#xcf;" horiz-adv-x="744" 
d="M241 0v1650h262v-1650h-262zM608 1887c-37.333 0 -69.333 13.333 -96 40s-40 58.667 -40 96c0 38 13.333 70.167 40 96.5s58.667 39.5 96 39.5c38 0 70.167 -13.167 96.5 -39.5s39.5 -58.5 39.5 -96.5c0 -37.333 -13.167 -69.333 -39.5 -96s-58.5 -40 -96.5 -40z
M136 1887c-37.333 0 -69.333 13.333 -96 40s-40 58.667 -40 96c-0 38 13.333 70.167 40 96.5s58.667 39.5 96 39.5c38 0 70.167 -13.167 96.5 -39.5s39.5 -58.5 39.5 -96.5c0 -37.333 -13.167 -69.333 -39.5 -96s-58.5 -40 -96.5 -40z" />
    <glyph glyph-name="Eth" unicode="&#xd0;" horiz-adv-x="1662" 
d="M282 0v718.004h-164v214h164v718h423c113.333 0 220 -20.333 320 -61s188.5 -97.834 265.5 -171.501s137.333 -160.834 181 -261.501s65.5 -211 65.5 -331c0 -120.667 -21.833 -231.334 -65.5 -332.001s-103.834 -187.834 -180.501 -261.501
s-165.167 -130.667 -265.5 -171s-207.166 -60.5 -320.499 -60.5h-423zM543 235.004l134.002 -0.000976562c82.667 0 159.167 14.667 229.5 44s131.666 70.666 183.999 123.999s93.166 115.833 122.499 187.5s44 149.834 44 234.501c0 84 -14.5 161.667 -43.5 233
s-69.833 133.833 -122.5 187.5s-114.167 95.334 -184.5 125.001s-146.833 44.5 -229.5 44.5h-134v-483h333v-214h-333v-483z" />
    <glyph glyph-name="Ntilde" unicode="&#xd1;" horiz-adv-x="1780" 
d="M241 0v1650h262l774 -1211v1211h262v-1650h-262l-774 1210v-1210h-262zM1093 1832c-38.667 0 -74.834 8.16699 -108.501 24.5s-66.5 35.166 -98.5 56.499s-64.333 40.166 -97 56.499s-67.334 24.5 -104.001 24.5c-48.667 0 -88.5 -15.667 -119.5 -47
s-54.833 -66 -71.5 -104l-127 112c33.333 64 77.5 118 132.5 162s115.833 66 182.5 66c42.667 0 83 -8.16699 121 -24.5s74.333 -35.166 109 -56.499s67.834 -40.333 99.501 -57s62.167 -25 91.5 -25c37.333 0 72.833 14.667 106.5 44s59.167 65.333 76.5 108l127 -112
c-23.333 -45.333 -53 -85.166 -89 -119.499s-74.167 -61 -114.5 -80s-79.166 -28.5 -116.499 -28.5z" />
    <glyph glyph-name="Ograve" unicode="&#xd2;" horiz-adv-x="1919" 
d="M959 -32c-115.333 0 -223.333 22 -324 66s-189 105.167 -265 183.5s-135.5 169.333 -178.5 273s-64.5 214.834 -64.5 333.501c0 119.333 21.5 230.666 64.5 333.999s102.5 194.166 178.5 272.499s164.333 139.5 265 183.5s208.667 66 324 66s223.333 -22 324 -66
s189 -105.167 265 -183.5s135.5 -169.166 178.5 -272.499s64.5 -214.666 64.5 -333.999c0 -118.667 -21.5 -229.834 -64.5 -333.501s-102.5 -194.667 -178.5 -273s-164.333 -139.5 -265 -183.5s-208.667 -66 -324 -66zM959 220c78.667 0 151.5 15.167 218.5 45.5
s125.333 72.666 175 126.999s88.167 118.166 115.5 191.499s41 153.333 41 240s-13.667 166.667 -41 240s-65.833 137.166 -115.5 191.499s-108 96.666 -175 126.999s-139.833 45.5 -218.5 45.5c-78 0 -150.5 -15.167 -217.5 -45.5s-125.333 -72.666 -175 -126.999
s-88.167 -118.166 -115.5 -191.499s-41 -153.333 -41 -240s13.667 -166.667 41 -240s65.833 -137.166 115.5 -191.499s108 -96.666 175 -126.999s139.5 -45.5 217.5 -45.5zM1045 1768l-308 378l173 129l246 -420z" />
    <glyph glyph-name="Oacute" unicode="&#xd3;" horiz-adv-x="1919" 
d="M959 -32c-115.333 0 -223.333 22 -324 66s-189 105.167 -265 183.5s-135.5 169.333 -178.5 273s-64.5 214.834 -64.5 333.501c0 119.333 21.5 230.666 64.5 333.999s102.5 194.166 178.5 272.499s164.333 139.5 265 183.5s208.667 66 324 66s223.333 -22 324 -66
s189 -105.167 265 -183.5s135.5 -169.166 178.5 -272.499s64.5 -214.666 64.5 -333.999c0 -118.667 -21.5 -229.834 -64.5 -333.501s-102.5 -194.667 -178.5 -273s-164.333 -139.5 -265 -183.5s-208.667 -66 -324 -66zM959 220c78.667 0 151.5 15.167 218.5 45.5
s125.333 72.666 175 126.999s88.167 118.166 115.5 191.499s41 153.333 41 240s-13.667 166.667 -41 240s-65.833 137.166 -115.5 191.499s-108 96.666 -175 126.999s-139.833 45.5 -218.5 45.5c-78 0 -150.5 -15.167 -217.5 -45.5s-125.333 -72.666 -175 -126.999
s-88.167 -118.166 -115.5 -191.499s-41 -153.333 -41 -240s13.667 -166.667 41 -240s65.833 -137.166 115.5 -191.499s108 -96.666 175 -126.999s139.5 -45.5 217.5 -45.5zM924 1768l-110 87l245 420l174 -129z" />
    <glyph glyph-name="Ocircumflex" unicode="&#xd4;" horiz-adv-x="1919" 
d="M959 -32c-115.333 0 -223.333 22 -324 66s-189 105.167 -265 183.5s-135.5 169.333 -178.5 273s-64.5 214.834 -64.5 333.501c0 119.333 21.5 230.666 64.5 333.999s102.5 194.166 178.5 272.499s164.333 139.5 265 183.5s208.667 66 324 66s223.333 -22 324 -66
s189 -105.167 265 -183.5s135.5 -169.166 178.5 -272.499s64.5 -214.666 64.5 -333.999c0 -118.667 -21.5 -229.834 -64.5 -333.501s-102.5 -194.667 -178.5 -273s-164.333 -139.5 -265 -183.5s-208.667 -66 -324 -66zM959 220c78.667 0 151.5 15.167 218.5 45.5
s125.333 72.666 175 126.999s88.167 118.166 115.5 191.499s41 153.333 41 240s-13.667 166.667 -41 240s-65.833 137.166 -115.5 191.499s-108 96.666 -175 126.999s-139.833 45.5 -218.5 45.5c-78 0 -150.5 -15.167 -217.5 -45.5s-125.333 -72.666 -175 -126.999
s-88.167 -118.166 -115.5 -191.499s-41 -153.333 -41 -240s13.667 -166.667 41 -240s65.833 -137.166 115.5 -191.499s108 -96.666 175 -126.999s139.5 -45.5 217.5 -45.5zM653 1894l-97 132l403 296l404 -296l-98 -132l-306 224z" />
    <glyph glyph-name="Otilde" unicode="&#xd5;" horiz-adv-x="1919" 
d="M959 -32c-115.333 0 -223.333 22 -324 66s-189 105.167 -265 183.5s-135.5 169.333 -178.5 273s-64.5 214.834 -64.5 333.501c0 119.333 21.5 230.666 64.5 333.999s102.5 194.166 178.5 272.499s164.333 139.5 265 183.5s208.667 66 324 66s223.333 -22 324 -66
s189 -105.167 265 -183.5s135.5 -169.166 178.5 -272.499s64.5 -214.666 64.5 -333.999c0 -118.667 -21.5 -229.834 -64.5 -333.501s-102.5 -194.667 -178.5 -273s-164.333 -139.5 -265 -183.5s-208.667 -66 -324 -66zM959 220c78.667 0 151.5 15.167 218.5 45.5
s125.333 72.666 175 126.999s88.167 118.166 115.5 191.499s41 153.333 41 240s-13.667 166.667 -41 240s-65.833 137.166 -115.5 191.499s-108 96.666 -175 126.999s-139.833 45.5 -218.5 45.5c-78 0 -150.5 -15.167 -217.5 -45.5s-125.333 -72.666 -175 -126.999
s-88.167 -118.166 -115.5 -191.499s-41 -153.333 -41 -240s13.667 -166.667 41 -240s65.833 -137.166 115.5 -191.499s108 -96.666 175 -126.999s139.5 -45.5 217.5 -45.5zM1163 1849c-38.667 0 -74.834 8.16699 -108.501 24.5s-66.5 35.166 -98.5 56.499
s-64.333 40.166 -97 56.499s-67.334 24.5 -104.001 24.5c-48.667 0 -88.5 -15.667 -119.5 -47s-54.833 -66 -71.5 -104l-127 112c33.333 64 77.5 118 132.5 162s115.833 66 182.5 66c42.667 0 83 -8.16699 121 -24.5s74.333 -35.166 109 -56.499s67.834 -40.333 99.501 -57
s62.167 -25 91.5 -25c37.333 0 72.833 14.667 106.5 44s59.167 65.333 76.5 108l127 -112c-23.333 -45.333 -53 -85.166 -89 -119.499s-74.167 -61 -114.5 -80s-79.166 -28.5 -116.499 -28.5z" />
    <glyph glyph-name="Odieresis" unicode="&#xd6;" horiz-adv-x="1919" 
d="M959 -32c-115.333 0 -223.333 22 -324 66s-189 105.167 -265 183.5s-135.5 169.333 -178.5 273s-64.5 214.834 -64.5 333.501c0 119.333 21.5 230.666 64.5 333.999s102.5 194.166 178.5 272.499s164.333 139.5 265 183.5s208.667 66 324 66s223.333 -22 324 -66
s189 -105.167 265 -183.5s135.5 -169.166 178.5 -272.499s64.5 -214.666 64.5 -333.999c0 -118.667 -21.5 -229.834 -64.5 -333.501s-102.5 -194.667 -178.5 -273s-164.333 -139.5 -265 -183.5s-208.667 -66 -324 -66zM959 220c78.667 0 151.5 15.167 218.5 45.5
s125.333 72.666 175 126.999s88.167 118.166 115.5 191.499s41 153.333 41 240s-13.667 166.667 -41 240s-65.833 137.166 -115.5 191.499s-108 96.666 -175 126.999s-139.833 45.5 -218.5 45.5c-78 0 -150.5 -15.167 -217.5 -45.5s-125.333 -72.666 -175 -126.999
s-88.167 -118.166 -115.5 -191.499s-41 -153.333 -41 -240s13.667 -166.667 41 -240s65.833 -137.166 115.5 -191.499s108 -96.666 175 -126.999s139.5 -45.5 217.5 -45.5zM1195 1904c-37.333 0 -69.333 13.333 -96 40s-40 58.667 -40 96c0 38 13.333 70.167 40 96.5
s58.667 39.5 96 39.5c38 0 70.167 -13.167 96.5 -39.5s39.5 -58.5 39.5 -96.5c0 -37.333 -13.167 -69.333 -39.5 -96s-58.5 -40 -96.5 -40zM723 1904c-37.333 0 -69.333 13.333 -96 40s-40 58.667 -40 96c0 38 13.333 70.167 40 96.5s58.667 39.5 96 39.5
c38 0 70.167 -13.167 96.5 -39.5s39.5 -58.5 39.5 -96.5c0 -37.333 -13.167 -69.333 -39.5 -96s-58.5 -40 -96.5 -40z" />
    <glyph glyph-name="multiply" unicode="&#xd7;" horiz-adv-x="1303" 
d="M314 341l-151 150l339 338l-339 339l151 149l338 -337l337 337l150 -149l-338 -339l338 -338l-150 -150l-337 337z" />
    <glyph glyph-name="Oslash" unicode="&#xd8;" horiz-adv-x="1919" 
d="M970 -32c-115.333 0 -223.333 22 -324 66s-189 105.167 -265 183.5s-135.5 169.333 -178.5 273s-64.5 214.834 -64.5 333.501c0 119.333 21.5 230.666 64.5 333.999s102.5 194.166 178.5 272.499s164.333 139.5 265 183.5s208.667 66 324 66s223.333 -22 324 -66
s189 -105.167 265 -183.5s135.5 -169.166 178.5 -272.499s64.5 -214.666 64.5 -333.999c0 -118.667 -21.5 -229.834 -64.5 -333.501s-102.5 -194.667 -178.5 -273s-164.333 -139.5 -265 -183.5s-208.667 -66 -324 -66zM970 220c78.667 0 151.5 15.167 218.5 45.5
s125.333 72.666 175 126.999s88.167 118.166 115.5 191.499s41 153.333 41 240s-13.667 166.667 -41 240s-65.833 137.166 -115.5 191.499s-108 96.666 -175 126.999s-139.833 45.5 -218.5 45.5c-78 0 -150.667 -15.167 -218 -45.5s-125.833 -72.666 -175.5 -126.999
s-88.167 -118.166 -115.5 -191.499s-41 -153.333 -41 -240s13.667 -166.667 41 -240s65.833 -137.166 115.5 -191.499s108.167 -96.666 175.5 -126.999s140 -45.5 218 -45.5zM430 -15l-160 117l1250 1581l161 -122z" />
    <glyph glyph-name="Ugrave" unicode="&#xd9;" horiz-adv-x="1644" 
d="M822 -32c-200.667 0 -352 52 -454 156s-153 258.333 -153 463v1063h261v-992c0 -150 27.833 -259.667 83.5 -329s143.167 -104 262.5 -104s206.833 34.667 262.5 104s83.5 179 83.5 329v992h262v-1063c0 -204.667 -51 -359 -153 -463s-253.667 -156 -455 -156zM909 1751
l-308 378l173 129l246 -420z" />
    <glyph glyph-name="Uacute" unicode="&#xda;" horiz-adv-x="1644" 
d="M822 -32c-200.667 0 -352 52 -454 156s-153 258.333 -153 463v1063h261v-992c0 -150 27.833 -259.667 83.5 -329s143.167 -104 262.5 -104s206.833 34.667 262.5 104s83.5 179 83.5 329v992h262v-1063c0 -204.667 -51 -359 -153 -463s-253.667 -156 -455 -156zM787 1751
l-110 87l245 420l174 -129z" />
    <glyph glyph-name="Ucircumflex" unicode="&#xdb;" horiz-adv-x="1644" 
d="M822 -32c-200.667 0 -352 52 -454 156s-153 258.333 -153 463v1063h261v-992c0 -150 27.833 -259.667 83.5 -329s143.167 -104 262.5 -104s206.833 34.667 262.5 104s83.5 179 83.5 329v992h262v-1063c0 -204.667 -51 -359 -153 -463s-253.667 -156 -455 -156zM517 1877
l-97 132l403 296l404 -296l-98 -132l-306 224z" />
    <glyph glyph-name="Udieresis" unicode="&#xdc;" horiz-adv-x="1644" 
d="M822 -32c-200.667 0 -352 52 -454 156s-153 258.333 -153 463v1063h261v-992c0 -150 27.833 -259.667 83.5 -329s143.167 -104 262.5 -104s206.833 34.667 262.5 104s83.5 179 83.5 329v992h262v-1063c0 -204.667 -51 -359 -153 -463s-253.667 -156 -455 -156zM1059 1887
c-37.333 0 -69.333 13.333 -96 40s-40 58.667 -40 96c0 38 13.333 70.167 40 96.5s58.667 39.5 96 39.5c38 0 70.167 -13.167 96.5 -39.5s39.5 -58.5 39.5 -96.5c0 -37.333 -13.167 -69.333 -39.5 -96s-58.5 -40 -96.5 -40zM587 1887c-37.333 0 -69.333 13.333 -96 40
s-40 58.667 -40 96c0 38 13.333 70.167 40 96.5s58.667 39.5 96 39.5c38 0 70.167 -13.167 96.5 -39.5s39.5 -58.5 39.5 -96.5c0 -37.333 -13.167 -69.333 -39.5 -96s-58.5 -40 -96.5 -40z" />
    <glyph glyph-name="Yacute" unicode="&#xdd;" horiz-adv-x="1503" 
d="M621 0v728l-588 922h316l402 -653l403 653h316l-588 -922v-728h-261zM715 1751l-110 87l245 420l174 -129z" />
    <glyph glyph-name="Thorn" unicode="&#xde;" horiz-adv-x="1399" 
d="M241 0v1650h262v-332h252c170 0 303.167 -43.833 399.5 -131.5s144.5 -206.167 144.5 -355.5c0 -99.333 -22 -187.166 -66 -263.499s-106.667 -135.833 -188 -178.5s-178 -64 -290 -64h-252v-325h-262zM503 535.999h175c72 0 133.5 12.333 184.5 37s90 58.667 117 102
s40.5 94 40.5 152c0 86.667 -29.5 155.167 -88.5 205.5s-143.5 75.5 -253.5 75.5h-175v-572z" />
    <glyph glyph-name="germandbls" unicode="&#xdf;" horiz-adv-x="1368" 
d="M613 -32v228.001h101c54 0 102.5 13.667 145.5 41s77 64.5 102 111.5s37.5 99.833 37.5 158.5c0 59.333 -12.5 112.5 -37.5 159.5s-58.833 84 -101.5 111s-91.334 40.5 -146.001 40.5h-101v194h101c47.333 0 89.833 11.667 127.5 35s67.5 55.166 89.5 95.499
s33 85.5 33 135.5c0 49.333 -11 93.666 -33 132.999s-51.833 70.5 -89.5 93.5s-79.834 34.5 -126.501 34.5c-44 0 -83.667 -11.167 -119 -33.5s-63 -53 -83 -92s-30 -83.833 -30 -134.5v-1279h-249v687h-132v196h132v388c0 90.667 21.333 172 64 244
s100.5 129.167 173.5 171.5s155.167 63.5 246.5 63.5c90.667 0 172.167 -20.5 244.5 -61.5s129.833 -96.833 172.5 -167.5s64 -149.667 64 -237c0 -80.667 -19.833 -152.5 -59.5 -215.5s-95.167 -112.5 -166.5 -148.5c60 -25.333 111.5 -59.166 154.5 -101.499
s76 -91.166 99 -146.499s34.5 -115.666 34.5 -180.999c0 -98.667 -23.667 -187.334 -71 -266.001s-112.166 -140.834 -194.499 -186.501s-176.166 -69.167 -281.499 -70.5h-101z" />
    <glyph glyph-name="agrave" unicode="&#xe0;" 
d="M624 -32c-94.667 0 -180.5 23.499 -257.5 70.499s-138 111.5 -183 193.5s-67.5 175.667 -67.5 281c0 104 21.833 196.833 65.5 278.5s103.834 146.167 180.501 193.5s164 71 262 71c80 0 153.667 -16.667 221 -50s120.666 -79.666 159.999 -138.999v157h249v-1024h-249
v164c-45.333 -62 -100.833 -110.167 -166.5 -144.5s-137.167 -51.5 -214.5 -51.5zM695 180.999c62 0 116.667 14.166 164 42.499s84.666 67.5 111.999 117.5s41 107 41 171c0 64.667 -13.667 121.834 -41 171.501s-64.666 88.667 -111.999 117s-102 42.5 -164 42.5
c-61.333 0 -116 -14.167 -164 -42.5s-85.667 -67.5 -113 -117.5s-41 -107 -41 -171s13.667 -121 41 -171s65 -89.167 113 -117.5s102.667 -42.5 164 -42.5zM850 1157l-308 378l173 129l246 -420z" />
    <glyph glyph-name="aacute" unicode="&#xe1;" 
d="M624 -32c-94.667 0 -180.5 23.499 -257.5 70.499s-138 111.5 -183 193.5s-67.5 175.667 -67.5 281c0 104 21.833 196.833 65.5 278.5s103.834 146.167 180.501 193.5s164 71 262 71c80 0 153.667 -16.667 221 -50s120.666 -79.666 159.999 -138.999v157h249v-1024h-249
v164c-45.333 -62 -100.833 -110.167 -166.5 -144.5s-137.167 -51.5 -214.5 -51.5zM695 180.999c62 0 116.667 14.166 164 42.499s84.666 67.5 111.999 117.5s41 107 41 171c0 64.667 -13.667 121.834 -41 171.501s-64.666 88.667 -111.999 117s-102 42.5 -164 42.5
c-61.333 0 -116 -14.167 -164 -42.5s-85.667 -67.5 -113 -117.5s-41 -107 -41 -171s13.667 -121 41 -171s65 -89.167 113 -117.5s102.667 -42.5 164 -42.5zM728 1157l-110 87l245 420l174 -129z" />
    <glyph glyph-name="acircumflex" unicode="&#xe2;" 
d="M624 -32c-94.667 0 -180.5 23.499 -257.5 70.499s-138 111.5 -183 193.5s-67.5 175.667 -67.5 281c0 104 21.833 196.833 65.5 278.5s103.834 146.167 180.501 193.5s164 71 262 71c80 0 153.667 -16.667 221 -50s120.666 -79.666 159.999 -138.999v157h249v-1024h-249
v164c-45.333 -62 -100.833 -110.167 -166.5 -144.5s-137.167 -51.5 -214.5 -51.5zM695 180.999c62 0 116.667 14.166 164 42.499s84.666 67.5 111.999 117.5s41 107 41 171c0 64.667 -13.667 121.834 -41 171.501s-64.666 88.667 -111.999 117s-102 42.5 -164 42.5
c-61.333 0 -116 -14.167 -164 -42.5s-85.667 -67.5 -113 -117.5s-41 -107 -41 -171s13.667 -121 41 -171s65 -89.167 113 -117.5s102.667 -42.5 164 -42.5zM458 1283l-97 132l403 296l404 -296l-98 -132l-306 224z" />
    <glyph glyph-name="atilde" unicode="&#xe3;" 
d="M624 -32c-94.667 0 -180.5 23.499 -257.5 70.499s-138 111.5 -183 193.5s-67.5 175.667 -67.5 281c0 104 21.833 196.833 65.5 278.5s103.834 146.167 180.501 193.5s164 71 262 71c80 0 153.667 -16.667 221 -50s120.666 -79.666 159.999 -138.999v157h249v-1024h-249
v164c-45.333 -62 -100.833 -110.167 -166.5 -144.5s-137.167 -51.5 -214.5 -51.5zM695 180.999c62 0 116.667 14.166 164 42.499s84.666 67.5 111.999 117.5s41 107 41 171c0 64.667 -13.667 121.834 -41 171.501s-64.666 88.667 -111.999 117s-102 42.5 -164 42.5
c-61.333 0 -116 -14.167 -164 -42.5s-85.667 -67.5 -113 -117.5s-41 -107 -41 -171s13.667 -121 41 -171s65 -89.167 113 -117.5s102.667 -42.5 164 -42.5zM967 1238c-38.667 0 -74.834 8.16699 -108.501 24.5s-66.5 35.166 -98.5 56.499s-64.333 40.166 -97 56.499
s-67.334 24.5 -104.001 24.5c-48.667 0 -88.5 -15.667 -119.5 -47s-54.833 -66 -71.5 -104l-127 112c33.333 64 77.5 118 132.5 162s115.833 66 182.5 66c42.667 0 83 -8.16699 121 -24.5s74.333 -35.166 109 -56.499s67.834 -40.333 99.501 -57s62.167 -25 91.5 -25
c37.333 0 72.833 14.667 106.5 44s59.167 65.333 76.5 108l127 -112c-23.333 -45.333 -53 -85.166 -89 -119.499s-74.167 -61 -114.5 -80s-79.166 -28.5 -116.499 -28.5z" />
    <glyph glyph-name="adieresis" unicode="&#xe4;" 
d="M624 -32c-94.667 0 -180.5 23.499 -257.5 70.499s-138 111.5 -183 193.5s-67.5 175.667 -67.5 281c0 104 21.833 196.833 65.5 278.5s103.834 146.167 180.501 193.5s164 71 262 71c80 0 153.667 -16.667 221 -50s120.666 -79.666 159.999 -138.999v157h249v-1024h-249
v164c-45.333 -62 -100.833 -110.167 -166.5 -144.5s-137.167 -51.5 -214.5 -51.5zM695 180.999c62 0 116.667 14.166 164 42.499s84.666 67.5 111.999 117.5s41 107 41 171c0 64.667 -13.667 121.834 -41 171.501s-64.666 88.667 -111.999 117s-102 42.5 -164 42.5
c-61.333 0 -116 -14.167 -164 -42.5s-85.667 -67.5 -113 -117.5s-41 -107 -41 -171s13.667 -121 41 -171s65 -89.167 113 -117.5s102.667 -42.5 164 -42.5zM1000 1293c-37.333 0 -69.333 13.333 -96 40s-40 58.667 -40 96c0 38 13.333 70.167 40 96.5s58.667 39.5 96 39.5
c38 0 70.167 -13.167 96.5 -39.5s39.5 -58.5 39.5 -96.5c0 -37.333 -13.167 -69.333 -39.5 -96s-58.5 -40 -96.5 -40zM528 1293c-37.333 0 -69.333 13.333 -96 40s-40 58.667 -40 96c0 38 13.333 70.167 40 96.5s58.667 39.5 96 39.5c38 0 70.167 -13.167 96.5 -39.5
s39.5 -58.5 39.5 -96.5c0 -37.333 -13.167 -69.333 -39.5 -96s-58.5 -40 -96.5 -40z" />
    <glyph glyph-name="aring" unicode="&#xe5;" 
d="M624 -32c-94.667 0 -180.5 23.499 -257.5 70.499s-138 111.5 -183 193.5s-67.5 175.667 -67.5 281c0 104 21.833 196.833 65.5 278.5s103.834 146.167 180.501 193.5s164 71 262 71c80 0 153.667 -16.667 221 -50s120.666 -79.666 159.999 -138.999v157h249v-1024h-249
v164c-45.333 -62 -100.833 -110.167 -166.5 -144.5s-137.167 -51.5 -214.5 -51.5zM695 180.999c62 0 116.667 14.166 164 42.499s84.666 67.5 111.999 117.5s41 107 41 171c0 64.667 -13.667 121.834 -41 171.501s-64.666 88.667 -111.999 117s-102 42.5 -164 42.5
c-61.333 0 -116 -14.167 -164 -42.5s-85.667 -67.5 -113 -117.5s-41 -107 -41 -171s13.667 -121 41 -171s65 -89.167 113 -117.5s102.667 -42.5 164 -42.5zM764 1252c-51.333 0 -98 10.333 -140 31s-75.333 49.5 -100 86.5s-37 79.167 -37 126.5v0
c0 47.333 12.333 89.5 37 126.5s58 65.833 100 86.5s88.667 31 140 31s97.833 -10.333 139.5 -31s74.834 -49.5 99.501 -86.5s37 -79.167 37 -126.5s-12.333 -89.5 -37 -126.5s-57.834 -65.833 -99.501 -86.5s-88.167 -31 -139.5 -31zM764 1374
c35.333 0 65.666 11.667 90.999 35s38 52.333 38 87s-12.667 63.667 -38 87s-55.666 35 -90.999 35s-65.833 -11.667 -91.5 -35s-38.5 -52.333 -38.5 -87v0c0 -34.667 12.833 -63.667 38.5 -87s56.167 -35 91.5 -35z" />
    <glyph glyph-name="ae" unicode="&#xe6;" horiz-adv-x="2004" 
d="M491 -32c-76.667 0 -144.332 12.998 -202.999 38.998s-104.334 62.833 -137.001 110.5s-49 104.5 -49 170.5c0 64.667 17 121.334 51 170.001s80.333 86.667 139 114s126 41 202 41c60.667 0 119 -9.33301 175 -28s103 -44.334 141 -77.001v99
c0 76.667 -25.5 137.5 -76.5 182.5s-117.5 67.5 -199.5 67.5c-34.667 0 -69.334 -4 -104.001 -12s-67 -18.833 -97 -32.5s-56.667 -29.167 -80 -46.5l-86 167c50.667 42.667 108.834 73.834 174.501 93.501s135.167 29.5 208.5 29.5c96.667 0 179.5 -18.333 248.5 -55
s119.833 -83 152.5 -139c48.667 59.333 108.167 106.5 178.5 141.5s146.5 52.5 228.5 52.5c103.333 0 195.5 -22.833 276.5 -68.5s144.833 -108.667 191.5 -189s70 -172.166 70 -275.499c0 -5.33301 -0.166992 -10.666 -0.5 -15.999s-0.833008 -14 -1.5 -26h-836
c0 -62 13.833 -116.667 41.5 -164s66.5 -84 116.5 -110s108.333 -39 175 -39c62 0 117 12.333 165 37s92 63 132 115l180 -93c-50 -82.667 -118 -146.5 -204 -191.5s-183.333 -67.5 -292 -67.5c-90 0 -172.167 17.333 -246.5 52s-137.833 84.667 -190.5 150
c-50 -44.667 -98.833 -81.834 -146.5 -111.501s-96 -52.167 -145 -67.5s-99.833 -23 -152.5 -23zM583.002 123.998c44 0 83.833 7.33398 119.5 22.001s64.167 35.167 85.5 61.5s32 56.833 32 91.5c0 35.333 -10.833 66 -32.5 92s-50.5 46.333 -86.5 61s-76.333 22 -121 22
c-42.667 0 -81.667 -7.16699 -117 -21.5s-63.5 -34.333 -84.5 -60s-31.5 -55.834 -31.5 -90.501c0 -35.333 10.667 -66.333 32 -93s49.833 -47.5 85.5 -62.5s75.167 -22.5 118.5 -22.5zM1065 619.999l586.998 0.000976562c-5.33301 52 -21.166 97.833 -47.499 137.5
s-60.5 70.667 -102.5 93s-89 33.5 -141 33.5c-53.333 0 -101.666 -11.333 -144.999 -34s-78.333 -53.834 -105 -93.501s-42 -85.167 -46 -136.5z" />
    <glyph glyph-name="ccedilla" unicode="&#xe7;" horiz-adv-x="1092" 
d="M671 -32c-77.333 0 -150.168 13.833 -218.501 41.5s-128.5 66.167 -180.5 115.5s-92.833 107 -122.5 173s-44.5 137.333 -44.5 214c0 74 14.167 143.833 42.5 209.5s68 123.5 119 173.5s111 89.333 180 118s143.5 43 223.5 43c66.667 0 130.5 -9.66699 191.5 -29
s111.5 -44.666 151.5 -75.999l-89 -168c-58.667 44.667 -131 67 -217 67c-70.667 0 -131.667 -15.5 -183 -46.5s-90.666 -72.333 -117.999 -124s-41 -107.5 -41 -167.5c0 -63.333 14.333 -120.5 43 -171.5s69 -91.5 121 -121.5s112 -45 180 -45c42 0 81.5 6 118.5 18
s68.833 28.333 95.5 49l90 -168c-40.667 -30.667 -91 -55.834 -151 -75.501s-123.667 -29.5 -191 -29.5zM625.998 -545c-56 0 -107.501 12.833 -154.501 38.5s-88.5 62.5 -124.5 110.5l101 74c44 -64 102 -96 174 -96c36.667 0 66.334 9.33301 89.001 28s34 42.667 34 72
c0 30 -12 54.167 -36 72.5s-55.667 27.5 -95 27.5c-20 0 -40.833 -2.5 -62.5 -7.5s-38.5 -11.167 -50.5 -18.5l-14 11l80 248h112l-48 -150c22.667 2 43.667 1.5 63 -1.5s37.333 -8.16699 54 -15.5c41.333 -9.33301 74.5 -29 99.5 -59s37.5 -67 37.5 -111
c0 -64.667 -24.167 -118 -72.5 -160s-110.5 -63 -186.5 -63z" />
    <glyph glyph-name="egrave" unicode="&#xe8;" horiz-adv-x="1308" 
d="M681 -32c-109.333 0 -207.167 23.6689 -293.5 71.002s-154.666 112 -204.999 194s-75.5 174.333 -75.5 277c0 76 14.333 147 43 213s68.334 124 119.001 174s109.667 89 177 117s140 42 218 42c106.667 0 200.167 -22 280.5 -66s143 -105.333 188 -184
s67.5 -170.334 67.5 -275.001c0 -8.66699 -0.333008 -15.834 -1 -21.501s-2 -15.167 -4 -28.5h-834c0 -62 14 -116.5 42 -163.5s67.167 -83.667 117.5 -110s108.166 -39.5 173.499 -39.5c62 0 117.167 12.5 165.5 37.5s92.166 63.167 131.499 114.5l181 -93
c-48.667 -81.333 -116.167 -144.833 -202.5 -190.5s-182.5 -68.5 -288.5 -68.5zM371.999 637.002h581.002c-8.66699 46.667 -26.334 87 -53.001 121s-60.334 60.5 -101.001 79.5s-86 28.5 -136 28.5c-52.667 0 -99.667 -9.33301 -141 -28s-75 -45 -101 -79
s-42.333 -74.667 -49 -122zM749.001 1144l-308 378l173 129l246 -420z" />
    <glyph glyph-name="eacute" unicode="&#xe9;" horiz-adv-x="1308" 
d="M681 -32c-109.333 0 -207.167 23.6689 -293.5 71.002s-154.666 112 -204.999 194s-75.5 174.333 -75.5 277c0 76 14.333 147 43 213s68.334 124 119.001 174s109.667 89 177 117s140 42 218 42c106.667 0 200.167 -22 280.5 -66s143 -105.333 188 -184
s67.5 -170.334 67.5 -275.001c0 -8.66699 -0.333008 -15.834 -1 -21.501s-2 -15.167 -4 -28.5h-834c0 -62 14 -116.5 42 -163.5s67.167 -83.667 117.5 -110s108.166 -39.5 173.499 -39.5c62 0 117.167 12.5 165.5 37.5s92.166 63.167 131.499 114.5l181 -93
c-48.667 -81.333 -116.167 -144.833 -202.5 -190.5s-182.5 -68.5 -288.5 -68.5zM371.999 637.002h581.002c-8.66699 46.667 -26.334 87 -53.001 121s-60.334 60.5 -101.001 79.5s-86 28.5 -136 28.5c-52.667 0 -99.667 -9.33301 -141 -28s-75 -45 -101 -79
s-42.333 -74.667 -49 -122zM628.001 1144l-110 87l245 420l174 -129z" />
    <glyph glyph-name="ecircumflex" unicode="&#xea;" horiz-adv-x="1308" 
d="M681 -32c-109.333 0 -207.167 23.6689 -293.5 71.002s-154.666 112 -204.999 194s-75.5 174.333 -75.5 277c0 76 14.333 147 43 213s68.334 124 119.001 174s109.667 89 177 117s140 42 218 42c106.667 0 200.167 -22 280.5 -66s143 -105.333 188 -184
s67.5 -170.334 67.5 -275.001c0 -8.66699 -0.333008 -15.834 -1 -21.501s-2 -15.167 -4 -28.5h-834c0 -62 14 -116.5 42 -163.5s67.167 -83.667 117.5 -110s108.166 -39.5 173.499 -39.5c62 0 117.167 12.5 165.5 37.5s92.166 63.167 131.499 114.5l181 -93
c-48.667 -81.333 -116.167 -144.833 -202.5 -190.5s-182.5 -68.5 -288.5 -68.5zM371.999 637.002h581.002c-8.66699 46.667 -26.334 87 -53.001 121s-60.334 60.5 -101.001 79.5s-86 28.5 -136 28.5c-52.667 0 -99.667 -9.33301 -141 -28s-75 -45 -101 -79
s-42.333 -74.667 -49 -122zM357.001 1270l-97 132l403 296l404 -296l-98 -132l-306 224z" />
    <glyph glyph-name="edieresis" unicode="&#xeb;" horiz-adv-x="1308" 
d="M681 -32c-109.333 0 -207.167 23.6689 -293.5 71.002s-154.666 112 -204.999 194s-75.5 174.333 -75.5 277c0 76 14.333 147 43 213s68.334 124 119.001 174s109.667 89 177 117s140 42 218 42c106.667 0 200.167 -22 280.5 -66s143 -105.333 188 -184
s67.5 -170.334 67.5 -275.001c0 -8.66699 -0.333008 -15.834 -1 -21.501s-2 -15.167 -4 -28.5h-834c0 -62 14 -116.5 42 -163.5s67.167 -83.667 117.5 -110s108.166 -39.5 173.499 -39.5c62 0 117.167 12.5 165.5 37.5s92.166 63.167 131.499 114.5l181 -93
c-48.667 -81.333 -116.167 -144.833 -202.5 -190.5s-182.5 -68.5 -288.5 -68.5zM371.999 637.002h581.002c-8.66699 46.667 -26.334 87 -53.001 121s-60.334 60.5 -101.001 79.5s-86 28.5 -136 28.5c-52.667 0 -99.667 -9.33301 -141 -28s-75 -45 -101 -79
s-42.333 -74.667 -49 -122zM899.001 1280c-37.333 0 -69.333 13.333 -96 40s-40 58.667 -40 96c0 38 13.333 70.167 40 96.5s58.667 39.5 96 39.5c38 0 70.167 -13.167 96.5 -39.5s39.5 -58.5 39.5 -96.5c0 -37.333 -13.167 -69.333 -39.5 -96s-58.5 -40 -96.5 -40z
M427.001 1280c-37.333 0 -69.333 13.333 -96 40s-40 58.667 -40 96c0 38 13.333 70.167 40 96.5s58.667 39.5 96 39.5c38 0 70.167 -13.167 96.5 -39.5s39.5 -58.5 39.5 -96.5c0 -37.333 -13.167 -69.333 -39.5 -96s-58.5 -40 -96.5 -40z" />
    <glyph glyph-name="igrave" unicode="&#xec;" horiz-adv-x="635" 
d="M193 0v1024h249v-1024h-249zM403 1126l-308 378l173 129l246 -420z" />
    <glyph glyph-name="iacute" unicode="&#xed;" horiz-adv-x="635" 
d="M193 0v1024h249v-1024h-249zM282 1126l-110 87l245 420l174 -129z" />
    <glyph glyph-name="icircumflex" unicode="&#xee;" horiz-adv-x="635" 
d="M193 0v1024h249v-1024h-249zM11 1252l-97 132l403 296l404 -296l-98 -132l-306 224z" />
    <glyph glyph-name="idieresis" unicode="&#xef;" horiz-adv-x="635" 
d="M193 0v1024h249v-1024h-249zM554 1262c-37.333 0 -69.333 13.333 -96 40s-40 58.667 -40 96c0 38 13.333 70.167 40 96.5s58.667 39.5 96 39.5c38 0 70.167 -13.167 96.5 -39.5s39.5 -58.5 39.5 -96.5c0 -37.333 -13.167 -69.333 -39.5 -96s-58.5 -40 -96.5 -40zM82 1262
c-37.333 0 -69.333 13.333 -96 40s-40 58.667 -40 96c0 38 13.333 70.167 40 96.5s58.667 39.5 96 39.5c38 0 70.167 -13.167 96.5 -39.5s39.5 -58.5 39.5 -96.5c0 -37.333 -13.167 -69.333 -39.5 -96s-58.5 -40 -96.5 -40z" />
    <glyph glyph-name="eth" unicode="&#xf0;" horiz-adv-x="1427" 
d="M703 -32c-116.667 0 -219.496 23.332 -308.496 69.999s-158.667 110.834 -209 192.501s-75.5 175.5 -75.5 281.5c0 89.333 16.667 168.166 50 236.499s77.833 126 133.5 173s117.5 82.5 185.5 106.5s137 36 207 36c50 0 95.833 -10.667 137.5 -32
s74.5 -50.666 98.5 -87.999c-30 88 -69.833 165.667 -119.5 233s-105.834 125 -168.501 173l-161 -161l-114 114l132 132c-40.667 24 -81.834 44.833 -123.501 62.5s-80.167 31.834 -115.5 42.501l61 210c54 -16 111 -36.167 171 -60.5s118.333 -53.166 175 -86.499l148 147
l113 -115l-121 -119c68.667 -50.667 132.667 -109.334 192 -176.001s111.666 -141.5 156.999 -224.5s80.666 -174.667 105.999 -275s38 -209.833 38 -328.5c0 -106 -25.5 -199.833 -76.5 -281.5s-121 -145.834 -210 -192.501s-189.833 -70 -302.5 -70zM701.004 181.999
c64 0 120.667 14.167 170 42.5s88.333 67.333 117 117s43 106.5 43 170.5c0 64.667 -14.5 121.834 -43.5 171.501s-68.333 88.667 -118 117s-105.834 42.5 -168.501 42.5s-119 -14.167 -169 -42.5s-89.5 -67.333 -118.5 -117s-43.5 -106.834 -43.5 -171.501
c0 -64 14.167 -120.833 42.5 -170.5s67.333 -88.667 117 -117s106.834 -42.5 171.501 -42.5z" />
    <glyph glyph-name="ntilde" unicode="&#xf1;" horiz-adv-x="1353" 
d="M193 0l-0.000976562 1024h249v-123c35.333 45.333 82.5 82.5 141.5 111.5s126.5 43.5 202.5 43.5c78.667 0 147.5 -16.833 206.5 -50.5s104.833 -81.167 137.5 -142.5s49 -134 49 -218v-645h-249v593c0 85.333 -21.167 151.166 -63.5 197.499s-100.833 69.5 -175.5 69.5
c-51.333 0 -95.666 -10.5 -132.999 -31.5s-66 -49 -86 -84s-30 -73.833 -30 -116.5v-628h-249zM902.999 1238c-38.667 0 -74.834 8.16699 -108.501 24.5s-66.5 35.166 -98.5 56.499s-64.333 40.166 -97 56.499s-67.334 24.5 -104.001 24.5
c-48.667 0 -88.5 -15.667 -119.5 -47s-54.833 -66 -71.5 -104l-127 112c33.333 64 77.5 118 132.5 162s115.833 66 182.5 66c42.667 0 83 -8.16699 121 -24.5s74.333 -35.166 109 -56.499s67.834 -40.333 99.501 -57s62.167 -25 91.5 -25c37.333 0 72.833 14.667 106.5 44
s59.167 65.333 76.5 108l127 -112c-23.333 -45.333 -53 -85.166 -89 -119.499s-74.167 -61 -114.5 -80s-79.166 -28.5 -116.499 -28.5z" />
    <glyph glyph-name="ograve" unicode="&#xf2;" horiz-adv-x="1392" 
d="M696 -32c-110.667 0 -210.5 23 -299.5 69s-159.5 110 -211.5 192s-78 176.333 -78 283c0 107.333 26 201.833 78 283.5s122.333 145.5 211 191.5s188.667 69 300 69c110.667 0 210.5 -23 299.5 -69s159.333 -109.833 211 -191.5s77.5 -176.167 77.5 -283.5
c0 -106.667 -25.833 -201 -77.5 -283s-122 -146 -211 -192s-188.833 -69 -299.5 -69zM696 182c62.667 0 118.834 14.167 168.501 42.5s88.834 67.333 117.501 117s43 106.5 43 170.5c0 64.667 -14.333 121.834 -43 171.501s-67.834 88.5 -117.501 116.5
s-105.834 42 -168.501 42c-62 0 -118 -14 -168 -42s-89.333 -66.833 -118 -116.5s-43 -106.834 -43 -171.501c0 -64 14.333 -120.833 43 -170.5s68 -88.667 118 -117s106 -42.5 168 -42.5zM782 1157l-308 378l173 129l246 -420z" />
    <glyph glyph-name="oacute" unicode="&#xf3;" horiz-adv-x="1392" 
d="M696 -32c-110.667 0 -210.5 23 -299.5 69s-159.5 110 -211.5 192s-78 176.333 -78 283c0 107.333 26 201.833 78 283.5s122.333 145.5 211 191.5s188.667 69 300 69c110.667 0 210.5 -23 299.5 -69s159.333 -109.833 211 -191.5s77.5 -176.167 77.5 -283.5
c0 -106.667 -25.833 -201 -77.5 -283s-122 -146 -211 -192s-188.833 -69 -299.5 -69zM696 182c62.667 0 118.834 14.167 168.501 42.5s88.834 67.333 117.501 117s43 106.5 43 170.5c0 64.667 -14.333 121.834 -43 171.501s-67.834 88.5 -117.501 116.5
s-105.834 42 -168.501 42c-62 0 -118 -14 -168 -42s-89.333 -66.833 -118 -116.5s-43 -106.834 -43 -171.501c0 -64 14.333 -120.833 43 -170.5s68 -88.667 118 -117s106 -42.5 168 -42.5zM660 1157l-110 87l245 420l174 -129z" />
    <glyph glyph-name="ocircumflex" unicode="&#xf4;" horiz-adv-x="1392" 
d="M696 -32c-110.667 0 -210.5 23 -299.5 69s-159.5 110 -211.5 192s-78 176.333 -78 283c0 107.333 26 201.833 78 283.5s122.333 145.5 211 191.5s188.667 69 300 69c110.667 0 210.5 -23 299.5 -69s159.333 -109.833 211 -191.5s77.5 -176.167 77.5 -283.5
c0 -106.667 -25.833 -201 -77.5 -283s-122 -146 -211 -192s-188.833 -69 -299.5 -69zM696 182c62.667 0 118.834 14.167 168.501 42.5s88.834 67.333 117.501 117s43 106.5 43 170.5c0 64.667 -14.333 121.834 -43 171.501s-67.834 88.5 -117.501 116.5
s-105.834 42 -168.501 42c-62 0 -118 -14 -168 -42s-89.333 -66.833 -118 -116.5s-43 -106.834 -43 -171.501c0 -64 14.333 -120.833 43 -170.5s68 -88.667 118 -117s106 -42.5 168 -42.5zM389 1283l-97 132l403 296l404 -296l-98 -132l-306 224z" />
    <glyph glyph-name="otilde" unicode="&#xf5;" horiz-adv-x="1392" 
d="M696 -32c-110.667 0 -210.5 23 -299.5 69s-159.5 110 -211.5 192s-78 176.333 -78 283c0 107.333 26 201.833 78 283.5s122.333 145.5 211 191.5s188.667 69 300 69c110.667 0 210.5 -23 299.5 -69s159.333 -109.833 211 -191.5s77.5 -176.167 77.5 -283.5
c0 -106.667 -25.833 -201 -77.5 -283s-122 -146 -211 -192s-188.833 -69 -299.5 -69zM696 182c62.667 0 118.834 14.167 168.501 42.5s88.834 67.333 117.501 117s43 106.5 43 170.5c0 64.667 -14.333 121.834 -43 171.501s-67.834 88.5 -117.501 116.5
s-105.834 42 -168.501 42c-62 0 -118 -14 -168 -42s-89.333 -66.833 -118 -116.5s-43 -106.834 -43 -171.501c0 -64 14.333 -120.833 43 -170.5s68 -88.667 118 -117s106 -42.5 168 -42.5zM899 1238c-38.667 0 -74.834 8.16699 -108.501 24.5s-66.5 35.166 -98.5 56.499
s-64.333 40.166 -97 56.499s-67.334 24.5 -104.001 24.5c-48.667 0 -88.5 -15.667 -119.5 -47s-54.833 -66 -71.5 -104l-127 112c33.333 64 77.5 118 132.5 162s115.833 66 182.5 66c42.667 0 83 -8.16699 121 -24.5s74.333 -35.166 109 -56.499s67.834 -40.333 99.501 -57
s62.167 -25 91.5 -25c37.333 0 72.833 14.667 106.5 44s59.167 65.333 76.5 108l127 -112c-23.333 -45.333 -53 -85.166 -89 -119.499s-74.167 -61 -114.5 -80s-79.166 -28.5 -116.499 -28.5z" />
    <glyph glyph-name="odieresis" unicode="&#xf6;" horiz-adv-x="1392" 
d="M696 -32c-110.667 0 -210.5 23 -299.5 69s-159.5 110 -211.5 192s-78 176.333 -78 283c0 107.333 26 201.833 78 283.5s122.333 145.5 211 191.5s188.667 69 300 69c110.667 0 210.5 -23 299.5 -69s159.333 -109.833 211 -191.5s77.5 -176.167 77.5 -283.5
c0 -106.667 -25.833 -201 -77.5 -283s-122 -146 -211 -192s-188.833 -69 -299.5 -69zM696 182c62.667 0 118.834 14.167 168.501 42.5s88.834 67.333 117.501 117s43 106.5 43 170.5c0 64.667 -14.333 121.834 -43 171.501s-67.834 88.5 -117.501 116.5
s-105.834 42 -168.501 42c-62 0 -118 -14 -168 -42s-89.333 -66.833 -118 -116.5s-43 -106.834 -43 -171.501c0 -64 14.333 -120.833 43 -170.5s68 -88.667 118 -117s106 -42.5 168 -42.5zM932 1293c-37.333 0 -69.333 13.333 -96 40s-40 58.667 -40 96
c0 38 13.333 70.167 40 96.5s58.667 39.5 96 39.5c38 0 70.167 -13.167 96.5 -39.5s39.5 -58.5 39.5 -96.5c0 -37.333 -13.167 -69.333 -39.5 -96s-58.5 -40 -96.5 -40zM460 1293c-37.333 0 -69.333 13.333 -96 40s-40 58.667 -40 96c0 38 13.333 70.167 40 96.5
s58.667 39.5 96 39.5c38 0 70.167 -13.167 96.5 -39.5s39.5 -58.5 39.5 -96.5c0 -37.333 -13.167 -69.333 -39.5 -96s-58.5 -40 -96.5 -40z" />
    <glyph glyph-name="divide" unicode="&#xf7;" horiz-adv-x="1345" 
d="M146 722v216h1026v-216h-1026zM659 238c-32.667 0 -60.667 12 -84 36s-35 53.333 -35 88c0 34 11.667 63 35 87s51.333 36 84 36c33.333 0 61.666 -12 84.999 -36s35 -53 35 -87c0 -34.667 -11.667 -64 -35 -88s-51.666 -36 -84.999 -36zM659 1176
c-32.667 0 -60.667 11.833 -84 35.5s-35 52.5 -35 86.5c0 34.667 11.667 64 35 88s51.333 36 84 36c33.333 0 61.666 -12 84.999 -36s35 -53.333 35 -88c0 -34 -11.667 -62.833 -35 -86.5s-51.666 -35.5 -84.999 -35.5z" />
    <glyph glyph-name="oslash" unicode="&#xf8;" horiz-adv-x="1392" 
d="M696 -32c-110.667 0 -210.5 23 -299.5 69s-159.5 110 -211.5 192s-78 176.333 -78 283c0 107.333 26 201.833 78 283.5s122.333 145.5 211 191.5s188.667 69 300 69c110.667 0 210.5 -23 299.5 -69s159.333 -109.833 211 -191.5s77.5 -176.167 77.5 -283.5
c0 -106.667 -25.833 -201 -77.5 -283s-122 -146 -211 -192s-188.833 -69 -299.5 -69zM696 182c62.667 0 118.834 14.167 168.501 42.5s88.834 67.333 117.501 117s43 106.5 43 170.5c0 64.667 -14.333 121.834 -43 171.501s-67.834 88.5 -117.501 116.5
s-105.834 42 -168.501 42c-62 0 -118 -14 -168 -42s-89.333 -66.833 -118 -116.5s-43 -106.834 -43 -171.501c0 -64 14.333 -120.833 43 -170.5s68 -88.667 118 -117s106 -42.5 168 -42.5zM187 -32l892 1088h125l-892 -1088h-125z" />
    <glyph glyph-name="ugrave" unicode="&#xf9;" horiz-adv-x="1328" 
d="M664 -32c-176 0 -302.333 36.167 -379 108.5s-115 191.833 -115 358.5v589h249v-533c0 -115.333 18.5 -197.333 55.5 -246s100.167 -73 189.5 -73s152.5 24.333 189.5 73s55.5 130.667 55.5 246v533h249v-589c0 -166.667 -38.333 -286.167 -115 -358.5
s-203 -108.5 -379 -108.5zM750 1126l-308 378l173 129l246 -420z" />
    <glyph glyph-name="uacute" unicode="&#xfa;" horiz-adv-x="1328" 
d="M664 -32c-176 0 -302.333 36.167 -379 108.5s-115 191.833 -115 358.5v589h249v-533c0 -115.333 18.5 -197.333 55.5 -246s100.167 -73 189.5 -73s152.5 24.333 189.5 73s55.5 130.667 55.5 246v533h249v-589c0 -166.667 -38.333 -286.167 -115 -358.5
s-203 -108.5 -379 -108.5zM629 1126l-110 87l245 420l174 -129z" />
    <glyph glyph-name="ucircumflex" unicode="&#xfb;" horiz-adv-x="1328" 
d="M664 -32c-176 0 -302.333 36.167 -379 108.5s-115 191.833 -115 358.5v589h249v-533c0 -115.333 18.5 -197.333 55.5 -246s100.167 -73 189.5 -73s152.5 24.333 189.5 73s55.5 130.667 55.5 246v533h249v-589c0 -166.667 -38.333 -286.167 -115 -358.5
s-203 -108.5 -379 -108.5zM358 1252l-97 132l403 296l404 -296l-98 -132l-306 224z" />
    <glyph glyph-name="udieresis" unicode="&#xfc;" horiz-adv-x="1328" 
d="M664 -32c-176 0 -302.333 36.167 -379 108.5s-115 191.833 -115 358.5v589h249v-533c0 -115.333 18.5 -197.333 55.5 -246s100.167 -73 189.5 -73s152.5 24.333 189.5 73s55.5 130.667 55.5 246v533h249v-589c0 -166.667 -38.333 -286.167 -115 -358.5
s-203 -108.5 -379 -108.5zM901 1262c-37.333 0 -69.333 13.333 -96 40s-40 58.667 -40 96c0 38 13.333 70.167 40 96.5s58.667 39.5 96 39.5c38 0 70.167 -13.167 96.5 -39.5s39.5 -58.5 39.5 -96.5c0 -37.333 -13.167 -69.333 -39.5 -96s-58.5 -40 -96.5 -40zM429 1262
c-37.333 0 -69.333 13.333 -96 40s-40 58.667 -40 96c0 38 13.333 70.167 40 96.5s58.667 39.5 96 39.5c38 0 70.167 -13.167 96.5 -39.5s39.5 -58.5 39.5 -96.5c0 -37.333 -13.167 -69.333 -39.5 -96s-58.5 -40 -96.5 -40z" />
    <glyph glyph-name="yacute" unicode="&#xfd;" horiz-adv-x="1251" 
d="M196 -520l302 611l-486 933h284l347 -690l307 690h284l-754 -1544h-284zM590 1126l-110 87l245 420l174 -129z" />
    <glyph glyph-name="thorn" unicode="&#xfe;" horiz-adv-x="1448" 
d="M193 -520l-0.000976562 2240h249v-853c41.333 59.333 94.833 105.666 160.5 138.999s138.834 50 219.501 50c99.333 0 187.166 -24 263.499 -72s136.5 -113 180.5 -195s66 -174.333 66 -277c0 -102 -22 -194.167 -66 -276.5s-104.167 -147.5 -180.5 -195.5
s-164.166 -72 -263.499 -72c-80.667 0 -154 18.167 -220 54.5s-119.333 83.5 -160 141.5v-684h-249zM751.999 181.001c62.667 0 118 14.167 166 42.5s85.5 67.5 112.5 117.5s40.5 107 40.5 171c0 64.667 -14 122 -42 172s-66 89 -114 117s-102.333 42 -163 42
c-59.333 0 -113 -14 -161 -42s-86 -67 -114 -117s-42 -107.333 -42 -172c0 -64 13.667 -121 41 -171s64.833 -89.167 112.5 -117.5s102.167 -42.5 163.5 -42.5z" />
    <glyph glyph-name="ydieresis" unicode="&#xff;" horiz-adv-x="1251" 
d="M196 -520l302 611l-486 933h284l347 -690l307 690h284l-754 -1544h-284zM862 1262c-37.333 0 -69.333 13.333 -96 40s-40 58.667 -40 96c0 38 13.333 70.167 40 96.5s58.667 39.5 96 39.5c38 0 70.167 -13.167 96.5 -39.5s39.5 -58.5 39.5 -96.5
c0 -37.333 -13.167 -69.333 -39.5 -96s-58.5 -40 -96.5 -40zM390 1262c-37.333 0 -69.333 13.333 -96 40s-40 58.667 -40 96c0 38 13.333 70.167 40 96.5s58.667 39.5 96 39.5c38 0 70.167 -13.167 96.5 -39.5s39.5 -58.5 39.5 -96.5c0 -37.333 -13.167 -69.333 -39.5 -96
s-58.5 -40 -96.5 -40z" />
    <glyph glyph-name="Amacron" unicode="&#x100;" horiz-adv-x="1662" 
d="M52 0l657 1650h243l658 -1650h-282l-162 430h-670l-163 -430h-281zM585 660h492l-247 638zM422 1928v171h816v-171h-816z" />
    <glyph glyph-name="amacron" unicode="&#x101;" 
d="M624 -32c-94.667 0 -180.5 23.499 -257.5 70.499s-138 111.5 -183 193.5s-67.5 175.667 -67.5 281c0 104 21.833 196.833 65.5 278.5s103.834 146.167 180.501 193.5s164 71 262 71c80 0 153.667 -16.667 221 -50s120.666 -79.666 159.999 -138.999v157h249v-1024h-249
v164c-45.333 -62 -100.833 -110.167 -166.5 -144.5s-137.167 -51.5 -214.5 -51.5zM695 180.999c62 0 116.667 14.166 164 42.499s84.666 67.5 111.999 117.5s41 107 41 171c0 64.667 -13.667 121.834 -41 171.501s-64.666 88.667 -111.999 117s-102 42.5 -164 42.5
c-61.333 0 -116 -14.167 -164 -42.5s-85.667 -67.5 -113 -117.5s-41 -107 -41 -171s13.667 -121 41 -171s65 -89.167 113 -117.5s102.667 -42.5 164 -42.5zM356 1334v171h816v-171h-816z" />
    <glyph glyph-name="Abreve" unicode="&#x102;" horiz-adv-x="1662" 
d="M52 0l657 1650h243l658 -1650h-282l-162 430h-670l-163 -430h-281zM585 660h492l-247 638zM830 1919c-78 0 -148.004 14.333 -210.004 43s-112.5 68.834 -151.5 120.501s-63.833 111.167 -74.5 178.5l180 44c6.66699 -40.667 20.5 -78 41.5 -112s49.333 -61.5 85 -82.5
s78.834 -31.5 129.501 -31.5s93.834 10.5 129.501 31.5s64.334 48.5 86.001 82.5s35.167 71.333 40.5 112l180 -44c-9.33301 -67.333 -33.666 -126.833 -72.999 -178.5s-90 -91.834 -152 -120.501s-132.333 -43 -211 -43z" />
    <glyph glyph-name="abreve" unicode="&#x103;" 
d="M624 -32c-94.667 0 -180.5 23.499 -257.5 70.499s-138 111.5 -183 193.5s-67.5 175.667 -67.5 281c0 104 21.833 196.833 65.5 278.5s103.834 146.167 180.501 193.5s164 71 262 71c80 0 153.667 -16.667 221 -50s120.666 -79.666 159.999 -138.999v157h249v-1024h-249
v164c-45.333 -62 -100.833 -110.167 -166.5 -144.5s-137.167 -51.5 -214.5 -51.5zM695 180.999c62 0 116.667 14.166 164 42.499s84.666 67.5 111.999 117.5s41 107 41 171c0 64.667 -13.667 121.834 -41 171.501s-64.666 88.667 -111.999 117s-102 42.5 -164 42.5
c-61.333 0 -116 -14.167 -164 -42.5s-85.667 -67.5 -113 -117.5s-41 -107 -41 -171s13.667 -121 41 -171s65 -89.167 113 -117.5s102.667 -42.5 164 -42.5zM764 1325c-78 0 -148.004 14.333 -210.004 43s-112.5 68.834 -151.5 120.501s-63.833 111.167 -74.5 178.5l180 44
c6.66699 -40.667 20.5 -78 41.5 -112s49.333 -61.5 85 -82.5s78.834 -31.5 129.501 -31.5s93.834 10.5 129.501 31.5s64.334 48.5 86.001 82.5s35.167 71.333 40.5 112l180 -44c-9.33301 -67.333 -33.666 -126.833 -72.999 -178.5s-90 -91.834 -152 -120.501
s-132.333 -43 -211 -43z" />
    <glyph glyph-name="Aogonek" unicode="&#x104;" horiz-adv-x="1662" 
d="M52 0l657 1650h243l658 -1650h-282l-162 430h-670l-163 -430h-281zM585 660h492l-247 638zM1563 -553c-72.667 0 -132.667 22 -180 66s-71 97 -71 159c0 46 15.167 97.5 45.5 154.5s73.833 116.833 130.5 179.5h123c-46 -52.667 -82.167 -106 -108.5 -160
s-39.5 -100.333 -39.5 -139c0 -33.333 10.167 -61.166 30.5 -83.499s50.833 -33.5 91.5 -33.5c28 0 54.333 6.5 79 19.5s47.667 32.833 69 59.5l105 -78c-30.667 -44.667 -70.667 -79.834 -120 -105.501s-101 -38.5 -155 -38.5z" />
    <glyph glyph-name="aogonek" unicode="&#x105;" 
d="M624 -32c-94.667 0 -180.5 23.499 -257.5 70.499s-138 111.5 -183 193.5s-67.5 175.667 -67.5 281c0 104 21.833 196.833 65.5 278.5s103.834 146.167 180.501 193.5s164 71 262 71c80 0 153.667 -16.667 221 -50s120.666 -79.666 159.999 -138.999v157h249v-1024h-249
v164c-45.333 -62 -100.833 -110.167 -166.5 -144.5s-137.167 -51.5 -214.5 -51.5zM695 180.999c62 0 116.667 14.166 164 42.499s84.666 67.5 111.999 117.5s41 107 41 171c0 64.667 -13.667 121.834 -41 171.501s-64.666 88.667 -111.999 117s-102 42.5 -164 42.5
c-61.333 0 -116 -14.167 -164 -42.5s-85.667 -67.5 -113 -117.5s-41 -107 -41 -171s13.667 -121 41 -171s65 -89.167 113 -117.5s102.667 -42.5 164 -42.5zM1207 -559.002c-72.667 0 -132.667 22 -180 66s-71 97 -71 159c0 46 15.167 97.5 45.5 154.5
s73.833 116.833 130.5 179.5h123c-46 -52.667 -82.167 -106 -108.5 -160s-39.5 -100.333 -39.5 -139c0 -33.333 10.167 -61.166 30.5 -83.499s50.833 -33.5 91.5 -33.5c28 0 54.333 6.5 79 19.5s47.667 32.833 69 59.5l105 -78
c-30.667 -44.667 -70.667 -79.834 -120 -105.501s-101 -38.5 -155 -38.5z" />
    <glyph glyph-name="Cacute" unicode="&#x106;" horiz-adv-x="1558" 
d="M976 -32c-124.667 0 -240.999 21.833 -348.999 65.5s-202.833 104.5 -284.5 182.5s-145.5 168.833 -191.5 272.5s-69 215.5 -69 335.5c0 119.333 23.167 231 69.5 335s110.166 195 191.499 273s175.833 138.833 283.5 182.5s223.5 65.5 347.5 65.5
c102 0 198.667 -14.667 290 -44s170.333 -68.333 237 -117l-115 -222c-50 40 -109.333 71 -178 93s-141 33 -217 33c-90 0 -173 -15.333 -249 -46s-142.167 -73.167 -198.5 -127.5s-99.833 -117.833 -130.5 -190.5s-46 -151 -46 -235s15.333 -162.333 46 -235
s74.167 -136.167 130.5 -190.5s122.5 -96.833 198.5 -127.5s159 -46 249 -46c76 0 148.333 11 217 33s128 53 178 93l115 -222c-64.667 -47.333 -142.5 -86 -233.5 -116s-188.167 -45 -291.5 -45zM939.001 1781l-110 87l245 420l174 -129z" />
    <glyph glyph-name="cacute" unicode="&#x107;" horiz-adv-x="1092" 
d="M671 -32c-77.333 0 -150.168 13.833 -218.501 41.5s-128.5 66.167 -180.5 115.5s-92.833 107 -122.5 173s-44.5 137.333 -44.5 214c0 74 14.167 143.833 42.5 209.5s68 123.5 119 173.5s111 89.333 180 118s143.5 43 223.5 43c66.667 0 130.5 -9.66699 191.5 -29
s111.5 -44.666 151.5 -75.999l-89 -168c-58.667 44.667 -131 67 -217 67c-70.667 0 -131.667 -15.5 -183 -46.5s-90.666 -72.333 -117.999 -124s-41 -107.5 -41 -167.5c0 -63.333 14.333 -120.5 43 -171.5s69 -91.5 121 -121.5s112 -45 180 -45c42 0 81.5 6 118.5 18
s68.833 28.333 95.5 49l90 -168c-40.667 -30.667 -91 -55.834 -151 -75.501s-123.667 -29.5 -191 -29.5zM596.998 1157l-110 87l245 420l174 -129z" />
    <glyph glyph-name="Cdotaccent" unicode="&#x10a;" horiz-adv-x="1558" 
d="M976 -32c-124.667 0 -240.999 21.833 -348.999 65.5s-202.833 104.5 -284.5 182.5s-145.5 168.833 -191.5 272.5s-69 215.5 -69 335.5c0 119.333 23.167 231 69.5 335s110.166 195 191.499 273s175.833 138.833 283.5 182.5s223.5 65.5 347.5 65.5
c102 0 198.667 -14.667 290 -44s170.333 -68.333 237 -117l-115 -222c-50 40 -109.333 71 -178 93s-141 33 -217 33c-90 0 -173 -15.333 -249 -46s-142.167 -73.167 -198.5 -127.5s-99.833 -117.833 -130.5 -190.5s-46 -151 -46 -235s15.333 -162.333 46 -235
s74.167 -136.167 130.5 -190.5s122.5 -96.833 198.5 -127.5s159 -46 249 -46c76 0 148.333 11 217 33s128 53 178 93l115 -222c-64.667 -47.333 -142.5 -86 -233.5 -116s-188.167 -45 -291.5 -45zM975.001 1982c-27.333 0 -52.5 6.83301 -75.5 20.5s-41.333 32 -55 55
s-20.5 48.5 -20.5 76.5c0 27.333 6.83301 52.333 20.5 75s32 40.834 55 54.5c23 13.667 48.167 20.5 75.5 20.5c28 0 53.333 -6.83301 76 -20.5s40.834 -31.834 54.501 -54.5c13.667 -22.667 20.5 -47.667 20.5 -75c0 -28 -6.83301 -53.5 -20.5 -76.5
s-31.834 -41.333 -54.501 -55s-48 -20.5 -76 -20.5z" />
    <glyph glyph-name="cdotaccent" unicode="&#x10b;" horiz-adv-x="1092" 
d="M671 -32c-77.333 0 -150.168 13.833 -218.501 41.5s-128.5 66.167 -180.5 115.5s-92.833 107 -122.5 173s-44.5 137.333 -44.5 214c0 74 14.167 143.833 42.5 209.5s68 123.5 119 173.5s111 89.333 180 118s143.5 43 223.5 43c66.667 0 130.5 -9.66699 191.5 -29
s111.5 -44.666 151.5 -75.999l-89 -168c-58.667 44.667 -131 67 -217 67c-70.667 0 -131.667 -15.5 -183 -46.5s-90.666 -72.333 -117.999 -124s-41 -107.5 -41 -167.5c0 -63.333 14.333 -120.5 43 -171.5s69 -91.5 121 -121.5s112 -45 180 -45c42 0 81.5 6 118.5 18
s68.833 28.333 95.5 49l90 -168c-40.667 -30.667 -91 -55.834 -151 -75.501s-123.667 -29.5 -191 -29.5zM633.998 1358c-27.333 0 -52.5 6.83301 -75.5 20.5s-41.333 32 -55 55s-20.5 48.5 -20.5 76.5c0 27.333 6.83301 52.333 20.5 75s32 40.834 55 54.501
s48.167 20.5 75.5 20.5c28 0 53.333 -6.83301 76 -20.5s40.834 -31.834 54.501 -54.501s20.5 -47.667 20.5 -75c0 -28 -6.83301 -53.5 -20.5 -76.5s-31.834 -41.333 -54.501 -55s-48 -20.5 -76 -20.5z" />
    <glyph glyph-name="Ccaron" unicode="&#x10c;" horiz-adv-x="1558" 
d="M976 -32c-124.667 0 -240.999 21.833 -348.999 65.5s-202.833 104.5 -284.5 182.5s-145.5 168.833 -191.5 272.5s-69 215.5 -69 335.5c0 119.333 23.167 231 69.5 335s110.166 195 191.499 273s175.833 138.833 283.5 182.5s223.5 65.5 347.5 65.5
c102 0 198.667 -14.667 290 -44s170.333 -68.333 237 -117l-115 -222c-50 40 -109.333 71 -178 93s-141 33 -217 33c-90 0 -173 -15.333 -249 -46s-142.167 -73.167 -198.5 -127.5s-99.833 -117.833 -130.5 -190.5s-46 -151 -46 -235s15.333 -162.333 46 -235
s74.167 -136.167 130.5 -190.5s122.5 -96.833 198.5 -127.5s159 -46 249 -46c76 0 148.333 11 217 33s128 53 178 93l115 -222c-64.667 -47.333 -142.5 -86 -233.5 -116s-188.167 -45 -291.5 -45zM974.001 1841l-403 297l97 132l306 -224l306 224l98 -132z" />
    <glyph glyph-name="ccaron" unicode="&#x10d;" horiz-adv-x="1092" 
d="M671 -32c-77.333 0 -150.168 13.833 -218.501 41.5s-128.5 66.167 -180.5 115.5s-92.833 107 -122.5 173s-44.5 137.333 -44.5 214c0 74 14.167 143.833 42.5 209.5s68 123.5 119 173.5s111 89.333 180 118s143.5 43 223.5 43c66.667 0 130.5 -9.66699 191.5 -29
s111.5 -44.666 151.5 -75.999l-89 -168c-58.667 44.667 -131 67 -217 67c-70.667 0 -131.667 -15.5 -183 -46.5s-90.666 -72.333 -117.999 -124s-41 -107.5 -41 -167.5c0 -63.333 14.333 -120.5 43 -171.5s69 -91.5 121 -121.5s112 -45 180 -45c42 0 81.5 6 118.5 18
s68.833 28.333 95.5 49l90 -168c-40.667 -30.667 -91 -55.834 -151 -75.501s-123.667 -29.5 -191 -29.5zM632.998 1217l-403 297l97 132l306 -224l306 224l98 -132z" />
    <glyph glyph-name="Dcaron" unicode="&#x10e;" horiz-adv-x="1621" 
d="M241 0l-0.000976562 1650h424c117.333 0 226.333 -21 327 -63s188.834 -100.5 264.501 -175.5s134.667 -162.667 177 -263s63.5 -208.5 63.5 -324.5s-21 -224 -63 -324s-100.833 -187.5 -176.5 -262.5s-164 -133.333 -265 -175s-210.167 -62.5 -327.5 -62.5h-424z
M502.999 235h134c82.667 0 159.167 14.667 229.5 44s131.666 70.666 183.999 123.999s93 115.833 122 187.5s43.5 149.834 43.5 234.501c0 84 -14.5 162 -43.5 234s-69.667 134.5 -122 187.5s-113.666 94.333 -183.999 124s-146.833 44.5 -229.5 44.5h-134v-1180z
M810.999 1811l-403 297l97 132l306 -224l306 224l98 -132z" />
    <glyph glyph-name="dcaron" unicode="&#x10f;" 
d="M622 -32c-93.333 0 -178.5 23.3311 -255.5 69.998s-138 111 -183 193s-67.5 175.667 -67.5 281c0 104.667 22.167 197.834 66.5 279.501s105 146.167 182 193.5s164.833 71 263.5 71c78.667 0 151 -16.667 217 -50s119.333 -79.666 160 -138.999v854h249v-1721h-249v164
c-44.667 -61.333 -100.167 -109.333 -166.5 -144s-138.5 -52 -216.5 -52zM694 180.998c62 0 116.833 14.167 164.5 42.5s85.167 67.333 112.5 117s41 106.5 41 170.5s-13.667 121.167 -41 171.5s-64.833 89.666 -112.5 117.999s-102.5 42.5 -164.5 42.5
c-60.667 0 -115 -14.167 -163 -42.5s-85.667 -67.666 -113 -117.999s-41 -107.833 -41 -172.5c0 -63.333 13.5 -119.833 40.5 -169.5s64.5 -88.667 112.5 -117s102.667 -42.5 164 -42.5zM643 1578l-403 297l97 132l306 -224l306 224l98 -132z" />
    <glyph glyph-name="Dcroat" unicode="&#x110;" horiz-adv-x="1662" 
d="M282 0v718.004h-164v214h164v718h423c113.333 0 220 -20.333 320 -61s188.5 -97.834 265.5 -171.501s137.333 -160.834 181 -261.501s65.5 -211 65.5 -331c0 -120.667 -21.833 -231.334 -65.5 -332.001s-103.834 -187.834 -180.501 -261.501
s-165.167 -130.667 -265.5 -171s-207.166 -60.5 -320.499 -60.5h-423zM543 235.004l134.002 -0.000976562c82.667 0 159.167 14.667 229.5 44s131.666 70.666 183.999 123.999s93.166 115.833 122.499 187.5s44 149.834 44 234.501c0 84 -14.5 161.667 -43.5 233
s-69.833 133.833 -122.5 187.5s-114.167 95.334 -184.5 125.001s-146.833 44.5 -229.5 44.5h-134v-483h333v-214h-333v-483z" />
    <glyph glyph-name="dcroat" unicode="&#x111;" 
d="M626 -32c-99.333 0 -187.332 23.999 -263.999 71.999s-136.834 113.167 -180.501 195.5s-65.5 174.5 -65.5 276.5v0c0 102.667 21.833 195 65.5 277s103.834 147 180.501 195s164.667 72 264 72c80.667 0 153.667 -16.667 219 -50s118.666 -79.666 159.999 -138.999v422
h-328v163h328v269h249v-269h147v-163h-147v-1289h-249v164c-40 -58 -93 -105.167 -159 -141.5s-139.333 -54.5 -220 -54.5zM695.001 180.999c61.333 0 115.832 14.166 163.499 42.499s85.167 67.333 112.5 117s41 106.834 41 171.501s-14 122 -42 172s-65.667 89 -113 117
s-101.333 42 -162 42c-60 0 -114.167 -14 -162.5 -42s-86.333 -66.833 -114 -116.5s-41.5 -107.167 -41.5 -172.5v0c0 -64 13.5 -121 40.5 -171s64.333 -89.167 112 -117.5s102.834 -42.5 165.501 -42.5z" />
    <glyph glyph-name="Emacron" unicode="&#x112;" horiz-adv-x="1300" 
d="M241 0v1650h887v-230h-625v-478h601v-230h-601v-482h625v-230h-887zM279 1928v171h816v-171h-816z" />
    <glyph glyph-name="emacron" unicode="&#x113;" horiz-adv-x="1308" 
d="M681 -32c-109.333 0 -207.167 23.6689 -293.5 71.002s-154.666 112 -204.999 194s-75.5 174.333 -75.5 277c0 76 14.333 147 43 213s68.334 124 119.001 174s109.667 89 177 117s140 42 218 42c106.667 0 200.167 -22 280.5 -66s143 -105.333 188 -184
s67.5 -170.334 67.5 -275.001c0 -8.66699 -0.333008 -15.834 -1 -21.501s-2 -15.167 -4 -28.5h-834c0 -62 14 -116.5 42 -163.5s67.167 -83.667 117.5 -110s108.166 -39.5 173.499 -39.5c62 0 117.167 12.5 165.5 37.5s92.166 63.167 131.499 114.5l181 -93
c-48.667 -81.333 -116.167 -144.833 -202.5 -190.5s-182.5 -68.5 -288.5 -68.5zM371.999 637.002h581.002c-8.66699 46.667 -26.334 87 -53.001 121s-60.334 60.5 -101.001 79.5s-86 28.5 -136 28.5c-52.667 0 -99.667 -9.33301 -141 -28s-75 -45 -101 -79
s-42.333 -74.667 -49 -122zM255.001 1321v171h816v-171h-816z" />
    <glyph glyph-name="Edotaccent" unicode="&#x116;" horiz-adv-x="1300" 
d="M241 0v1650h887v-230h-625v-478h601v-230h-601v-482h625v-230h-887zM687 1952c-27.333 0 -52.5 6.83301 -75.5 20.5s-41.333 32 -55 55s-20.5 48.5 -20.5 76.5c0 27.333 6.83301 52.333 20.5 75s32 40.834 55 54.5c23 13.667 48.167 20.5 75.5 20.5
c28 0 53.333 -6.83301 76 -20.5s40.834 -31.834 54.501 -54.5c13.667 -22.667 20.5 -47.667 20.5 -75c0 -28 -6.83301 -53.5 -20.5 -76.5s-31.834 -41.333 -54.501 -55s-48 -20.5 -76 -20.5z" />
    <glyph glyph-name="edotaccent" unicode="&#x117;" horiz-adv-x="1308" 
d="M681 -32c-109.333 0 -207.167 23.6689 -293.5 71.002s-154.666 112 -204.999 194s-75.5 174.333 -75.5 277c0 76 14.333 147 43 213s68.334 124 119.001 174s109.667 89 177 117s140 42 218 42c106.667 0 200.167 -22 280.5 -66s143 -105.333 188 -184
s67.5 -170.334 67.5 -275.001c0 -8.66699 -0.333008 -15.834 -1 -21.501s-2 -15.167 -4 -28.5h-834c0 -62 14 -116.5 42 -163.5s67.167 -83.667 117.5 -110s108.166 -39.5 173.499 -39.5c62 0 117.167 12.5 165.5 37.5s92.166 63.167 131.499 114.5l181 -93
c-48.667 -81.333 -116.167 -144.833 -202.5 -190.5s-182.5 -68.5 -288.5 -68.5zM371.999 637.002h581.002c-8.66699 46.667 -26.334 87 -53.001 121s-60.334 60.5 -101.001 79.5s-86 28.5 -136 28.5c-52.667 0 -99.667 -9.33301 -141 -28s-75 -45 -101 -79
s-42.333 -74.667 -49 -122zM664.001 1345c-27.333 0 -52.5 6.83301 -75.5 20.5s-41.333 32 -55 55s-20.5 48.5 -20.5 76.5c0 27.333 6.83301 52.333 20.5 75s32 40.834 55 54.501s48.167 20.5 75.5 20.5c28 0 53.333 -6.83301 76 -20.5s40.834 -31.834 54.501 -54.501
s20.5 -47.667 20.5 -75c0 -28 -6.83301 -53.5 -20.5 -76.5s-31.834 -41.333 -54.501 -55s-48 -20.5 -76 -20.5z" />
    <glyph glyph-name="Eogonek" unicode="&#x118;" horiz-adv-x="1300" 
d="M241 0v1650h887v-230h-625v-478h601v-230h-601v-482h625v-230h-887zM1080 -559c-72.667 0 -132.667 22 -180 66s-71 97 -71 159c0 46 15.167 97.5 45.5 154.5s73.833 116.833 130.5 179.5h123c-46 -52.667 -82.167 -106 -108.5 -160s-39.5 -100.333 -39.5 -139
c0 -33.333 10.167 -61.166 30.5 -83.499s50.833 -33.5 91.5 -33.5c28 0 54.333 6.5 79 19.5s47.667 32.833 69 59.5l105 -78c-30.667 -44.667 -70.667 -79.834 -120 -105.501s-101 -38.5 -155 -38.5z" />
    <glyph glyph-name="eogonek" unicode="&#x119;" horiz-adv-x="1308" 
d="M681 -32c-109.333 0 -207.167 23.6689 -293.5 71.002s-154.666 112 -204.999 194s-75.5 174.333 -75.5 277c0 76 14.333 147 43 213s68.334 124 119.001 174s109.667 89 177 117s140 42 218 42c106.667 0 200.167 -22 280.5 -66s143 -105.333 188 -184
s67.5 -170.334 67.5 -275.001c0 -8.66699 -0.333008 -15.834 -1 -21.501s-2 -15.167 -4 -28.5h-834c0 -62 14 -116.5 42 -163.5s67.167 -83.667 117.5 -110s108.166 -39.5 173.499 -39.5c62 0 117.167 12.5 165.5 37.5s92.166 63.167 131.499 114.5l181 -93
c-48.667 -81.333 -116.167 -144.833 -202.5 -190.5s-182.5 -68.5 -288.5 -68.5zM371.999 637.002h581.002c-8.66699 46.667 -26.334 87 -53.001 121s-60.334 60.5 -101.001 79.5s-86 28.5 -136 28.5c-52.667 0 -99.667 -9.33301 -141 -28s-75 -45 -101 -79
s-42.333 -74.667 -49 -122zM698.001 -552.998c-72.667 0 -132.667 22 -180 66s-71 97 -71 159c0 46 15.167 97.5 45.5 154.5s73.833 116.833 130.5 179.5h123c-46 -52.667 -82.167 -106 -108.5 -160s-39.5 -100.333 -39.5 -139c0 -33.333 10.167 -61.166 30.5 -83.499
s50.833 -33.5 91.5 -33.5c28 0 54.333 6.5 79 19.5s47.667 32.833 69 59.5l105 -78c-30.667 -44.667 -70.667 -79.834 -120 -105.501s-101 -38.5 -155 -38.5z" />
    <glyph glyph-name="Ecaron" unicode="&#x11a;" horiz-adv-x="1300" 
d="M241 0v1650h887v-230h-625v-478h601v-230h-601v-482h625v-230h-887zM686 1811l-403 297l97 132l306 -224l306 224l98 -132z" />
    <glyph glyph-name="ecaron" unicode="&#x11b;" horiz-adv-x="1308" 
d="M681 -32c-109.333 0 -207.167 23.6689 -293.5 71.002s-154.666 112 -204.999 194s-75.5 174.333 -75.5 277c0 76 14.333 147 43 213s68.334 124 119.001 174s109.667 89 177 117s140 42 218 42c106.667 0 200.167 -22 280.5 -66s143 -105.333 188 -184
s67.5 -170.334 67.5 -275.001c0 -8.66699 -0.333008 -15.834 -1 -21.501s-2 -15.167 -4 -28.5h-834c0 -62 14 -116.5 42 -163.5s67.167 -83.667 117.5 -110s108.166 -39.5 173.499 -39.5c62 0 117.167 12.5 165.5 37.5s92.166 63.167 131.499 114.5l181 -93
c-48.667 -81.333 -116.167 -144.833 -202.5 -190.5s-182.5 -68.5 -288.5 -68.5zM371.999 637.002h581.002c-8.66699 46.667 -26.334 87 -53.001 121s-60.334 60.5 -101.001 79.5s-86 28.5 -136 28.5c-52.667 0 -99.667 -9.33301 -141 -28s-75 -45 -101 -79
s-42.333 -74.667 -49 -122zM663.001 1204l-403 297l97 132l306 -224l306 224l98 -132z" />
    <glyph glyph-name="Gbreve" unicode="&#x11e;" horiz-adv-x="1818" 
d="M939 -32c-114 0 -219.997 21.832 -317.997 65.499s-183.833 104.334 -257.5 182.001s-131 168.5 -172 272.5s-61.5 216 -61.5 336c0 114 19 222.5 57 325.5s93 194.167 165 273.5s159.167 142 261.5 188s217.5 69 345.5 69c77.333 0 153 -9 227 -27
s143.833 -43.667 209.5 -77s124.834 -73.666 177.501 -120.999l-126 -202c-60 60 -133.333 107.167 -220 141.5s-175.334 51.5 -266.001 51.5c-87.333 0 -165 -15.667 -233 -47s-125.5 -75.166 -172.5 -131.499s-82.667 -121.333 -107 -195s-36.5 -152.834 -36.5 -237.501
c0 -91.333 13.667 -175.166 41 -251.499s65.5 -142.666 114.5 -198.999s106.167 -99.666 171.5 -129.999s135.666 -45.5 210.999 -45.5c61.333 0 120.666 10 177.999 30s108.666 48.667 153.999 86s81.333 81.666 108 132.999s40 108 40 170v36h-496v205h763v-213
c0 -106.667 -21.333 -202.334 -64 -287.001s-100.167 -156.834 -172.5 -216.501s-153.5 -105.334 -243.5 -137.001s-182.667 -47.5 -278 -47.5zM962.003 1936c-78 0 -148.004 14.333 -210.004 43s-112.5 68.834 -151.5 120.501s-63.833 111.167 -74.5 178.5l180 44
c6.66699 -40.667 20.5 -78 41.5 -112s49.333 -61.5 85 -82.5s78.834 -31.5 129.501 -31.5s93.834 10.5 129.501 31.5s64.334 48.5 86.001 82.5s35.167 71.333 40.5 112l180 -44c-9.33301 -67.333 -33.666 -126.833 -72.999 -178.5s-90 -91.834 -152 -120.501
s-132.333 -43 -211 -43z" />
    <glyph glyph-name="gbreve" unicode="&#x11f;" 
d="M671 -550c-134.667 0 -248.165 25.3291 -340.498 75.9961s-159.833 124.667 -202.5 222l204 98c29.333 -55.333 74.666 -99.5 135.999 -132.5s129 -49.5 203 -49.5c65.333 0 123 13 173 39s89.333 62.833 118 110.5s43 103.834 43 168.501v182
c-44 -61.333 -99.167 -109.333 -165.5 -144s-138.833 -52 -217.5 -52c-93.333 0 -178.333 23.333 -255 70s-137.667 111 -183 193s-68 175.667 -68 281c0 104.667 22.167 197.834 66.5 279.501s105 146.167 182 193.5s164.833 71 263.5 71
c78.667 0 151.167 -16.667 217.5 -50s119.5 -79.666 159.5 -138.999v157h249v-1052c0 -105.333 -21.833 -197.166 -65.5 -275.499s-108.834 -139 -195.501 -182s-194 -64.5 -322 -64.5zM693.002 180.996c62.667 0 118.001 14.167 166.001 42.5s85.667 67.333 113 117
s41 106.5 41 170.5s-13.833 121.167 -41.5 171.5s-65.334 89.666 -113.001 117.999s-102.167 42.5 -163.5 42.5s-116 -14.167 -164 -42.5s-85.667 -67.666 -113 -117.999s-41 -107.5 -41 -171.5s13.5 -120.833 40.5 -170.5s64.333 -88.667 112 -117
s102.167 -42.5 163.5 -42.5zM707.003 1308c-78 0 -148.004 14.333 -210.004 43s-112.5 68.834 -151.5 120.501s-63.833 111.167 -74.5 178.5l180 44c6.66699 -40.667 20.5 -78 41.5 -112s49.333 -61.5 85 -82.5s78.834 -31.5 129.501 -31.5s93.834 10.5 129.501 31.5
s64.334 48.5 86.001 82.5s35.167 71.333 40.5 112l180 -44c-9.33301 -67.333 -33.666 -126.833 -72.999 -178.5s-90 -91.834 -152 -120.501s-132.333 -43 -211 -43z" />
    <glyph glyph-name="Gdotaccent" unicode="&#x120;" horiz-adv-x="1818" 
d="M939 -32c-114 0 -219.997 21.832 -317.997 65.499s-183.833 104.334 -257.5 182.001s-131 168.5 -172 272.5s-61.5 216 -61.5 336c0 114 19 222.5 57 325.5s93 194.167 165 273.5s159.167 142 261.5 188s217.5 69 345.5 69c77.333 0 153 -9 227 -27
s143.833 -43.667 209.5 -77s124.834 -73.666 177.501 -120.999l-126 -202c-60 60 -133.333 107.167 -220 141.5s-175.334 51.5 -266.001 51.5c-87.333 0 -165 -15.667 -233 -47s-125.5 -75.166 -172.5 -131.499s-82.667 -121.333 -107 -195s-36.5 -152.834 -36.5 -237.501
c0 -91.333 13.667 -175.166 41 -251.499s65.5 -142.666 114.5 -198.999s106.167 -99.666 171.5 -129.999s135.666 -45.5 210.999 -45.5c61.333 0 120.666 10 177.999 30s108.666 48.667 153.999 86s81.333 81.666 108 132.999s40 108 40 170v36h-496v205h763v-213
c0 -106.667 -21.333 -202.334 -64 -287.001s-100.167 -156.834 -172.5 -216.501s-153.5 -105.334 -243.5 -137.001s-182.667 -47.5 -278 -47.5zM962.003 1969c-27.333 0 -52.5 6.83398 -75.5 20.501s-41.333 32 -55 55s-20.5 48.5 -20.5 76.5
c0 27.333 6.83301 52.333 20.5 75s32 40.834 55 54.5c23 13.667 48.167 20.5 75.5 20.5c28 0 53.333 -6.83301 76 -20.5s40.834 -31.834 54.501 -54.501s20.5 -47.667 20.5 -75c0 -28 -6.83301 -53.5 -20.5 -76.5s-31.834 -41.333 -54.501 -55s-48 -20.5 -76 -20.5z" />
    <glyph glyph-name="gdotaccent" unicode="&#x121;" 
d="M671 -550c-134.667 0 -248.165 25.3291 -340.498 75.9961s-159.833 124.667 -202.5 222l204 98c29.333 -55.333 74.666 -99.5 135.999 -132.5s129 -49.5 203 -49.5c65.333 0 123 13 173 39s89.333 62.833 118 110.5s43 103.834 43 168.501v182
c-44 -61.333 -99.167 -109.333 -165.5 -144s-138.833 -52 -217.5 -52c-93.333 0 -178.333 23.333 -255 70s-137.667 111 -183 193s-68 175.667 -68 281c0 104.667 22.167 197.834 66.5 279.501s105 146.167 182 193.5s164.833 71 263.5 71
c78.667 0 151.167 -16.667 217.5 -50s119.5 -79.666 159.5 -138.999v157h249v-1052c0 -105.333 -21.833 -197.166 -65.5 -275.499s-108.834 -139 -195.501 -182s-194 -64.5 -322 -64.5zM693.002 180.996c62.667 0 118.001 14.167 166.001 42.5s85.667 67.333 113 117
s41 106.5 41 170.5s-13.833 121.167 -41.5 171.5s-65.334 89.666 -113.001 117.999s-102.167 42.5 -163.5 42.5s-116 -14.167 -164 -42.5s-85.667 -67.666 -113 -117.999s-41 -107.5 -41 -171.5s13.5 -120.833 40.5 -170.5s64.333 -88.667 112 -117
s102.167 -42.5 163.5 -42.5zM708.003 1341c-27.333 0 -52.5 6.83301 -75.5 20.5s-41.333 32 -55 55s-20.5 48.5 -20.5 76.5c0 27.333 6.83301 52.333 20.5 75s32 40.834 55 54.501s48.167 20.5 75.5 20.5c28 0 53.333 -6.83301 76 -20.5s40.834 -31.834 54.501 -54.501
s20.5 -47.667 20.5 -75c0 -28 -6.83301 -53.5 -20.5 -76.5s-31.834 -41.333 -54.501 -55s-48 -20.5 -76 -20.5z" />
    <glyph glyph-name="uni0122" unicode="&#x122;" horiz-adv-x="1818" 
d="M939 -32c-114 0 -219.997 21.832 -317.997 65.499s-183.833 104.334 -257.5 182.001s-131 168.5 -172 272.5s-61.5 216 -61.5 336c0 114 19 222.5 57 325.5s93 194.167 165 273.5s159.167 142 261.5 188s217.5 69 345.5 69c77.333 0 153 -9 227 -27
s143.833 -43.667 209.5 -77s124.834 -73.666 177.501 -120.999l-126 -202c-60 60 -133.333 107.167 -220 141.5s-175.334 51.5 -266.001 51.5c-87.333 0 -165 -15.667 -233 -47s-125.5 -75.166 -172.5 -131.499s-82.667 -121.333 -107 -195s-36.5 -152.834 -36.5 -237.501
c0 -91.333 13.667 -175.166 41 -251.499s65.5 -142.666 114.5 -198.999s106.167 -99.666 171.5 -129.999s135.666 -45.5 210.999 -45.5c61.333 0 120.666 10 177.999 30s108.666 48.667 153.999 86s81.333 81.666 108 132.999s40 108 40 170v36h-496v205h763v-213
c0 -106.667 -21.333 -202.334 -64 -287.001s-100.167 -156.834 -172.5 -216.501s-153.5 -105.334 -243.5 -137.001s-182.667 -47.5 -278 -47.5zM945.003 -502.001l-36.998 31c15.333 18 29.666 42.167 42.999 72.5s21 60.833 23 91.5c-22.667 4 -41.334 14.5 -56.001 31.5
s-22 37.167 -22 60.5c0 28 9 50.833 27 68.5s41.333 26.5 70 26.5c29.333 0 52.666 -9.33301 69.999 -28s26 -46.667 26 -84c0 -45.333 -13.167 -93 -39.5 -143s-61.166 -92.333 -104.499 -127z" />
    <glyph glyph-name="uni0123" unicode="&#x123;" 
d="M671 -550c-134.667 0 -248.165 25.3291 -340.498 75.9961s-159.833 124.667 -202.5 222l204 98c29.333 -55.333 74.666 -99.5 135.999 -132.5s129 -49.5 203 -49.5c65.333 0 123 13 173 39s89.333 62.833 118 110.5s43 103.834 43 168.501v182
c-44 -61.333 -99.167 -109.333 -165.5 -144s-138.833 -52 -217.5 -52c-93.333 0 -178.333 23.333 -255 70s-137.667 111 -183 193s-68 175.667 -68 281c0 104.667 22.167 197.834 66.5 279.501s105 146.167 182 193.5s164.833 71 263.5 71
c78.667 0 151.167 -16.667 217.5 -50s119.5 -79.666 159.5 -138.999v157h249v-1052c0 -105.333 -21.833 -197.166 -65.5 -275.499s-108.834 -139 -195.501 -182s-194 -64.5 -322 -64.5zM693.002 180.996c62.667 0 118.001 14.167 166.001 42.5s85.667 67.333 113 117
s41 106.5 41 170.5s-13.833 121.167 -41.5 171.5s-65.334 89.666 -113.001 117.999s-102.167 42.5 -163.5 42.5s-116 -14.167 -164 -42.5s-85.667 -67.666 -113 -117.999s-41 -107.5 -41 -171.5s13.5 -120.833 40.5 -170.5s64.333 -88.667 112 -117
s102.167 -42.5 163.5 -42.5zM718.003 1343c-37.333 0 -66.501 9.16797 -87.501 27.501s-31.5 44.166 -31.5 77.499c0 42 15.167 86 45.5 132s71.166 85.667 122.499 119l63 -30c-17.333 -15.333 -33.666 -37 -48.999 -65s-24.666 -55.667 -27.999 -83
c27.333 -4 49 -14 65 -30s24 -35 24 -57c0 -26 -11.5 -47.667 -34.5 -65s-52.833 -26 -89.5 -26z" />
    <glyph glyph-name="Hbar" unicode="&#x126;" horiz-adv-x="1725" 
d="M241 0v1650h262v-800h719v800h261v-1650h-261v669h-719v-669h-262zM109 1067v180h1514v-180h-1514z" />
    <glyph glyph-name="hbar" unicode="&#x127;" horiz-adv-x="1353" 
d="M193 0l-0.000976562 1721h249v-820c35.333 45.333 82.5 82.5 141.5 111.5s126.5 43.5 202.5 43.5c78.667 0 147.5 -16.833 206.5 -50.5s104.833 -81.167 137.5 -142.5s49 -134 49 -218v-645h-249v593c0 85.333 -21.167 151.166 -63.5 197.499s-100.833 69.5 -175.5 69.5
c-51.333 0 -95.666 -10.5 -132.999 -31.5s-66 -49 -86 -84s-30 -73.833 -30 -116.5v-628h-249zM52.999 1274v155h611v-155h-611z" />
    <glyph glyph-name="Imacron" unicode="&#x12a;" horiz-adv-x="744" 
d="M241 0v1650h262v-1650h-262zM-36 1928v171h816v-171h-816z" />
    <glyph glyph-name="imacron" unicode="&#x12b;" horiz-adv-x="635" 
d="M193 0v1024h249v-1024h-249zM-90 1303v171h816v-171h-816z" />
    <glyph glyph-name="Iogonek" unicode="&#x12e;" horiz-adv-x="744" 
d="M241 0v1650h262v-1650h-262zM455 -559c-72.667 0 -132.667 22 -180 66s-71 97 -71 159c0 46 15.167 97.5 45.5 154.5s73.833 116.833 130.5 179.5h123c-46 -52.667 -82.167 -106 -108.5 -160s-39.5 -100.333 -39.5 -139c0 -33.333 10.167 -61.166 30.5 -83.499
s50.833 -33.5 91.5 -33.5c28 0 54.333 6.5 79 19.5s47.667 32.833 69 59.5l105 -78c-30.667 -44.667 -70.667 -79.834 -120 -105.501s-101 -38.5 -155 -38.5z" />
    <glyph glyph-name="iogonek" unicode="&#x12f;" horiz-adv-x="635" 
d="M193 0v1024h249v-1024h-249zM318 1327c-27.333 0 -52.5 6.83301 -75.5 20.5s-41.333 32 -55 55s-20.5 48.5 -20.5 76.5c0 27.333 6.83301 52.333 20.5 75s32 40.834 55 54.501s48.167 20.5 75.5 20.5c28 0 53.333 -6.83301 76 -20.5s40.834 -31.834 54.501 -54.501
s20.5 -47.667 20.5 -75c0 -28 -6.83301 -53.5 -20.5 -76.5s-31.834 -41.333 -54.501 -55s-48 -20.5 -76 -20.5zM395 -559c-72.667 0 -132.667 22 -180 66s-71 97 -71 159c0 46 15.167 97.5 45.5 154.5s73.833 116.833 130.5 179.5h123c-46 -52.667 -82.167 -106 -108.5 -160
s-39.5 -100.333 -39.5 -139c0 -33.333 10.167 -61.166 30.5 -83.499s50.833 -33.5 91.5 -33.5c28 0 54.333 6.5 79 19.5s47.667 32.833 69 59.5l105 -78c-30.667 -44.667 -70.667 -79.834 -120 -105.501s-101 -38.5 -155 -38.5z" />
    <glyph glyph-name="Idotaccent" unicode="&#x130;" horiz-adv-x="744" 
d="M241 0v1650h262v-1650h-262zM372 1952c-27.333 0 -52.5 6.83301 -75.5 20.5s-41.333 32 -55 55s-20.5 48.5 -20.5 76.5c0 27.333 6.83301 52.333 20.5 75s32 40.834 55 54.5c23 13.667 48.167 20.5 75.5 20.5c28 0 53.333 -6.83301 76 -20.5s40.834 -31.834 54.501 -54.5
c13.667 -22.667 20.5 -47.667 20.5 -75c0 -28 -6.83301 -53.5 -20.5 -76.5s-31.834 -41.333 -54.501 -55s-48 -20.5 -76 -20.5z" />
    <glyph glyph-name="dotlessi" unicode="&#x131;" horiz-adv-x="635" 
d="M193 0v1024h249v-1024h-249z" />
    <glyph glyph-name="uni0136" unicode="&#x136;" horiz-adv-x="1596" 
d="M241 0v1650h262v-713l654 713h322l-739 -802l833 -848h-363l-707 716v-716h-262zM755 -499l-36.998 31c15.333 18 29.666 42.167 42.999 72.5s21 60.833 23 91.5c-22.667 4 -41.334 14.5 -56.001 31.5s-22 37.167 -22 60.5c0 28 9 50.833 27 68.5s41.333 26.5 70 26.5
c29.333 0 52.666 -9.33301 69.999 -28s26 -46.667 26 -84c0 -45.333 -13.167 -93 -39.5 -143s-61.166 -92.333 -104.499 -127z" />
    <glyph glyph-name="uni0137" unicode="&#x137;" horiz-adv-x="1226" 
d="M193 0v1720h249v-1087l390 391h323l-489 -495l512 -529h-320l-416 434v-434h-249zM566 -499l-36.998 31c15.333 18 29.666 42.167 42.999 72.5s21 60.833 23 91.5c-22.667 4 -41.334 14.5 -56.001 31.5s-22 37.167 -22 60.5c0 28 9 50.833 27 68.5s41.333 26.5 70 26.5
c29.333 0 52.666 -9.33301 69.999 -28s26 -46.667 26 -84c0 -45.333 -13.167 -93 -39.5 -143s-61.166 -92.333 -104.499 -127z" />
    <glyph glyph-name="Lacute" unicode="&#x139;" horiz-adv-x="1198" 
d="M241 0v1650h262v-1420h630v-230h-892zM656 1751l-110 87l245 420l174 -129z" />
    <glyph glyph-name="lacute" unicode="&#x13a;" horiz-adv-x="635" 
d="M193 0v1720h249v-1720h-249zM282 1821l-110 87l245 420l174 -129z" />
    <glyph glyph-name="uni013B" unicode="&#x13b;" horiz-adv-x="1198" 
d="M241 0v1650h262v-1420h630v-230h-892zM629 -499l-36.998 31c15.333 18 29.666 42.167 42.999 72.5s21 60.833 23 91.5c-22.667 4 -41.334 14.5 -56.001 31.5s-22 37.167 -22 60.5c0 28 9 50.833 27 68.5s41.333 26.5 70 26.5c29.333 0 52.666 -9.33301 69.999 -28
s26 -46.667 26 -84c0 -45.333 -13.167 -93 -39.5 -143s-61.166 -92.333 -104.499 -127z" />
    <glyph glyph-name="uni013C" unicode="&#x13c;" horiz-adv-x="635" 
d="M193 0v1720h249v-1720h-249zM270 -499l-36.998 31c15.333 18 29.666 42.167 42.999 72.5s21 60.833 23 91.5c-22.667 4 -41.334 14.5 -56.001 31.5s-22 37.167 -22 60.5c0 28 9 50.833 27 68.5s41.333 26.5 70 26.5c29.333 0 52.666 -9.33301 69.999 -28
s26 -46.667 26 -84c0 -45.333 -13.167 -93 -39.5 -143s-61.166 -92.333 -104.499 -127z" />
    <glyph glyph-name="Lcaron" unicode="&#x13d;" horiz-adv-x="1198" 
d="M241 0v1650h262v-1420h630v-230h-892zM691 1811l-403 297l97 132l306 -224l306 224l98 -132z" />
    <glyph glyph-name="lcaron" unicode="&#x13e;" horiz-adv-x="635" 
d="M193 0v1720h249v-1720h-249zM317 1881l-403 297l97 132l306 -224l306 224l98 -132z" />
    <glyph glyph-name="Lslash" unicode="&#x141;" horiz-adv-x="1237" 
d="M280 0v662l-157 -123v214l157 123v774h263v-568l211 166v-212l-211 -167v-639h629v-230h-892z" />
    <glyph glyph-name="lslash" unicode="&#x142;" horiz-adv-x="713" 
d="M262 0v713l-166 -130v218l166 130v789h249v-593l166 130v-218l-166 -130v-909h-249z" />
    <glyph glyph-name="Nacute" unicode="&#x143;" horiz-adv-x="1780" 
d="M241 0v1650h262l774 -1211v1211h262v-1650h-262l-774 1210v-1210h-262zM854 1751l-110 87l245 420l174 -129z" />
    <glyph glyph-name="nacute" unicode="&#x144;" horiz-adv-x="1353" 
d="M193 0l-0.000976562 1024h249v-123c35.333 45.333 82.5 82.5 141.5 111.5s126.5 43.5 202.5 43.5c78.667 0 147.5 -16.833 206.5 -50.5s104.833 -81.167 137.5 -142.5s49 -134 49 -218v-645h-249v593c0 85.333 -21.167 151.166 -63.5 197.499s-100.833 69.5 -175.5 69.5
c-51.333 0 -95.666 -10.5 -132.999 -31.5s-66 -49 -86 -84s-30 -73.833 -30 -116.5v-628h-249zM663.999 1157l-110 87l245 420l174 -129z" />
    <glyph glyph-name="uni0145" unicode="&#x145;" horiz-adv-x="1780" 
d="M241 0v1650h262l774 -1211v1211h262v-1650h-262l-774 1210v-1210h-262zM842 -499l-36.998 31c15.333 18 29.666 42.167 42.999 72.5s21 60.833 23 91.5c-22.667 4 -41.334 14.5 -56.001 31.5s-22 37.167 -22 60.5c0 28 9 50.833 27 68.5s41.333 26.5 70 26.5
c29.333 0 52.666 -9.33301 69.999 -28s26 -46.667 26 -84c0 -45.333 -13.167 -93 -39.5 -143s-61.166 -92.333 -104.499 -127z" />
    <glyph glyph-name="uni0146" unicode="&#x146;" horiz-adv-x="1353" 
d="M193 0l-0.000976562 1024h249v-123c35.333 45.333 82.5 82.5 141.5 111.5s126.5 43.5 202.5 43.5c78.667 0 147.5 -16.833 206.5 -50.5s104.833 -81.167 137.5 -142.5s49 -134 49 -218v-645h-249v593c0 85.333 -21.167 151.166 -63.5 197.499s-100.833 69.5 -175.5 69.5
c-51.333 0 -95.666 -10.5 -132.999 -31.5s-66 -49 -86 -84s-30 -73.833 -30 -116.5v-628h-249zM628.999 -498.999l-36.998 31c15.333 18 29.666 42.167 42.999 72.5s21 60.833 23 91.5c-22.667 4 -41.334 14.5 -56.001 31.5s-22 37.167 -22 60.5c0 28 9 50.833 27 68.5
s41.333 26.5 70 26.5c29.333 0 52.666 -9.33301 69.999 -28s26 -46.667 26 -84c0 -45.333 -13.167 -93 -39.5 -143s-61.166 -92.333 -104.499 -127z" />
    <glyph glyph-name="Ncaron" unicode="&#x147;" horiz-adv-x="1780" 
d="M241 0v1650h262l774 -1211v1211h262v-1650h-262l-774 1210v-1210h-262zM890 1811l-403 297l97 132l306 -224l306 224l98 -132z" />
    <glyph glyph-name="ncaron" unicode="&#x148;" horiz-adv-x="1353" 
d="M193 0l-0.000976562 1024h249v-123c35.333 45.333 82.5 82.5 141.5 111.5s126.5 43.5 202.5 43.5c78.667 0 147.5 -16.833 206.5 -50.5s104.833 -81.167 137.5 -142.5s49 -134 49 -218v-645h-249v593c0 85.333 -21.167 151.166 -63.5 197.499s-100.833 69.5 -175.5 69.5
c-51.333 0 -95.666 -10.5 -132.999 -31.5s-66 -49 -86 -84s-30 -73.833 -30 -116.5v-628h-249zM699.999 1217l-403 297l97 132l306 -224l306 224l98 -132z" />
    <glyph glyph-name="Eng" unicode="&#x14a;" horiz-adv-x="1762" 
d="M1046 -551c-78.667 0 -149.499 12.5 -212.499 37.5s-122.167 64.167 -177.5 117.5l91 217c44 -42 87.667 -72.833 131 -92.5s86.666 -29.5 129.999 -29.5c86 0 152.333 25.5 199 76.5s70 120.833 70 209.5v15l-774 1210v-1210h-262v1650h262l774 -1211v1211h262v-1705
c0 -156.667 -43.667 -278.5 -131 -365.5s-208 -130.5 -362 -130.5z" />
    <glyph glyph-name="eng" unicode="&#x14b;" horiz-adv-x="1346" 
d="M852 -550c-42 0 -84.168 5.16895 -126.501 15.502s-76.166 24.166 -101.499 41.499l76 201c31.333 -23.333 65.666 -35 102.999 -35c84.667 0 127 58.333 127 175v743c0 50 -9.5 95.333 -28.5 136s-46.5 73 -82.5 97s-79.667 36 -131 36
c-44.667 0 -85.667 -9.33301 -123 -28s-67.166 -45.5 -89.499 -80.5s-33.5 -76.167 -33.5 -123.5v-628h-249v1024h249v-123c35.333 47.333 83.333 85 144 113s125.334 42 194.001 42c78 0 147 -17.833 207 -53.5s107 -84.334 141 -146.001s51 -131.5 51 -209.5v-839
c0 -112 -28.333 -199.667 -85 -263s-137.334 -95 -242.001 -95z" />
    <glyph glyph-name="Omacron" unicode="&#x14c;" horiz-adv-x="1919" 
d="M959 -32c-115.333 0 -223.333 22 -324 66s-189 105.167 -265 183.5s-135.5 169.333 -178.5 273s-64.5 214.834 -64.5 333.501c0 119.333 21.5 230.666 64.5 333.999s102.5 194.166 178.5 272.499s164.333 139.5 265 183.5s208.667 66 324 66s223.333 -22 324 -66
s189 -105.167 265 -183.5s135.5 -169.166 178.5 -272.499s64.5 -214.666 64.5 -333.999c0 -118.667 -21.5 -229.834 -64.5 -333.501s-102.5 -194.667 -178.5 -273s-164.333 -139.5 -265 -183.5s-208.667 -66 -324 -66zM959 220c78.667 0 151.5 15.167 218.5 45.5
s125.333 72.666 175 126.999s88.167 118.166 115.5 191.499s41 153.333 41 240s-13.667 166.667 -41 240s-65.833 137.166 -115.5 191.499s-108 96.666 -175 126.999s-139.833 45.5 -218.5 45.5c-78 0 -150.5 -15.167 -217.5 -45.5s-125.333 -72.666 -175 -126.999
s-88.167 -118.166 -115.5 -191.499s-41 -153.333 -41 -240s13.667 -166.667 41 -240s65.833 -137.166 115.5 -191.499s108 -96.666 175 -126.999s139.5 -45.5 217.5 -45.5zM551 1945v171h816v-171h-816z" />
    <glyph glyph-name="omacron" unicode="&#x14d;" horiz-adv-x="1392" 
d="M696 -32c-110.667 0 -210.5 23 -299.5 69s-159.5 110 -211.5 192s-78 176.333 -78 283c0 107.333 26 201.833 78 283.5s122.333 145.5 211 191.5s188.667 69 300 69c110.667 0 210.5 -23 299.5 -69s159.333 -109.833 211 -191.5s77.5 -176.167 77.5 -283.5
c0 -106.667 -25.833 -201 -77.5 -283s-122 -146 -211 -192s-188.833 -69 -299.5 -69zM696 182c62.667 0 118.834 14.167 168.501 42.5s88.834 67.333 117.501 117s43 106.5 43 170.5c0 64.667 -14.333 121.834 -43 171.501s-67.834 88.5 -117.501 116.5
s-105.834 42 -168.501 42c-62 0 -118 -14 -168 -42s-89.333 -66.833 -118 -116.5s-43 -106.834 -43 -171.501c0 -64 14.333 -120.833 43 -170.5s68 -88.667 118 -117s106 -42.5 168 -42.5zM288 1334v171h816v-171h-816z" />
    <glyph glyph-name="Ohungarumlaut" unicode="&#x150;" horiz-adv-x="1919" 
d="M959 -32c-115.333 0 -223.333 22 -324 66s-189 105.167 -265 183.5s-135.5 169.333 -178.5 273s-64.5 214.834 -64.5 333.501c0 119.333 21.5 230.666 64.5 333.999s102.5 194.166 178.5 272.499s164.333 139.5 265 183.5s208.667 66 324 66s223.333 -22 324 -66
s189 -105.167 265 -183.5s135.5 -169.166 178.5 -272.499s64.5 -214.666 64.5 -333.999c0 -118.667 -21.5 -229.834 -64.5 -333.501s-102.5 -194.667 -178.5 -273s-164.333 -139.5 -265 -183.5s-208.667 -66 -324 -66zM959 220c78.667 0 151.5 15.167 218.5 45.5
s125.333 72.666 175 126.999s88.167 118.166 115.5 191.499s41 153.333 41 240s-13.667 166.667 -41 240s-65.833 137.166 -115.5 191.499s-108 96.666 -175 126.999s-139.833 45.5 -218.5 45.5c-78 0 -150.5 -15.167 -217.5 -45.5s-125.333 -72.666 -175 -126.999
s-88.167 -118.166 -115.5 -191.499s-41 -153.333 -41 -240s13.667 -166.667 41 -240s65.833 -137.166 115.5 -191.499s108 -96.666 175 -126.999s139.5 -45.5 217.5 -45.5zM1134 1921l-98 114l292 287l158 -170zM685 1921l-99 114l293 287l156 -170z" />
    <glyph glyph-name="ohungarumlaut" unicode="&#x151;" horiz-adv-x="1392" 
d="M696 -32c-110.667 0 -210.5 23 -299.5 69s-159.5 110 -211.5 192s-78 176.333 -78 283c0 107.333 26 201.833 78 283.5s122.333 145.5 211 191.5s188.667 69 300 69c110.667 0 210.5 -23 299.5 -69s159.333 -109.833 211 -191.5s77.5 -176.167 77.5 -283.5
c0 -106.667 -25.833 -201 -77.5 -283s-122 -146 -211 -192s-188.833 -69 -299.5 -69zM696 182c62.667 0 118.834 14.167 168.501 42.5s88.834 67.333 117.501 117s43 106.5 43 170.5c0 64.667 -14.333 121.834 -43 171.501s-67.834 88.5 -117.501 116.5
s-105.834 42 -168.501 42c-62 0 -118 -14 -168 -42s-89.333 -66.833 -118 -116.5s-43 -106.834 -43 -171.501c0 -64 14.333 -120.833 43 -170.5s68 -88.667 118 -117s106 -42.5 168 -42.5zM870 1310l-98 114l292 287l158 -170zM421 1310l-99 114l293 287l156 -170z" />
    <glyph glyph-name="OE" unicode="&#x152;" horiz-adv-x="2081" 
d="M955 0c-116.667 0 -225.33 20.668 -325.997 62.001s-188.5 99.5 -263.5 174.5s-133.667 163.167 -176 264.5s-63.5 212 -63.5 332c0 118 21.167 226.833 63.5 326.5s104.166 186.167 185.499 259.5s180.166 130.166 296.499 170.499s248.166 60.5 395.499 60.5h842v-230
h-625v-478h601v-230h-601v-482h625v-230h-954zM1021 234.001v1182c-89.333 0 -171.5 -14.167 -246.5 -42.5s-139.833 -68.5 -194.5 -120.5s-97 -114 -127 -186s-45 -152.333 -45 -241c0 -86.667 14.333 -166.167 43 -238.5s70.167 -134.833 124.5 -187.5
s119 -93.5 194 -122.5s158.833 -43.5 251.5 -43.5z" />
    <glyph glyph-name="oe" unicode="&#x153;" horiz-adv-x="2217" 
d="M687 -32c-110.667 0 -209.671 23.1621 -297.004 69.4951s-155.833 110.333 -205.5 192s-74.5 175.834 -74.5 282.501s24.833 200.834 74.5 282.501s118.167 145.667 205.5 192s186.333 69.5 297 69.5c100 0 189 -21.167 267 -63.5s137.667 -101.5 179 -177.5
c32 50 70.333 92.833 115 128.5s94.5 63.334 149.5 83.001s113.5 29.5 175.5 29.5c102.667 0 194.334 -23 275.001 -69s144.334 -109 191.001 -189s70.334 -171 71 -273c0 -5.33301 -0.166992 -10.166 -0.5 -14.499s-1.16602 -14.166 -2.5 -29.499h-835
c0 -62 13.833 -116.667 41.5 -164s66.334 -84 116.001 -110s107.834 -39 174.501 -39c62 0 117 12.333 165 37s92 63 132 115l181 -93c-50.667 -82 -119 -145.667 -205 -191s-183.667 -68 -293 -68c-98 0 -185.667 20.833 -263 62.5s-140.333 100.5 -189 176.5
c-40 -74.667 -99 -133.167 -177 -175.5s-167.333 -63.5 -268 -63.5zM697.996 180.995c64 0 120.833 14.333 170.5 43s88.834 68 117.501 118s43 106.667 43 170c0 64 -14.333 120.833 -43 170.5s-67.834 88.834 -117.501 117.501s-106.5 43 -170.5 43
c-63.333 0 -120 -14.333 -170 -43s-89.333 -67.834 -118 -117.501s-43 -106.5 -43 -170.5c0 -63.333 14.333 -120 43 -170s68 -89.333 118 -118s106.667 -43 170 -43zM1278 619.995l588.002 0.000976562c-6 52 -22.167 97.833 -48.5 137.5s-60.333 70.667 -102 93
s-88.834 33.5 -141.501 33.5c-53.333 0 -101.5 -11.333 -144.5 -34s-77.833 -53.834 -104.5 -93.501s-42.334 -85.167 -47.001 -136.5z" />
    <glyph glyph-name="Racute" unicode="&#x154;" horiz-adv-x="1469" 
d="M241 0l-0.000976562 1650h514c110.667 0 206.834 -19.333 288.501 -58s144.667 -94.334 189 -167.001s66.5 -160 66.5 -262c0 -84.667 -15.833 -160.5 -47.5 -227.5s-77 -122.5 -136 -166.5s-129.833 -74.667 -212.5 -92l543 -677h-332l-494 648h-117v-648h-262z
M502.999 868.001h175c72.667 0 135 11.5 187 34.5s91.833 56 119.5 99s41.5 94.5 41.5 154.5c0 89.333 -30.5 159 -91.5 209s-146.5 75 -256.5 75h-175v-572zM698.999 1751l-110 87l245 420l174 -129z" />
    <glyph glyph-name="racute" unicode="&#x155;" horiz-adv-x="964" 
d="M193 0v1024h249v-149c36 58.667 81 103.5 135 134.5s113.333 46.5 178 46.5c34 0 68.833 -4.5 104.5 -13.5s66.167 -20.833 91.5 -35.5l-103 -211c-22 13.333 -47.5 24 -76.5 32s-55.833 12 -80.5 12c-42.667 0 -83 -11 -121 -33s-68.833 -50.333 -92.5 -85
s-35.5 -72 -35.5 -112v-610h-249zM502 1157l-110 87l245 420l174 -129z" />
    <glyph glyph-name="uni0156" unicode="&#x156;" horiz-adv-x="1469" 
d="M241 0l-0.000976562 1650h514c110.667 0 206.834 -19.333 288.501 -58s144.667 -94.334 189 -167.001s66.5 -160 66.5 -262c0 -84.667 -15.833 -160.5 -47.5 -227.5s-77 -122.5 -136 -166.5s-129.833 -74.667 -212.5 -92l543 -677h-332l-494 648h-117v-648h-262z
M502.999 868.001h175c72.667 0 135 11.5 187 34.5s91.833 56 119.5 99s41.5 94.5 41.5 154.5c0 89.333 -30.5 159 -91.5 209s-146.5 75 -256.5 75h-175v-572zM686.999 -498.999l-36.998 31c15.333 18 29.666 42.167 42.999 72.5s21 60.833 23 91.5
c-22.667 4 -41.334 14.5 -56.001 31.5s-22 37.167 -22 60.5c0 28 9 50.833 27 68.5s41.333 26.5 70 26.5c29.333 0 52.666 -9.33301 69.999 -28s26 -46.667 26 -84c0 -45.333 -13.167 -93 -39.5 -143s-61.166 -92.333 -104.499 -127z" />
    <glyph glyph-name="uni0157" unicode="&#x157;" horiz-adv-x="964" 
d="M193 0v1024h249v-149c36 58.667 81 103.5 135 134.5s113.333 46.5 178 46.5c34 0 68.833 -4.5 104.5 -13.5s66.167 -20.833 91.5 -35.5l-103 -211c-22 13.333 -47.5 24 -76.5 32s-55.833 12 -80.5 12c-42.667 0 -83 -11 -121 -33s-68.833 -50.333 -92.5 -85
s-35.5 -72 -35.5 -112v-610h-249zM453 -499l-36.998 31c15.333 18 29.666 42.167 42.999 72.5s21 60.833 23 91.5c-22.667 4 -41.334 14.5 -56.001 31.5s-22 37.167 -22 60.5c0 28 9 50.833 27 68.5s41.333 26.5 70 26.5c29.333 0 52.666 -9.33301 69.999 -28
s26 -46.667 26 -84c0 -45.333 -13.167 -93 -39.5 -143s-61.166 -92.333 -104.499 -127z" />
    <glyph glyph-name="Rcaron" unicode="&#x158;" horiz-adv-x="1469" 
d="M241 0l-0.000976562 1650h514c110.667 0 206.834 -19.333 288.501 -58s144.667 -94.334 189 -167.001s66.5 -160 66.5 -262c0 -84.667 -15.833 -160.5 -47.5 -227.5s-77 -122.5 -136 -166.5s-129.833 -74.667 -212.5 -92l543 -677h-332l-494 648h-117v-648h-262z
M502.999 868.001h175c72.667 0 135 11.5 187 34.5s91.833 56 119.5 99s41.5 94.5 41.5 154.5c0 89.333 -30.5 159 -91.5 209s-146.5 75 -256.5 75h-175v-572zM734.999 1811l-403 297l97 132l306 -224l306 224l98 -132z" />
    <glyph glyph-name="rcaron" unicode="&#x159;" horiz-adv-x="964" 
d="M193 0v1024h249v-149c36 58.667 81 103.5 135 134.5s113.333 46.5 178 46.5c34 0 68.833 -4.5 104.5 -13.5s66.167 -20.833 91.5 -35.5l-103 -211c-22 13.333 -47.5 24 -76.5 32s-55.833 12 -80.5 12c-42.667 0 -83 -11 -121 -33s-68.833 -50.333 -92.5 -85
s-35.5 -72 -35.5 -112v-610h-249zM537 1217l-403 297l97 132l306 -224l306 224l98 -132z" />
    <glyph glyph-name="Sacute" unicode="&#x15a;" horiz-adv-x="1365" 
d="M664 -32c-79.333 0 -151.331 9.99414 -215.998 29.9941s-121.5 44.833 -170.5 74.5s-90.167 59.5 -123.5 89.5s-58.666 54.667 -75.999 74l138 212c18.667 -19.333 42.167 -42.333 70.5 -69s61.5 -52.834 99.5 -78.501s80.667 -47 128 -64s99.666 -25.5 156.999 -25.5
c54 0 102.333 9 145 27s76.667 44.833 102 80.5s38 79.834 38 132.501c0 46 -9.5 85.333 -28.5 118s-46.167 61.167 -81.5 85.5s-77.333 47.666 -126 69.999s-103 45.5 -163 69.5c-42.667 18 -84.834 39 -126.501 63s-79.334 52.667 -113.001 86s-60.5 71.833 -80.5 115.5
s-30 94.167 -30 151.5c0 62 12.167 121.167 36.5 177.5s58.833 106.5 103.5 150.5s97.834 78.667 159.501 104s130.5 38 206.5 38c62 0 122.333 -9 181 -27s112.167 -41.333 160.5 -70s87.833 -59.334 118.5 -92.001l-114 -199c-25.333 26 -55.5 50.5 -90.5 73.5
s-73.833 41.5 -116.5 55.5s-87.334 21 -134.001 21c-54.667 0 -101 -10.667 -139 -32s-67.167 -49.166 -87.5 -83.499s-30.5 -71.5 -30.5 -111.5c0 -34.667 7.16699 -64.167 21.5 -88.5s34.166 -45.166 59.499 -62.499s54.5 -33.166 87.5 -47.499s67.833 -28.5 104.5 -42.5
c72.667 -29.333 139.834 -59.166 201.501 -89.499s115.167 -64.666 160.5 -102.999s80.5 -83.666 105.5 -135.999s37.5 -115.166 37.5 -188.499c0 -102.667 -24.5 -190.667 -73.5 -264s-116.667 -129.166 -203 -167.499s-185.833 -57.5 -298.5 -57.5zM677.002 1771.99
l-110 87l245 420l174 -129z" />
    <glyph glyph-name="sacute" unicode="&#x15b;" horiz-adv-x="1012" 
d="M475 -32c-86 0 -162.499 16.165 -229.499 48.498s-121.5 78.833 -163.5 139.5l110 162c39.333 -52 83.166 -92.333 131.499 -121s98.5 -43 150.5 -43c32 0 60.333 5.83301 85 17.5s44.334 28.667 59.001 51s22 48.833 22 79.5c0 32 -8.33301 57 -25 75
s-41.667 34.333 -75 49s-75.333 32 -126 52c-42.667 18 -83.334 38 -122.001 60s-70.5 49.833 -95.5 83.5s-37.5 76.5 -37.5 128.5c0 59.333 16.5 112 49.5 158s78.333 82 136 108s123.5 39 197.5 39c53.333 0 107 -9.5 161 -28.5s108 -46.5 162 -82.5l-90 -157
c-78 64.667 -155 97 -231 97c-44.667 0 -80.5 -10.667 -107.5 -32s-40.5 -48.666 -40.5 -81.999c0 -27.333 11.667 -50.666 35 -69.999s52.333 -36.333 87 -51l104 -42c54.667 -20 102.667 -41.333 144 -64s73.666 -52 96.999 -88s35 -84 35 -144
c0 -72 -17.167 -133.667 -51.5 -185s-83.166 -90.5 -146.499 -117.5s-138.333 -40.5 -225 -40.5zM473.001 1140l-110 87l245 420l174 -129z" />
    <glyph glyph-name="Scedilla" unicode="&#x15e;" horiz-adv-x="1365" 
d="M664 -32c-79.333 0 -151.331 9.99414 -215.998 29.9941s-121.5 44.833 -170.5 74.5s-90.167 59.5 -123.5 89.5s-58.666 54.667 -75.999 74l138 212c18.667 -19.333 42.167 -42.333 70.5 -69s61.5 -52.834 99.5 -78.501s80.667 -47 128 -64s99.666 -25.5 156.999 -25.5
c54 0 102.333 9 145 27s76.667 44.833 102 80.5s38 79.834 38 132.501c0 46 -9.5 85.333 -28.5 118s-46.167 61.167 -81.5 85.5s-77.333 47.666 -126 69.999s-103 45.5 -163 69.5c-42.667 18 -84.834 39 -126.501 63s-79.334 52.667 -113.001 86s-60.5 71.833 -80.5 115.5
s-30 94.167 -30 151.5c0 62 12.167 121.167 36.5 177.5s58.833 106.5 103.5 150.5s97.834 78.667 159.501 104s130.5 38 206.5 38c62 0 122.333 -9 181 -27s112.167 -41.333 160.5 -70s87.833 -59.334 118.5 -92.001l-114 -199c-25.333 26 -55.5 50.5 -90.5 73.5
s-73.833 41.5 -116.5 55.5s-87.334 21 -134.001 21c-54.667 0 -101 -10.667 -139 -32s-67.167 -49.166 -87.5 -83.499s-30.5 -71.5 -30.5 -111.5c0 -34.667 7.16699 -64.167 21.5 -88.5s34.166 -45.166 59.499 -62.499s54.5 -33.166 87.5 -47.499s67.833 -28.5 104.5 -42.5
c72.667 -29.333 139.834 -59.166 201.501 -89.499s115.167 -64.666 160.5 -102.999s80.5 -83.666 105.5 -135.999s37.5 -115.166 37.5 -188.499c0 -102.667 -24.5 -190.667 -73.5 -264s-116.667 -129.166 -203 -167.499s-185.833 -57.5 -298.5 -57.5zM633.002 -560.006
c-56 0 -107.501 12.833 -154.501 38.5s-88.5 62.5 -124.5 110.5l101 74c44 -64 102 -96 174 -96c36.667 0 66.334 9.33301 89.001 28s34 42.667 34 72c0 30 -12 54.167 -36 72.5s-55.667 27.5 -95 27.5c-20 0 -40.833 -2.5 -62.5 -7.5s-38.5 -11.167 -50.5 -18.5l-14 11
l80 248h112l-48 -150c22.667 2 43.667 1.5 63 -1.5s37.333 -8.16699 54 -15.5c41.333 -9.33301 74.5 -29 99.5 -59s37.5 -67 37.5 -111c0 -64.667 -24.167 -118 -72.5 -160s-110.5 -63 -186.5 -63z" />
    <glyph glyph-name="scedilla" unicode="&#x15f;" horiz-adv-x="1012" 
d="M475 -32c-86 0 -162.499 16.165 -229.499 48.498s-121.5 78.833 -163.5 139.5l110 162c39.333 -52 83.166 -92.333 131.499 -121s98.5 -43 150.5 -43c32 0 60.333 5.83301 85 17.5s44.334 28.667 59.001 51s22 48.833 22 79.5c0 32 -8.33301 57 -25 75
s-41.667 34.333 -75 49s-75.333 32 -126 52c-42.667 18 -83.334 38 -122.001 60s-70.5 49.833 -95.5 83.5s-37.5 76.5 -37.5 128.5c0 59.333 16.5 112 49.5 158s78.333 82 136 108s123.5 39 197.5 39c53.333 0 107 -9.5 161 -28.5s108 -46.5 162 -82.5l-90 -157
c-78 64.667 -155 97 -231 97c-44.667 0 -80.5 -10.667 -107.5 -32s-40.5 -48.666 -40.5 -81.999c0 -27.333 11.667 -50.666 35 -69.999s52.333 -36.333 87 -51l104 -42c54.667 -20 102.667 -41.333 144 -64s73.666 -52 96.999 -88s35 -84 35 -144
c0 -72 -17.167 -133.667 -51.5 -185s-83.166 -90.5 -146.499 -117.5s-138.333 -40.5 -225 -40.5zM500.001 -560.002c-56 0 -107.501 12.833 -154.501 38.5s-88.5 62.5 -124.5 110.5l101 74c44 -64 102 -96 174 -96c36.667 0 66.334 9.33301 89.001 28s34 42.667 34 72
c0 30 -12 54.167 -36 72.5s-55.667 27.5 -95 27.5c-20 0 -40.833 -2.5 -62.5 -7.5s-38.5 -11.167 -50.5 -18.5l-14 11l80 248h112l-48 -150c22.667 2 43.667 1.5 63 -1.5s37.333 -8.16699 54 -15.5c41.333 -9.33301 74.5 -29 99.5 -59s37.5 -67 37.5 -111
c0 -64.667 -24.167 -118 -72.5 -160s-110.5 -63 -186.5 -63z" />
    <glyph glyph-name="Scaron" unicode="&#x160;" horiz-adv-x="1365" 
d="M664 -32c-79.333 0 -151.331 9.99414 -215.998 29.9941s-121.5 44.833 -170.5 74.5s-90.167 59.5 -123.5 89.5s-58.666 54.667 -75.999 74l138 212c18.667 -19.333 42.167 -42.333 70.5 -69s61.5 -52.834 99.5 -78.501s80.667 -47 128 -64s99.666 -25.5 156.999 -25.5
c54 0 102.333 9 145 27s76.667 44.833 102 80.5s38 79.834 38 132.501c0 46 -9.5 85.333 -28.5 118s-46.167 61.167 -81.5 85.5s-77.333 47.666 -126 69.999s-103 45.5 -163 69.5c-42.667 18 -84.834 39 -126.501 63s-79.334 52.667 -113.001 86s-60.5 71.833 -80.5 115.5
s-30 94.167 -30 151.5c0 62 12.167 121.167 36.5 177.5s58.833 106.5 103.5 150.5s97.834 78.667 159.501 104s130.5 38 206.5 38c62 0 122.333 -9 181 -27s112.167 -41.333 160.5 -70s87.833 -59.334 118.5 -92.001l-114 -199c-25.333 26 -55.5 50.5 -90.5 73.5
s-73.833 41.5 -116.5 55.5s-87.334 21 -134.001 21c-54.667 0 -101 -10.667 -139 -32s-67.167 -49.166 -87.5 -83.499s-30.5 -71.5 -30.5 -111.5c0 -34.667 7.16699 -64.167 21.5 -88.5s34.166 -45.166 59.499 -62.499s54.5 -33.166 87.5 -47.499s67.833 -28.5 104.5 -42.5
c72.667 -29.333 139.834 -59.166 201.501 -89.499s115.167 -64.666 160.5 -102.999s80.5 -83.666 105.5 -135.999s37.5 -115.166 37.5 -188.499c0 -102.667 -24.5 -190.667 -73.5 -264s-116.667 -129.166 -203 -167.499s-185.833 -57.5 -298.5 -57.5zM713.002 1831.99
l-403 297l97 132l306 -224l306 224l98 -132z" />
    <glyph glyph-name="scaron" unicode="&#x161;" horiz-adv-x="1012" 
d="M475 -32c-86 0 -162.499 16.165 -229.499 48.498s-121.5 78.833 -163.5 139.5l110 162c39.333 -52 83.166 -92.333 131.499 -121s98.5 -43 150.5 -43c32 0 60.333 5.83301 85 17.5s44.334 28.667 59.001 51s22 48.833 22 79.5c0 32 -8.33301 57 -25 75
s-41.667 34.333 -75 49s-75.333 32 -126 52c-42.667 18 -83.334 38 -122.001 60s-70.5 49.833 -95.5 83.5s-37.5 76.5 -37.5 128.5c0 59.333 16.5 112 49.5 158s78.333 82 136 108s123.5 39 197.5 39c53.333 0 107 -9.5 161 -28.5s108 -46.5 162 -82.5l-90 -157
c-78 64.667 -155 97 -231 97c-44.667 0 -80.5 -10.667 -107.5 -32s-40.5 -48.666 -40.5 -81.999c0 -27.333 11.667 -50.666 35 -69.999s52.333 -36.333 87 -51l104 -42c54.667 -20 102.667 -41.333 144 -64s73.666 -52 96.999 -88s35 -84 35 -144
c0 -72 -17.167 -133.667 -51.5 -185s-83.166 -90.5 -146.499 -117.5s-138.333 -40.5 -225 -40.5zM508.001 1200l-403 297l97 132l306 -224l306 224l98 -132z" />
    <glyph glyph-name="uni0162" unicode="&#x162;" horiz-adv-x="1289" 
d="M514 0v1417h-449v233h1160v-233h-450v-1417h-261zM615 -560c-56 0 -107.501 12.833 -154.501 38.5s-88.5 62.5 -124.5 110.5l101 74c44 -64 102 -96 174 -96c36.667 0 66.334 9.33301 89.001 28s34 42.667 34 72c0 30 -12 54.167 -36 72.5s-55.667 27.5 -95 27.5
c-20 0 -40.833 -2.5 -62.5 -7.5s-38.5 -11.167 -50.5 -18.5l-14 11l80 248h112l-48 -150c22.667 2 43.667 1.5 63 -1.5s37.333 -8.16699 54 -15.5c41.333 -9.33301 74.5 -29 99.5 -59s37.5 -67 37.5 -111c0 -64.667 -24.167 -118 -72.5 -160s-110.5 -63 -186.5 -63z" />
    <glyph glyph-name="uni0163" unicode="&#x163;" horiz-adv-x="820" 
d="M511 -32c-92.667 0 -164.834 30.001 -216.501 90.001s-77.5 144.333 -77.5 253v524h-125v189h125v383h249v-383h236v-189h-236v-507c0 -44.667 9 -78.834 27 -102.501s43.667 -35.5 77 -35.5c34.667 0 66.334 10.667 95.001 32l63 -199
c-30 -17.333 -64.333 -30.833 -103 -40.5s-76.667 -14.5 -114 -14.5zM465 -559.999c-56 0 -107.501 12.833 -154.501 38.5s-88.5 62.5 -124.5 110.5l101 74c44 -64 102 -96 174 -96c36.667 0 66.334 9.33301 89.001 28s34 42.667 34 72c0 30 -12 54.167 -36 72.5
s-55.667 27.5 -95 27.5c-20 0 -40.833 -2.5 -62.5 -7.5s-38.5 -11.167 -50.5 -18.5l-14 11l80 248h112l-48 -150c22.667 2 43.667 1.5 63 -1.5s37.333 -8.16699 54 -15.5c41.333 -9.33301 74.5 -29 99.5 -59s37.5 -67 37.5 -111c0 -64.667 -24.167 -118 -72.5 -160
s-110.5 -63 -186.5 -63z" />
    <glyph glyph-name="Tcaron" unicode="&#x164;" horiz-adv-x="1289" 
d="M514 0v1417h-449v233h1160v-233h-450v-1417h-261zM645 1811l-403 297l97 132l306 -224l306 224l98 -132z" />
    <glyph glyph-name="tcaron" unicode="&#x165;" horiz-adv-x="820" 
d="M511 -32c-92.667 0 -164.834 30.001 -216.501 90.001s-77.5 144.333 -77.5 253v524h-125v189h125v383h249v-383h236v-189h-236v-507c0 -44.667 9 -78.834 27 -102.501s43.667 -35.5 77 -35.5c34.667 0 66.334 10.667 95.001 32l63 -199
c-30 -17.333 -64.333 -30.833 -103 -40.5s-76.667 -14.5 -114 -14.5zM432 1448l-403 297l97 132l306 -224l306 224l98 -132z" />
    <glyph glyph-name="Tbar" unicode="&#x166;" horiz-adv-x="1289" 
d="M514 0v1417h-449v233h1160v-233h-450v-1417h-261zM267 877v180h756v-180h-756z" />
    <glyph glyph-name="tbar" unicode="&#x167;" horiz-adv-x="820" 
d="M511 -32c-92.667 0 -164.834 30.001 -216.501 90.001s-77.5 144.333 -77.5 253v377h-125v136h125v119h-125v134h125v330h249v-330h236v-134h-236v-119h236v-136h-236v-360c0 -44.667 9 -78.834 27 -102.501s43.667 -35.5 77 -35.5c34.667 0 66.334 10.667 95.001 32
l63 -199c-30 -17.333 -64.333 -30.833 -103 -40.5s-76.667 -14.5 -114 -14.5z" />
    <glyph glyph-name="Umacron" unicode="&#x16a;" horiz-adv-x="1644" 
d="M822 -32c-200.667 0 -352 52 -454 156s-153 258.333 -153 463v1063h261v-992c0 -150 27.833 -259.667 83.5 -329s143.167 -104 262.5 -104s206.833 34.667 262.5 104s83.5 179 83.5 329v992h262v-1063c0 -204.667 -51 -359 -153 -463s-253.667 -156 -455 -156zM415 1928
v171h816v-171h-816z" />
    <glyph glyph-name="umacron" unicode="&#x16b;" horiz-adv-x="1328" 
d="M664 -32c-176 0 -302.333 36.167 -379 108.5s-115 191.833 -115 358.5v589h249v-533c0 -115.333 18.5 -197.333 55.5 -246s100.167 -73 189.5 -73s152.5 24.333 189.5 73s55.5 130.667 55.5 246v533h249v-589c0 -166.667 -38.333 -286.167 -115 -358.5
s-203 -108.5 -379 -108.5zM257 1303v171h816v-171h-816z" />
    <glyph glyph-name="Uring" unicode="&#x16e;" horiz-adv-x="1644" 
d="M822 -32c-200.667 0 -352 52 -454 156s-153 258.333 -153 463v1063h261v-992c0 -150 27.833 -259.667 83.5 -329s143.167 -104 262.5 -104s206.833 34.667 262.5 104s83.5 179 83.5 329v992h262v-1063c0 -204.667 -51 -359 -153 -463s-253.667 -156 -455 -156zM823 1846
c-51.333 0 -98 10.333 -140 31s-75.333 49.5 -100 86.5s-37 79.167 -37 126.5v0c0 47.333 12.333 89.5 37 126.5s58 65.833 100 86.5s88.667 31 140 31s97.833 -10.333 139.5 -31s74.834 -49.5 99.501 -86.5s37 -79.167 37 -126.5s-12.333 -89.5 -37 -126.5
s-57.834 -65.833 -99.501 -86.5s-88.167 -31 -139.5 -31zM823 1968c35.333 0 65.666 11.668 90.999 35.001s38 52.333 38 86.999c0 34.667 -12.667 63.667 -38 87s-55.666 35 -90.999 35s-65.833 -11.667 -91.5 -35s-38.5 -52.333 -38.5 -87v0
c0 -34.667 12.833 -63.667 38.5 -87s56.167 -35 91.5 -35z" />
    <glyph glyph-name="uring" unicode="&#x16f;" horiz-adv-x="1328" 
d="M664 -32c-176 0 -302.333 36.167 -379 108.5s-115 191.833 -115 358.5v589h249v-533c0 -115.333 18.5 -197.333 55.5 -246s100.167 -73 189.5 -73s152.5 24.333 189.5 73s55.5 130.667 55.5 246v533h249v-589c0 -166.667 -38.333 -286.167 -115 -358.5
s-203 -108.5 -379 -108.5zM665 1221c-51.333 0 -98 10.333 -140 31s-75.333 49.5 -100 86.5s-37 79.167 -37 126.5v0c0 47.333 12.333 89.5 37 126.5s58 65.833 100 86.5s88.667 31 140 31s97.833 -10.333 139.5 -31s74.834 -49.5 99.501 -86.5s37 -79.167 37 -126.5
s-12.333 -89.5 -37 -126.5s-57.834 -65.833 -99.501 -86.5s-88.167 -31 -139.5 -31zM665 1343c35.333 0 65.666 11.667 90.999 35s38 52.333 38 87s-12.667 63.667 -38 87s-55.666 35 -90.999 35s-65.833 -11.667 -91.5 -35s-38.5 -52.333 -38.5 -87v0
c0 -34.667 12.833 -63.667 38.5 -87s56.167 -35 91.5 -35z" />
    <glyph glyph-name="Uhungarumlaut" unicode="&#x170;" horiz-adv-x="1644" 
d="M822 -32c-200.667 0 -352 52 -454 156s-153 258.333 -153 463v1063h261v-992c0 -150 27.833 -259.667 83.5 -329s143.167 -104 262.5 -104s206.833 34.667 262.5 104s83.5 179 83.5 329v992h262v-1063c0 -204.667 -51 -359 -153 -463s-253.667 -156 -455 -156zM997 1904
l-98 114l292 287l158 -170zM548 1904l-99 114l293 287l156 -170z" />
    <glyph glyph-name="uhungarumlaut" unicode="&#x171;" horiz-adv-x="1328" 
d="M664 -32c-176 0 -302.333 36.167 -379 108.5s-115 191.833 -115 358.5v589h249v-533c0 -115.333 18.5 -197.333 55.5 -246s100.167 -73 189.5 -73s152.5 24.333 189.5 73s55.5 130.667 55.5 246v533h249v-589c0 -166.667 -38.333 -286.167 -115 -358.5
s-203 -108.5 -379 -108.5zM839 1279l-98 114l292 287l158 -170zM390 1279l-99 114l293 287l156 -170z" />
    <glyph glyph-name="Uogonek" unicode="&#x172;" horiz-adv-x="1644" 
d="M822 -32c-200.667 0 -352 52 -454 156s-153 258.333 -153 463v1063h261v-992c0 -150 27.833 -259.667 83.5 -329s143.167 -104 262.5 -104s206.833 34.667 262.5 104s83.5 179 83.5 329v992h262v-1063c0 -204.667 -51 -359 -153 -463s-253.667 -156 -455 -156zM859 -553
c-72.667 0 -132.667 22 -180 66s-71 97 -71 159c0 46 15.167 97.5 45.5 154.5s73.833 116.833 130.5 179.5h123c-46 -52.667 -82.167 -106 -108.5 -160s-39.5 -100.333 -39.5 -139c0 -33.333 10.167 -61.166 30.5 -83.499s50.833 -33.5 91.5 -33.5c28 0 54.333 6.5 79 19.5
s47.667 32.833 69 59.5l105 -78c-30.667 -44.667 -70.667 -79.834 -120 -105.501s-101 -38.5 -155 -38.5z" />
    <glyph glyph-name="uogonek" unicode="&#x173;" horiz-adv-x="1328" 
d="M664 -32c-176 0 -302.333 36.167 -379 108.5s-115 191.833 -115 358.5v589h249v-533c0 -115.333 18.5 -197.333 55.5 -246s100.167 -73 189.5 -73s152.5 24.333 189.5 73s55.5 130.667 55.5 246v533h249v-589c0 -166.667 -38.333 -286.167 -115 -358.5
s-203 -108.5 -379 -108.5zM703 -548c-72.667 0 -132.667 22 -180 66s-71 97 -71 159c0 46 15.167 97.5 45.5 154.5s73.833 116.833 130.5 179.5h123c-46 -52.667 -82.167 -106 -108.5 -160s-39.5 -100.333 -39.5 -139c0 -33.333 10.167 -61.166 30.5 -83.499
s50.833 -33.5 91.5 -33.5c28 0 54.333 6.5 79 19.5s47.667 32.833 69 59.5l105 -78c-30.667 -44.667 -70.667 -79.834 -120 -105.501s-101 -38.5 -155 -38.5z" />
    <glyph glyph-name="Wcircumflex" unicode="&#x174;" horiz-adv-x="2417" 
d="M552 0l-482 1650h292l348 -1295l399 1295h198l400 -1295l348 1295h291l-481 -1650h-292l-364 1143l-365 -1143h-292zM902 1877l-97 132l403 296l404 -296l-98 -132l-306 224z" />
    <glyph glyph-name="wcircumflex" unicode="&#x175;" horiz-adv-x="1967" 
d="M538 0l-524 1024h285l314 -687l286 687h169l285 -687l314 687h285l-523 -1024h-167l-279 666l-279 -666h-166zM677 1252l-97 132l403 296l404 -296l-98 -132l-306 224z" />
    <glyph glyph-name="Ycircumflex" unicode="&#x176;" horiz-adv-x="1503" 
d="M621 0v728l-588 922h316l402 -653l403 653h316l-588 -922v-728h-261zM445 1877l-97 132l403 296l404 -296l-98 -132l-306 224z" />
    <glyph glyph-name="ycircumflex" unicode="&#x177;" horiz-adv-x="1251" 
d="M196 -520l302 611l-486 933h284l347 -690l307 690h284l-754 -1544h-284zM320 1252l-97 132l403 296l404 -296l-98 -132l-306 224z" />
    <glyph glyph-name="Ydieresis" unicode="&#x178;" horiz-adv-x="1503" 
d="M621 0v728l-588 922h316l402 -653l403 653h316l-588 -922v-728h-261zM987 1887c-37.333 0 -69.333 13.333 -96 40s-40 58.667 -40 96c0 38 13.333 70.167 40 96.5s58.667 39.5 96 39.5c38 0 70.167 -13.167 96.5 -39.5s39.5 -58.5 39.5 -96.5
c0 -37.333 -13.167 -69.333 -39.5 -96s-58.5 -40 -96.5 -40zM515 1887c-37.333 0 -69.333 13.333 -96 40s-40 58.667 -40 96c0 38 13.333 70.167 40 96.5s58.667 39.5 96 39.5c38 0 70.167 -13.167 96.5 -39.5s39.5 -58.5 39.5 -96.5c0 -37.333 -13.167 -69.333 -39.5 -96
s-58.5 -40 -96.5 -40z" />
    <glyph glyph-name="Zacute" unicode="&#x179;" horiz-adv-x="1559" 
d="M66 0l949 1418h-834v232h1297l-949 -1418h896v-232h-1359zM744 1751l-110 87l245 420l174 -129z" />
    <glyph glyph-name="zacute" unicode="&#x17a;" horiz-adv-x="1191" 
d="M56 0l634 831h-553v193h980l-635 -831h605v-193h-1031zM560 1126l-110 87l245 420l174 -129z" />
    <glyph glyph-name="Zdotaccent" unicode="&#x17b;" horiz-adv-x="1559" 
d="M66 0l949 1418h-834v232h1297l-949 -1418h896v-232h-1359zM780 1952c-27.333 0 -52.5 6.83301 -75.5 20.5s-41.333 32 -55 55s-20.5 48.5 -20.5 76.5c0 27.333 6.83301 52.333 20.5 75s32 40.834 55 54.5c23 13.667 48.167 20.5 75.5 20.5c28 0 53.333 -6.83301 76 -20.5
s40.834 -31.834 54.501 -54.5c13.667 -22.667 20.5 -47.667 20.5 -75c0 -28 -6.83301 -53.5 -20.5 -76.5s-31.834 -41.333 -54.501 -55s-48 -20.5 -76 -20.5z" />
    <glyph glyph-name="zdotaccent" unicode="&#x17c;" horiz-adv-x="1191" 
d="M56 0l634 831h-553v193h980l-635 -831h605v-193h-1031zM596 1327c-27.333 0 -52.5 6.83301 -75.5 20.5s-41.333 32 -55 55s-20.5 48.5 -20.5 76.5c0 27.333 6.83301 52.333 20.5 75s32 40.834 55 54.501s48.167 20.5 75.5 20.5c28 0 53.333 -6.83301 76 -20.5
s40.834 -31.834 54.501 -54.501s20.5 -47.667 20.5 -75c0 -28 -6.83301 -53.5 -20.5 -76.5s-31.834 -41.333 -54.501 -55s-48 -20.5 -76 -20.5z" />
    <glyph glyph-name="Zcaron" unicode="&#x17d;" horiz-adv-x="1559" 
d="M66 0l949 1418h-834v232h1297l-949 -1418h896v-232h-1359zM779 1811l-403 297l97 132l306 -224l306 224l98 -132z" />
    <glyph glyph-name="zcaron" unicode="&#x17e;" horiz-adv-x="1191" 
d="M56 0l634 831h-553v193h980l-635 -831h605v-193h-1031zM595 1186l-403 297l97 132l306 -224l306 224l98 -132z" />
    <glyph glyph-name="florin" unicode="&#x192;" horiz-adv-x="985" 
d="M121 -551c-45.333 0 -88.5029 6.66699 -129.503 20s-75.833 32 -104.5 56l103 175c26.667 -20.667 62.334 -31 107.001 -31c48 0 84.833 16.833 110.5 50.5s41.5 88.167 47.5 163.5l93 952h-125l17 189h125l30 295c8 90 28.667 167.167 62 231.5
s77.166 113.666 131.499 147.999s117.5 51.5 189.5 51.5c45.333 0 88.5 -6.66699 129.5 -20s75.5 -32 103.5 -56l-102 -175c-28 20.667 -63.667 31 -107 31c-48 0 -84.667 -16.833 -110 -50.5s-41.666 -88.167 -48.999 -163.5l-29 -292h248l-16 -189h-249l-93 -955
c-8.66699 -90 -29.667 -167.167 -63 -231.5s-77.166 -113.666 -131.499 -147.999s-117.166 -51.5 -188.499 -51.5z" />
    <glyph glyph-name="uni0218" unicode="&#x218;" horiz-adv-x="1365" 
d="M664 -32c-79.333 0 -151.331 9.99414 -215.998 29.9941s-121.5 44.833 -170.5 74.5s-90.167 59.5 -123.5 89.5s-58.666 54.667 -75.999 74l138 212c18.667 -19.333 42.167 -42.333 70.5 -69s61.5 -52.834 99.5 -78.501s80.667 -47 128 -64s99.666 -25.5 156.999 -25.5
c54 0 102.333 9 145 27s76.667 44.833 102 80.5s38 79.834 38 132.501c0 46 -9.5 85.333 -28.5 118s-46.167 61.167 -81.5 85.5s-77.333 47.666 -126 69.999s-103 45.5 -163 69.5c-42.667 18 -84.834 39 -126.501 63s-79.334 52.667 -113.001 86s-60.5 71.833 -80.5 115.5
s-30 94.167 -30 151.5c0 62 12.167 121.167 36.5 177.5s58.833 106.5 103.5 150.5s97.834 78.667 159.501 104s130.5 38 206.5 38c62 0 122.333 -9 181 -27s112.167 -41.333 160.5 -70s87.833 -59.334 118.5 -92.001l-114 -199c-25.333 26 -55.5 50.5 -90.5 73.5
s-73.833 41.5 -116.5 55.5s-87.334 21 -134.001 21c-54.667 0 -101 -10.667 -139 -32s-67.167 -49.166 -87.5 -83.499s-30.5 -71.5 -30.5 -111.5c0 -34.667 7.16699 -64.167 21.5 -88.5s34.166 -45.166 59.499 -62.499s54.5 -33.166 87.5 -47.499s67.833 -28.5 104.5 -42.5
c72.667 -29.333 139.834 -59.166 201.501 -89.499s115.167 -64.666 160.5 -102.999s80.5 -83.666 105.5 -135.999s37.5 -115.166 37.5 -188.499c0 -102.667 -24.5 -190.667 -73.5 -264s-116.667 -129.166 -203 -167.499s-185.833 -57.5 -298.5 -57.5zM639.002 -499.006
l-36.998 31c15.333 18 29.666 42.167 42.999 72.5s21 60.833 23 91.5c-22.667 4 -41.334 14.5 -56.001 31.5s-22 37.167 -22 60.5c0 28 9 50.833 27 68.5s41.333 26.5 70 26.5c29.333 0 52.666 -9.33301 69.999 -28s26 -46.667 26 -84c0 -45.333 -13.167 -93 -39.5 -143
s-61.166 -92.333 -104.499 -127z" />
    <glyph glyph-name="uni0219" unicode="&#x219;" horiz-adv-x="1012" 
d="M475 -32c-86 0 -162.499 16.165 -229.499 48.498s-121.5 78.833 -163.5 139.5l110 162c39.333 -52 83.166 -92.333 131.499 -121s98.5 -43 150.5 -43c32 0 60.333 5.83301 85 17.5s44.334 28.667 59.001 51s22 48.833 22 79.5c0 32 -8.33301 57 -25 75
s-41.667 34.333 -75 49s-75.333 32 -126 52c-42.667 18 -83.334 38 -122.001 60s-70.5 49.833 -95.5 83.5s-37.5 76.5 -37.5 128.5c0 59.333 16.5 112 49.5 158s78.333 82 136 108s123.5 39 197.5 39c53.333 0 107 -9.5 161 -28.5s108 -46.5 162 -82.5l-90 -157
c-78 64.667 -155 97 -231 97c-44.667 0 -80.5 -10.667 -107.5 -32s-40.5 -48.666 -40.5 -81.999c0 -27.333 11.667 -50.666 35 -69.999s52.333 -36.333 87 -51l104 -42c54.667 -20 102.667 -41.333 144 -64s73.666 -52 96.999 -88s35 -84 35 -144
c0 -72 -17.167 -133.667 -51.5 -185s-83.166 -90.5 -146.499 -117.5s-138.333 -40.5 -225 -40.5zM506.001 -499.002l-36.998 31c15.333 18 29.666 42.167 42.999 72.5s21 60.833 23 91.5c-22.667 4 -41.334 14.5 -56.001 31.5s-22 37.167 -22 60.5c0 28 9 50.833 27 68.5
s41.333 26.5 70 26.5c29.333 0 52.666 -9.33301 69.999 -28s26 -46.667 26 -84c0 -45.333 -13.167 -93 -39.5 -143s-61.166 -92.333 -104.499 -127z" />
    <glyph glyph-name="uni021A" unicode="&#x21a;" horiz-adv-x="1289" 
d="M514 0v1417h-449v233h1160v-233h-450v-1417h-261zM621 -499l-36.998 31c15.333 18 29.666 42.167 42.999 72.5s21 60.833 23 91.5c-22.667 4 -41.334 14.5 -56.001 31.5s-22 37.167 -22 60.5c0 28 9 50.833 27 68.5s41.333 26.5 70 26.5
c29.333 0 52.666 -9.33301 69.999 -28s26 -46.667 26 -84c0 -45.333 -13.167 -93 -39.5 -143s-61.166 -92.333 -104.499 -127z" />
    <glyph glyph-name="uni021B" unicode="&#x21b;" horiz-adv-x="820" 
d="M511 -32c-92.667 0 -164.834 30.001 -216.501 90.001s-77.5 144.333 -77.5 253v524h-125v189h125v383h249v-383h236v-189h-236v-507c0 -44.667 9 -78.834 27 -102.501s43.667 -35.5 77 -35.5c34.667 0 66.334 10.667 95.001 32l63 -199
c-30 -17.333 -64.333 -30.833 -103 -40.5s-76.667 -14.5 -114 -14.5zM471 -498.999l-36.998 31c15.333 18 29.666 42.167 42.999 72.5s21 60.833 23 91.5c-22.667 4 -41.334 14.5 -56.001 31.5s-22 37.167 -22 60.5c0 28 9 50.833 27 68.5s41.333 26.5 70 26.5
c29.333 0 52.666 -9.33301 69.999 -28s26 -46.667 26 -84c0 -45.333 -13.167 -93 -39.5 -143s-61.166 -92.333 -104.499 -127z" />
    <glyph glyph-name="circumflex" unicode="&#x2c6;" horiz-adv-x="807" 
d="M97 1252l-97 132l403 296l404 -296l-98 -132l-306 224z" />
    <glyph glyph-name="caron" unicode="&#x2c7;" horiz-adv-x="807" 
d="M403 1186l-403 297l97 132l306 -224l306 224l98 -132z" />
    <glyph glyph-name="breve" unicode="&#x2d8;" horiz-adv-x="872" 
d="M436 1294c-78 0 -148.004 14.333 -210.004 43s-112.5 68.834 -151.5 120.501s-63.833 111.167 -74.5 178.5l180 44c6.66699 -40.667 20.5 -78 41.5 -112s49.333 -61.5 85 -82.5s78.834 -31.5 129.501 -31.5s93.834 10.5 129.501 31.5s64.334 48.5 86.001 82.5
s35.167 71.333 40.5 112l180 -44c-9.33301 -67.333 -33.666 -126.833 -72.999 -178.5s-90 -91.834 -152 -120.501s-132.333 -43 -211 -43z" />
    <glyph glyph-name="dotaccent" unicode="&#x2d9;" horiz-adv-x="302" 
d="M151 1327c-27.333 0 -52.5 6.83301 -75.5 20.5s-41.333 32 -55 55s-20.5 48.5 -20.5 76.5c-0 27.333 6.83301 52.333 20.5 75s32 40.834 55 54.501s48.167 20.5 75.5 20.5c28 0 53.333 -6.83301 76 -20.5s40.834 -31.834 54.501 -54.501s20.5 -47.667 20.5 -75
c0 -28 -6.83301 -53.5 -20.5 -76.5s-31.834 -41.333 -54.501 -55s-48 -20.5 -76 -20.5z" />
    <glyph glyph-name="ring" unicode="&#x2da;" horiz-adv-x="553" 
d="M277 1221c-51.333 0 -98 10.333 -140 31s-75.333 49.5 -100 86.5s-37 79.167 -37 126.5v0c-0 47.333 12.333 89.5 37 126.5s58 65.833 100 86.5s88.667 31 140 31s97.833 -10.333 139.5 -31s74.834 -49.5 99.501 -86.5s37 -79.167 37 -126.5s-12.333 -89.5 -37 -126.5
s-57.834 -65.833 -99.501 -86.5s-88.167 -31 -139.5 -31zM277 1343c35.333 0 65.666 11.667 90.999 35s38 52.333 38 87s-12.667 63.667 -38 87s-55.666 35 -90.999 35s-65.833 -11.667 -91.5 -35s-38.5 -52.333 -38.5 -87v0c0 -34.667 12.833 -63.667 38.5 -87
s56.167 -35 91.5 -35z" />
    <glyph glyph-name="ogonek" unicode="&#x2db;" horiz-adv-x="526" 
d="M251 -541c-72.667 0 -132.667 22 -180 66s-71 97 -71 159c0 46 15.167 97.5 45.5 154.5s73.833 116.833 130.5 179.5h123c-46 -52.667 -82.167 -106 -108.5 -160s-39.5 -100.333 -39.5 -139c0 -33.333 10.167 -61.166 30.5 -83.499s50.833 -33.5 91.5 -33.5
c28 0 54.333 6.5 79 19.5s47.667 32.833 69 59.5l105 -78c-30.667 -44.667 -70.667 -79.834 -120 -105.501s-101 -38.5 -155 -38.5z" />
    <glyph glyph-name="tilde" unicode="&#x2dc;" horiz-adv-x="1082" 
d="M726 1207c-38.667 0 -74.834 8.16699 -108.501 24.5s-66.5 35.166 -98.5 56.499s-64.333 40.166 -97 56.499s-67.334 24.5 -104.001 24.5c-48.667 0 -88.5 -15.667 -119.5 -47s-54.833 -66 -71.5 -104l-127 112c33.333 64 77.5 118 132.5 162s115.833 66 182.5 66
c42.667 0 83 -8.16699 121 -24.5s74.333 -35.166 109 -56.499s67.834 -40.333 99.501 -57s62.167 -25 91.5 -25c37.333 0 72.833 14.667 106.5 44s59.167 65.333 76.5 108l127 -112c-23.333 -45.333 -53 -85.166 -89 -119.499s-74.167 -61 -114.5 -80
s-79.166 -28.5 -116.499 -28.5z" />
    <glyph glyph-name="hungarumlaut" unicode="&#x2dd;" horiz-adv-x="924" 
d="M548 1279l-98 114l292 287l158 -170zM99 1279l-99 114l293 287l156 -170z" />
    <glyph glyph-name="gravecomb" unicode="&#x300;" horiz-adv-x="0" 
d="M308 1126l-308 378l173 129l246 -420z" />
    <glyph glyph-name="acutecomb" unicode="&#x301;" horiz-adv-x="0" 
d="M110 1126l-110 87l245 420l174 -129z" />
    <glyph glyph-name="uni0302" unicode="&#x302;" horiz-adv-x="0" 
d="M97 1252l-97 132l403 296l404 -296l-98 -132l-306 224z" />
    <glyph glyph-name="tildecomb" unicode="&#x303;" horiz-adv-x="0" 
d="M726 1207c-38.667 0 -74.834 8.16699 -108.501 24.5s-66.5 35.166 -98.5 56.499s-64.333 40.166 -97 56.499s-67.334 24.5 -104.001 24.5c-48.667 0 -88.5 -15.667 -119.5 -47s-54.833 -66 -71.5 -104l-127 112c33.333 64 77.5 118 132.5 162s115.833 66 182.5 66
c42.667 0 83 -8.16699 121 -24.5s74.333 -35.166 109 -56.499s67.834 -40.333 99.501 -57s62.167 -25 91.5 -25c37.333 0 72.833 14.667 106.5 44s59.167 65.333 76.5 108l127 -112c-23.333 -45.333 -53 -85.166 -89 -119.499s-74.167 -61 -114.5 -80
s-79.166 -28.5 -116.499 -28.5z" />
    <glyph glyph-name="uni0304" unicode="&#x304;" horiz-adv-x="0" 
d="M0 1303v171h816v-171h-816z" />
    <glyph glyph-name="uni0306" unicode="&#x306;" horiz-adv-x="0" 
d="M436 1294c-78 0 -148.004 14.333 -210.004 43s-112.5 68.834 -151.5 120.501s-63.833 111.167 -74.5 178.5l180 44c6.66699 -40.667 20.5 -78 41.5 -112s49.333 -61.5 85 -82.5s78.834 -31.5 129.501 -31.5s93.834 10.5 129.501 31.5s64.334 48.5 86.001 82.5
s35.167 71.333 40.5 112l180 -44c-9.33301 -67.333 -33.666 -126.833 -72.999 -178.5s-90 -91.834 -152 -120.501s-132.333 -43 -211 -43z" />
    <glyph glyph-name="uni0307" unicode="&#x307;" horiz-adv-x="0" 
d="M151 1327c-27.333 0 -52.5 6.83301 -75.5 20.5s-41.333 32 -55 55s-20.5 48.5 -20.5 76.5c-0 27.333 6.83301 52.333 20.5 75s32 40.834 55 54.501s48.167 20.5 75.5 20.5c28 0 53.333 -6.83301 76 -20.5s40.834 -31.834 54.501 -54.501s20.5 -47.667 20.5 -75
c0 -28 -6.83301 -53.5 -20.5 -76.5s-31.834 -41.333 -54.501 -55s-48 -20.5 -76 -20.5z" />
    <glyph glyph-name="uni0308" unicode="&#x308;" horiz-adv-x="0" 
d="M608 1262c-37.333 0 -69.333 13.333 -96 40s-40 58.667 -40 96c0 38 13.333 70.167 40 96.5s58.667 39.5 96 39.5c38 0 70.167 -13.167 96.5 -39.5s39.5 -58.5 39.5 -96.5c0 -37.333 -13.167 -69.333 -39.5 -96s-58.5 -40 -96.5 -40zM136 1262
c-37.333 0 -69.333 13.333 -96 40s-40 58.667 -40 96c-0 38 13.333 70.167 40 96.5s58.667 39.5 96 39.5c38 0 70.167 -13.167 96.5 -39.5s39.5 -58.5 39.5 -96.5c0 -37.333 -13.167 -69.333 -39.5 -96s-58.5 -40 -96.5 -40z" />
    <glyph glyph-name="uni030A" unicode="&#x30a;" horiz-adv-x="0" 
d="M277 1221c-51.333 0 -98 10.333 -140 31s-75.333 49.5 -100 86.5s-37 79.167 -37 126.5v0c-0 47.333 12.333 89.5 37 126.5s58 65.833 100 86.5s88.667 31 140 31s97.833 -10.333 139.5 -31s74.834 -49.5 99.501 -86.5s37 -79.167 37 -126.5s-12.333 -89.5 -37 -126.5
s-57.834 -65.833 -99.501 -86.5s-88.167 -31 -139.5 -31zM277 1343c35.333 0 65.666 11.667 90.999 35s38 52.333 38 87s-12.667 63.667 -38 87s-55.666 35 -90.999 35s-65.833 -11.667 -91.5 -35s-38.5 -52.333 -38.5 -87v0c0 -34.667 12.833 -63.667 38.5 -87
s56.167 -35 91.5 -35z" />
    <glyph glyph-name="uni030B" unicode="&#x30b;" horiz-adv-x="0" 
d="M548 1279l-98 114l292 287l158 -170zM99 1279l-99 114l293 287l156 -170z" />
    <glyph glyph-name="uni030C" unicode="&#x30c;" horiz-adv-x="0" 
d="M403 1186l-403 297l97 132l306 -224l306 224l98 -132z" />
    <glyph glyph-name="uni0312" unicode="&#x312;" horiz-adv-x="0" 
d="M388 1329c-37.333 0 -66.501 9.16797 -87.501 27.501s-31.5 44.166 -31.5 77.499c0 42 15.167 86 45.5 132s71.166 85.667 122.499 119l63 -30c-17.333 -15.333 -33.666 -37 -48.999 -65s-24.666 -55.667 -27.999 -83c27.333 -4 49 -14 65 -30s24 -35 24 -57
c0 -26 -11.5 -47.667 -34.5 -65s-52.833 -26 -89.5 -26z" />
    <glyph glyph-name="uni0326" unicode="&#x326;" horiz-adv-x="0" 
d="M327 -499l-36.998 31c15.333 18 29.666 42.167 42.999 72.5s21 60.833 23 91.5c-22.667 4 -41.334 14.5 -56.001 31.5s-22 37.167 -22 60.5c0 28 9 50.833 27 68.5s41.333 26.5 70 26.5c29.333 0 52.666 -9.33301 69.999 -28s26 -46.667 26 -84
c0 -45.333 -13.167 -93 -39.5 -143s-61.166 -92.333 -104.499 -127z" />
    <glyph glyph-name="uni0327" unicode="&#x327;" horiz-adv-x="0" 
d="M279 -542c-56 0 -107.501 12.833 -154.501 38.5s-88.5 62.5 -124.5 110.5l101 74c44 -64 102 -96 174 -96c36.667 0 66.334 9.33301 89.001 28s34 42.667 34 72c0 30 -12 54.167 -36 72.5s-55.667 27.5 -95 27.5c-20 0 -40.833 -2.5 -62.5 -7.5
s-38.5 -11.167 -50.5 -18.5l-14 11l80 248h112l-48 -150c22.667 2 43.667 1.5 63 -1.5s37.333 -8.16699 54 -15.5c41.333 -9.33301 74.5 -29 99.5 -59s37.5 -67 37.5 -111c0 -64.667 -24.167 -118 -72.5 -160s-110.5 -63 -186.5 -63z" />
    <glyph glyph-name="uni0328" unicode="&#x328;" horiz-adv-x="0" 
d="M251 -541c-72.667 0 -132.667 22 -180 66s-71 97 -71 159c0 46 15.167 97.5 45.5 154.5s73.833 116.833 130.5 179.5h123c-46 -52.667 -82.167 -106 -108.5 -160s-39.5 -100.333 -39.5 -139c0 -33.333 10.167 -61.166 30.5 -83.499s50.833 -33.5 91.5 -33.5
c28 0 54.333 6.5 79 19.5s47.667 32.833 69 59.5l105 -78c-30.667 -44.667 -70.667 -79.834 -120 -105.501s-101 -38.5 -155 -38.5z" />
    <glyph glyph-name="uni0394" unicode="&#x394;" horiz-adv-x="1556" 
d="M274 0l-33 22l498 1273h78l498 -1273l-33 -22h-1008zM480 169h597l-326 900h55z" />
    <glyph glyph-name="uni03A9" unicode="&#x3a9;" horiz-adv-x="1258" 
d="M107 0l0.000976562 177.999l233 -24c-68.667 50.667 -121.667 114.167 -159 190.5s-56 160.833 -56 253.5c0 104.667 22.167 195.834 66.5 273.501s104.333 138 180 181s161.167 64.5 256.5 64.5c96.667 0 183 -21.833 259 -65.5s136 -104.5 180 -182.5
s66 -168.667 66 -272c0 -93.333 -19 -178.333 -57 -255s-90.667 -139.334 -158 -188.001l232 24v-178h-477v116l11 7c27.333 14 53.5 35.667 78.5 65s47.333 63.5 67 102.5s35 80.667 46 125s16.5 89.5 16.5 135.5c0 66 -11.5 125.333 -34.5 178
s-54.167 94.334 -93.5 125.001s-84.333 46 -135 46c-50 0 -94.833 -15.167 -134.5 -45.5s-71 -71.833 -94 -124.5s-34.5 -112.667 -34.5 -180c0 -46 5.66699 -91.5 17 -136.5s26.666 -87 45.999 -126s41.5 -73 66.5 -102s51.167 -49.833 78.5 -62.5l10 -7v-116h-477z" />
    <glyph glyph-name="uni03BC" unicode="&#x3bc;" horiz-adv-x="1544" 
d="M253 -320c0 68 2.32812 130.5 6.99512 187.5s10.334 113.333 17.001 169s12.5 115 17.5 178s7.5 134.167 7.5 213.5v597h249v-596c0 -80.667 19.833 -145 59.5 -193s98.834 -72 177.501 -72c50.667 0 94.834 11.5 132.501 34.5s66.834 52.667 87.501 89
s31 73.833 31 112.5v625h249v-1025h-249v123c-20.667 -32.667 -48 -60.5 -82 -83.5s-70.833 -40.667 -110.5 -53s-78.167 -18.5 -115.5 -18.5c-44.667 0 -81.667 7 -111 21s-52.666 32.667 -69.999 56v-365h-297z" />
    <glyph glyph-name="pi" unicode="&#x3c0;" horiz-adv-x="1332" 
d="M359 0v845.001h-166v180h965v-180h-166v-553c0 -37.333 7.5 -63 22.5 -77s42.167 -21 81.5 -21v-194c-108 0 -184.667 19.167 -230 57.5s-68 103.166 -68 194.499v593h-245v-845h-194z" />
    <glyph glyph-name="Wgrave" unicode="&#x1e80;" horiz-adv-x="2417" 
d="M552 0l-482 1650h292l348 -1295l399 1295h198l400 -1295l348 1295h291l-481 -1650h-292l-364 1143l-365 -1143h-292zM1294 1751l-308 378l173 129l246 -420z" />
    <glyph glyph-name="wgrave" unicode="&#x1e81;" horiz-adv-x="1967" 
d="M538 0l-524 1024h285l314 -687l286 687h169l285 -687l314 687h285l-523 -1024h-167l-279 666l-279 -666h-166zM1069 1126l-308 378l173 129l246 -420z" />
    <glyph glyph-name="Wacute" unicode="&#x1e82;" horiz-adv-x="2417" 
d="M552 0l-482 1650h292l348 -1295l399 1295h198l400 -1295l348 1295h291l-481 -1650h-292l-364 1143l-365 -1143h-292zM1173 1751l-110 87l245 420l174 -129z" />
    <glyph glyph-name="wacute" unicode="&#x1e83;" horiz-adv-x="1967" 
d="M538 0l-524 1024h285l314 -687l286 687h169l285 -687l314 687h285l-523 -1024h-167l-279 666l-279 -666h-166zM947 1126l-110 87l245 420l174 -129z" />
    <glyph glyph-name="Wdieresis" unicode="&#x1e84;" horiz-adv-x="2417" 
d="M552 0l-482 1650h292l348 -1295l399 1295h198l400 -1295l348 1295h291l-481 -1650h-292l-364 1143l-365 -1143h-292zM1445 1887c-37.333 0 -69.333 13.333 -96 40s-40 58.667 -40 96c0 38 13.333 70.167 40 96.5s58.667 39.5 96 39.5c38 0 70.167 -13.167 96.5 -39.5
s39.5 -58.5 39.5 -96.5c0 -37.333 -13.167 -69.333 -39.5 -96s-58.5 -40 -96.5 -40zM973 1887c-37.333 0 -69.333 13.333 -96 40s-40 58.667 -40 96c0 38 13.333 70.167 40 96.5s58.667 39.5 96 39.5c38 0 70.167 -13.167 96.5 -39.5s39.5 -58.5 39.5 -96.5
c0 -37.333 -13.167 -69.333 -39.5 -96s-58.5 -40 -96.5 -40z" />
    <glyph glyph-name="wdieresis" unicode="&#x1e85;" horiz-adv-x="1967" 
d="M538 0l-524 1024h285l314 -687l286 687h169l285 -687l314 687h285l-523 -1024h-167l-279 666l-279 -666h-166zM1219 1262c-37.333 0 -69.333 13.333 -96 40s-40 58.667 -40 96c0 38 13.333 70.167 40 96.5s58.667 39.5 96 39.5c38 0 70.167 -13.167 96.5 -39.5
s39.5 -58.5 39.5 -96.5c0 -37.333 -13.167 -69.333 -39.5 -96s-58.5 -40 -96.5 -40zM747 1262c-37.333 0 -69.333 13.333 -96 40s-40 58.667 -40 96c0 38 13.333 70.167 40 96.5s58.667 39.5 96 39.5c38 0 70.167 -13.167 96.5 -39.5s39.5 -58.5 39.5 -96.5
c0 -37.333 -13.167 -69.333 -39.5 -96s-58.5 -40 -96.5 -40z" />
    <glyph glyph-name="uni1E9E" unicode="&#x1e9e;" horiz-adv-x="1632" 
d="M1029 -28c-60.667 0 -124.167 9.66699 -190.5 29s-134.166 47.333 -203.499 84l58 251c62.667 -36.667 119 -64.334 169 -83.001s100.667 -28 152 -28c46 0 86.833 8.33301 122.5 25s63.5 40.334 83.5 71.001s30 67.334 30 110.001c0 40.667 -9.33301 74 -28 100
s-43 47.667 -73 65s-61.833 33 -95.5 47s-65.334 29 -95.001 45s-54 35.667 -73 59s-28.5 53.333 -28.5 90c0 29.333 6 53.833 18 73.5s27 38 45 55s35.667 35.167 53 54.5s32 42.5 44 69.5s18 61.5 18 103.5c0 74 -21.667 131.333 -65 172s-101 61 -173 61
c-95.333 0 -168 -35.167 -218 -105.5s-75 -171.166 -75 -302.499v-1018h-263v996c0 144.667 21.833 268 65.5 370s108 180 193 234s189.5 81 313.5 81c100 0 187.833 -17 263.5 -51s134.667 -83 177 -147s63.5 -141 63.5 -231c0 -50 -6 -92.167 -18 -126.5
s-27 -63.5 -45 -87.5s-35.833 -44.833 -53.5 -62.5s-32.5 -34.334 -44.5 -50.001s-18 -32.5 -18 -50.5c0 -22 8.83301 -40.333 26.5 -55s40.5 -28.667 68.5 -42s57.667 -28.333 89 -45s61 -37.667 89 -63s50.833 -57.333 68.5 -96s26.5 -87.334 26.5 -146.001
c0 -86 -20.667 -163.5 -62 -232.5s-98 -123.5 -170 -163.5s-153.667 -60 -245 -60z" />
    <glyph glyph-name="Ygrave" unicode="&#x1ef2;" horiz-adv-x="1503" 
d="M621 0v728l-588 922h316l402 -653l403 653h316l-588 -922v-728h-261zM837 1751l-308 378l173 129l246 -420z" />
    <glyph glyph-name="ygrave" unicode="&#x1ef3;" horiz-adv-x="1251" 
d="M196 -520l302 611l-486 933h284l347 -690l307 690h284l-754 -1544h-284zM712 1126l-308 378l173 129l246 -420z" />
    <glyph glyph-name="endash" unicode="&#x2013;" horiz-adv-x="1358" 
d="M193 472v214h972v-214h-972z" />
    <glyph glyph-name="emdash" unicode="&#x2014;" horiz-adv-x="2312" 
d="M193 472v214h1926v-214h-1926z" />
    <glyph glyph-name="quoteleft" unicode="&#x2018;" horiz-adv-x="652" 
d="M318 1120c-46 0 -83.168 14.668 -111.501 44.001s-42.5 70 -42.5 122c0 64 20.833 131.5 62.5 202.5s96.834 134.5 165.501 190.5l63 -53c-14 -14 -28.167 -33.167 -42.5 -57.5s-26.833 -50.5 -37.5 -78.5s-17.667 -54.333 -21 -79
c35.333 -8.66699 63.666 -25.834 84.999 -51.501s32 -56.167 32 -91.5c0 -43.333 -14.167 -78.833 -42.5 -106.5s-65.166 -41.5 -110.499 -41.5z" />
    <glyph glyph-name="quoteright" unicode="&#x2019;" horiz-adv-x="650" 
d="M256 1121l-62.002 52c14 14.667 28.167 34.334 42.5 59.001s26.833 51 37.5 79s17.334 54.333 20.001 79c-35.333 8 -63.666 24.833 -84.999 50.5s-32 56.5 -32 92.5c0 43.333 14.167 78.666 42.5 105.999s65.166 41 110.499 41c46 0 83.167 -14.5 111.5 -43.5
s42.5 -69.833 42.5 -122.5c0 -64 -20.667 -131.5 -62 -202.5s-96.666 -134.5 -165.999 -190.5z" />
    <glyph glyph-name="quotesinglbase" unicode="&#x201a;" horiz-adv-x="745" 
d="M254 -273l-63 52c14.667 14.667 29.167 34.334 43.5 59.001s26.833 51 37.5 79s17.667 54.333 21 79c-36 8 -64.667 24.833 -86 50.5s-32 56.5 -32 92.5c0 44 14.167 79.5 42.5 106.5s65.166 40.5 110.499 40.5c46.667 0 84 -14.667 112 -44s42 -70 42 -122
c0 -64.667 -20.667 -132.334 -62 -203.001s-96.666 -134 -165.999 -190z" />
    <glyph glyph-name="quotedblleft" unicode="&#x201c;" horiz-adv-x="1037" 
d="M701 1120c-46 0 -83.165 14.668 -111.498 44.001s-42.5 70 -42.5 122c0 64 20.667 131.5 62 202.5s96.666 134.5 165.999 190.5l62 -53c-14 -14 -28.167 -33.167 -42.5 -57.5s-26.833 -50.5 -37.5 -78.5s-17.334 -54.333 -20.001 -79
c35.333 -8.66699 63.5 -25.834 84.5 -51.501s31.5 -56.167 31.5 -91.5c0 -43.333 -14 -78.833 -42 -106.5s-64.667 -41.5 -110 -41.5zM320.002 1120c-46.667 0 -83.999 14.668 -111.999 44.001s-42 70 -42 122c0 64 20.667 131.5 62 202.5s96.333 134.5 165 190.5l63 -53
c-14 -14 -28.167 -33.167 -42.5 -57.5s-26.833 -50.5 -37.5 -78.5s-17.334 -54.333 -20.001 -79c35.333 -8.66699 63.5 -25.834 84.5 -51.501s31.5 -56.167 31.5 -91.5c0 -43.333 -14 -78.833 -42 -106.5s-64.667 -41.5 -110 -41.5z" />
    <glyph glyph-name="quotedblright" unicode="&#x201d;" horiz-adv-x="1035" 
d="M642 1121l-63.001 52.002c14 14.667 28.167 34.167 42.5 58.5s26.833 50.666 37.5 78.999s17.334 54.833 20.001 79.5c-34.667 7.33301 -62.667 24 -84 50s-32 57 -32 93c0 43.333 14 78.666 42 105.999s64.667 41 110 41c46.667 0 84 -14.667 112 -44
s42 -70.333 42 -123c0 -64 -20.667 -131.333 -62 -202s-96.333 -134 -165 -190zM259.999 1121l-62.002 52.002c14 14.667 28.167 34.167 42.5 58.5s26.833 50.666 37.5 78.999s17.667 54.833 21 79.5c-35.333 7.33301 -63.666 24 -84.999 50s-32 57 -32 93
c0 43.333 14 78.666 42 105.999s64.667 41 110 41c46.667 0 84 -14.667 112 -44s42 -70.333 42 -123c0 -64 -20.667 -131.333 -62 -202s-96.666 -134 -165.999 -190z" />
    <glyph glyph-name="quotedblbase" unicode="&#x201e;" horiz-adv-x="1021" 
d="M252 -273l-63.001 52c14.667 14.667 29.167 34.334 43.5 59.001s27 51 38 79s17.833 54.333 20.5 79c-36 8 -64.667 24.833 -86 50.5s-32 56.5 -32 92.5c0 44 14.333 79.5 43 106.5s65.667 40.5 111 40.5c46 0 83 -14.667 111 -44s42 -70 42 -122
c0 -64.667 -20.667 -132.334 -62 -203.001s-96.666 -134 -165.999 -190zM632.999 -273l-63.001 52c14.667 14.667 29.167 34.334 43.5 59.001s26.833 51 37.5 79s17.667 54.333 21 79c-36 8 -64.667 24.833 -86 50.5s-32 56.5 -32 92.5c0 44 14.167 79.5 42.5 106.5
s65.5 40.5 111.5 40.5s83 -14.667 111 -44s42 -70 42 -122c0 -64.667 -20.667 -132.334 -62 -203.001s-96.666 -134 -165.999 -190z" />
    <glyph glyph-name="dagger" unicode="&#x2020;" horiz-adv-x="1091" 
d="M437 0v1066h-294v196h294v458h217v-458h293v-196h-293v-1066h-217z" />
    <glyph glyph-name="daggerdbl" unicode="&#x2021;" horiz-adv-x="1175" 
d="M479 0v498h-294v196h294v347h-294v195h294v484h217v-484h293v-195h-293v-347h293v-196h-293v-498h-217z" />
    <glyph glyph-name="bullet" unicode="&#x2022;" horiz-adv-x="964" 
d="M482 442c-50.667 0 -96.834 12 -138.501 36s-74.667 56.667 -99 98s-36.5 87.333 -36.5 138s12.167 96.667 36.5 138s57.333 74 99 98s87.834 36 138.501 36s96.667 -12 138 -36s74 -56.667 98 -98s36 -87.333 36 -138s-12 -96.667 -36 -138s-56.667 -74 -98 -98
s-87.333 -36 -138 -36z" />
    <glyph glyph-name="ellipsis" unicode="&#x2026;" horiz-adv-x="1842" 
d="M398 -32c-30.667 0 -58.5 7.5 -83.5 22.5s-45 35 -60 60s-22.5 52.5 -22.5 82.5c0 30.667 7.5 58.334 22.5 83.001s35 44.5 60 59.5s52.833 22.5 83.5 22.5s58.334 -7.5 83.001 -22.5s44.334 -34.833 59.001 -59.5s22 -52.334 22 -83.001c0 -30 -7.33301 -57.5 -22 -82.5
s-34.334 -45 -59.001 -60s-52.334 -22.5 -83.001 -22.5zM921 -32c-30.667 0 -58.5 7.49902 -83.5 22.499s-44.833 35 -59.5 60s-22 52.5 -22 82.5c0 30.667 7.33301 58.334 22 83.001s34.5 44.5 59.5 59.5s52.833 22.5 83.5 22.5s58.334 -7.33301 83.001 -22
s44.5 -34.667 59.5 -60s22.5 -53 22.5 -83s-7.5 -57.5 -22.5 -82.5s-34.833 -45 -59.5 -60s-52.334 -22.5 -83.001 -22.5zM1443 -32.001c-30.667 0 -58.334 7.5 -83.001 22.5s-44.5 35 -59.5 60s-22.5 52.5 -22.5 82.5c0 30.667 7.5 58.5 22.5 83.5s34.833 44.833 59.5 59.5
s52.334 22 83.001 22s58.334 -7.33301 83.001 -22s44.5 -34.667 59.5 -60s22.5 -53 22.5 -83s-7.5 -57.5 -22.5 -82.5s-34.833 -45 -59.5 -60s-52.334 -22.5 -83.001 -22.5z" />
    <glyph glyph-name="perthousand" unicode="&#x2030;" horiz-adv-x="3069" 
d="M557 892c-80.667 0 -153.334 16.667 -218.001 50s-115.834 79.666 -153.501 138.999s-56.5 127.666 -56.5 204.999s18.833 145.666 56.5 204.999s88.834 105.666 153.501 138.999s137.334 50 218.001 50c80 0 152.333 -16.667 217 -50s115.834 -79.666 153.501 -138.999
s56.5 -127.666 56.5 -204.999s-18.833 -145.666 -56.5 -204.999s-88.834 -105.666 -153.501 -138.999s-137 -50 -217 -50zM478 0l960 1650h174l-960 -1650h-174zM556 1047c44.667 0 85.167 10.3311 121.5 30.998s65.166 48.834 86.499 84.501s32 76.834 32 123.501
s-10.667 87.834 -32 123.501s-50 63.834 -86 84.501s-76.333 31 -121 31c-45.333 0 -86 -10.333 -122 -31s-64.5 -48.834 -85.5 -84.501s-31.5 -76.834 -31.5 -123.501s10.667 -88 32 -124s49.833 -64.167 85.5 -84.5s75.834 -30.5 120.501 -30.5zM1532 -31.002
c-81.333 0 -154.166 16.667 -218.499 50s-115.5 79.666 -153.5 138.999s-57 127.666 -57 204.999s19 145.666 57 204.999s89.167 105.666 153.5 138.999s137.166 50 218.499 50c80 0 152.333 -16.667 217 -50s115.834 -79.666 153.501 -138.999s56.5 -127.666 56.5 -204.999
s-18.833 -145.666 -56.5 -204.999s-88.834 -105.666 -153.501 -138.999s-137 -50 -217 -50zM2512 -31.002c-80 0 -152.167 16.667 -216.5 50s-115.5 79.666 -153.5 138.999s-57 127.666 -57 204.999s19 145.666 57 204.999s89.167 105.666 153.5 138.999
s136.833 50 217.5 50s153.167 -16.667 217.5 -50s115.5 -79.666 153.5 -138.999s57 -127.666 57 -204.999s-19 -145.666 -57 -204.999s-89.167 -105.666 -153.5 -138.999s-137.166 -50 -218.5 -50zM1532 123.998c44.667 0 84.834 10.333 120.501 31s64.167 49 85.5 85
s32 77.333 32 124s-10.667 87.834 -32 123.501s-49.833 63.667 -85.5 84s-75.834 30.5 -120.501 30.5c-45.333 0 -86 -10.167 -122 -30.5s-64.667 -48.333 -86 -84s-32 -76.834 -32 -123.501s10.667 -88 32 -124s50 -64.333 86 -85s76.667 -31 122 -31zM2512 123.998
c45.333 0 86 10.333 122 31s64.5 49 85.5 85s31.5 77.333 31.5 124s-10.5 87.834 -31.5 123.501s-49.5 63.667 -85.5 84s-76.667 30.5 -122 30.5c-44 0 -84 -10.167 -120 -30.5s-64.833 -48.333 -86.5 -84s-32.5 -76.834 -32.5 -123.501s10.833 -88 32.5 -124
s50.5 -64.333 86.5 -85s76 -31 120 -31z" />
    <glyph glyph-name="guilsinglleft" unicode="&#x2039;" horiz-adv-x="742" 
d="M488 57l-390 500l390 500l135 -107l-307 -393l307 -393z" />
    <glyph glyph-name="guilsinglright" unicode="&#x203a;" horiz-adv-x="740" 
d="M253 57l-137 107l308 393l-308 393l137 107l390 -500z" />
    <glyph glyph-name="fraction" unicode="&#x2044;" horiz-adv-x="129" 
d="M-551 0l1053 1650h178l-1053 -1650h-178z" />
    <glyph glyph-name="uni2074" unicode="&#x2074;" horiz-adv-x="580" 
d="M363 1040v110h-338v39l334 461h117v-395h79v-105h-79v-110h-113zM190 1255h173v247z" />
    <glyph glyph-name="Euro" unicode="&#x20ac;" horiz-adv-x="1898" 
d="M1197 -31c-128.667 0 -249.833 25.502 -363.5 76.502s-212.334 122.167 -296.001 213.5s-144.167 197 -181.5 317h-182v155h148c-2.66699 14.667 -4.66699 30.167 -6 46.5s-2 32.166 -2 47.499c0 14.667 0.666992 29.667 2 45s3.33301 30.333 6 45h-148v155h182
c28 90 69.667 172.167 125 246.5s120.333 138.5 195 192.5s156.5 96 245.5 126s180.833 45 275.5 45c101.333 0 199.166 -14.167 293.499 -42.5s175.5 -68.166 243.5 -119.499l-116 -222c-52 40 -111.333 71.167 -178 93.5s-135.334 33.5 -206.001 33.5
c-85.333 0 -165 -14.667 -239 -44s-139 -70.333 -195 -123s-100 -114.667 -132 -186h752v-155h-812c-2.66699 -16 -4.83398 -31.5 -6.50098 -46.5s-2.5 -29.5 -2.5 -43.5c0 -14.667 0.833008 -29.834 2.5 -45.501s3.83398 -31.834 6.50098 -48.501h812v-155h-753
c30.667 -71.333 73.834 -133.166 129.501 -185.499s120.834 -92.833 195.501 -121.5s155.334 -43 242.001 -43c70.667 0 139.667 11.167 207 33.5s126.666 53.166 177.999 92.499l116 -222c-67.333 -50.667 -148.166 -90.167 -242.499 -118.5s-192.833 -42.5 -295.5 -42.5z
" />
    <glyph glyph-name="trademark" unicode="&#x2122;" horiz-adv-x="1382" 
d="M567 1134l54 516h97l127 -336l129 336h98l53 -516h-90l-38 349l-121 -333h-59l-121 333l-37 -349h-92zM323 1134v435h-135v81h363v-81h-135v-435h-93z" />
    <glyph glyph-name="uni2150" unicode="&#x2150;" horiz-adv-x="2314" 
d="M317 600v851h-123v199h326v-1050h-203zM335 0l1053 1650h178l-1053 -1650h-178zM1315 0l513 871h-487v179h788v-60l-574 -990h-240z" />
    <glyph glyph-name="uni2151" unicode="&#x2151;" horiz-adv-x="2438" 
d="M317 600v851h-123v199h326v-1050h-203zM335 0l1053 1650h178l-1053 -1650h-178zM1425 0l361 374.002c-15.333 -8 -33.5 -14 -54.5 -18s-43.5 -6 -67.5 -6c-64.667 0 -126.667 15.333 -186 46s-107.666 73.5 -144.999 128.5s-56 118.833 -56 191.5
c0 67.333 17.667 128.666 53 183.999s85.5 99.166 150.5 131.499s142.833 48.5 233.5 48.5c86.667 0 163.667 -15.5 231 -46.5s120.666 -74.5 159.999 -130.5s60.666 -121.333 64 -196c2.66699 -62 -6.16602 -117.167 -26.5 -165.5c-20.333 -48.333 -44.5 -90 -72.5 -125
s-52.333 -62.833 -73 -83.5l-325 -333h-247zM1721 525.002c44.667 0 84.8301 9.00098 120.497 27.001s63.834 41.667 84.501 71s31 62 31 98c0 34.667 -9.83301 66.334 -29.5 95.001s-47.167 51.667 -82.5 69s-76.333 26 -123 26c-45.333 0 -86.166 -8.33301 -122.499 -25
s-64.833 -39.334 -85.5 -68.001s-31 -61.334 -31 -98.001c0 -38 10.833 -71.5 32.5 -100.5s50.334 -52 86.001 -69s75.5 -25.5 119.5 -25.5z" />
    <glyph glyph-name="uni2152" unicode="&#x2152;" horiz-adv-x="3320" 
d="M317 600v851h-123v199h326v-1050h-203zM335 0l1053 1650h178l-1053 -1650h-178zM1538 0v851h-123v199h325v-1050h-202zM2564 -21c-104 0 -195.333 23.167 -274 69.5s-140 111 -184 194s-66 178.833 -66 287.5c0 109.333 22 205.166 66 287.499
s105.333 146.666 184 192.999s170 69.5 274 69.5c104.667 0 196.334 -23.167 275 -69.5c78.667 -46.333 140 -110.666 184 -192.999s66 -178.166 66 -287.499c0 -108.667 -22 -204.5 -66 -287.5s-105.333 -147.667 -184 -194s-170.334 -69.5 -275 -69.5zM2564 159
c63.333 0 118.166 15 164.5 45c46.333 30 82.166 72.667 107.5 128c25.333 55.333 38 121.333 38 198s-12.833 142.667 -38.5 198s-61.5 98 -107.5 128s-100.667 45 -164 45c-62 0 -116.167 -15 -162.5 -45s-82.333 -72.667 -108 -128s-38.5 -121.333 -38.5 -198
s12.833 -142.667 38.5 -198s61.667 -98 108 -128s100.5 -45 162.5 -45z" />
    <glyph glyph-name="uni2153" unicode="&#x2153;" horiz-adv-x="2399" 
d="M317 600v851h-123v199h326v-1050h-203zM335 0l1053 1650h178l-1053 -1650h-178zM1703 -21c-98 0 -183.334 23.832 -256.001 71.499s-119.667 112.167 -141 193.5l189 89c4 -52 24.833 -94.5 62.5 -127.5s86.167 -49.5 145.5 -49.5c56 0 100.667 14.667 134 44
s50 67.333 50 114c0 34 -8.16699 64.333 -24.5 91s-38.333 47.667 -66 63s-57.834 23 -90.501 23c-18.667 0 -35 -2.66699 -49 -8v136h49c30.667 0 58.334 7.16699 83.001 21.5s44.334 33.333 59.001 57s22 48.834 22 75.501s-7.33301 50.667 -22 72
s-34.334 38.333 -59.001 51s-52.334 19 -83.001 19c-30 0 -58.167 -6.5 -84.5 -19.5s-48.166 -30.833 -65.499 -53.5s-28.333 -48.667 -33 -78l-161 74c11.333 48.667 33.5 91.167 66.5 127.5s73.833 64.5 122.5 84.5s101.334 30 158.001 30c68.667 0 129 -13.5 181 -40.5
s92.667 -63.333 122 -109s44 -96.5 44 -152.5c0 -44 -10.5 -84.667 -31.5 -122s-51.167 -67.666 -90.5 -90.999c48.667 -25.333 87 -59.5 115 -102.5s42 -92.833 42 -149.5c0 -62 -16 -118.333 -48 -169s-77.167 -90.834 -135.5 -120.501s-126.5 -44.5 -204.5 -44.5z" />
    </font>
</defs>
</svg>
